<svg xmlns="http://www.w3.org/2000/svg" version="1.1" xmlns:xlink="http://www.w3.org/1999/xlink" xmlns:svgjs="http://svgjs.com/svgjs" width="1280" height="720" preserveAspectRatio="none" viewBox="0 0 1280 720"><g mask="url(&quot;#SvgjsMask1014&quot;)" fill="none"><circle r="7.03" cx="947.16" cy="532.55" filter="url(#SvgjsFilter1015)" fill="rgba(255, 255, 255, 0.33)"></circle><circle r="10.23" cx="949.5600000000001" cy="357" filter="url(#SvgjsFilter1015)" fill="rgba(255, 255, 255, 0.33)"></circle><circle r="9.985" cx="340.765" cy="78.855" filter="url(#SvgjsFilter1015)" fill="rgba(255, 255, 255, 0.33)"></circle><circle r="6.47" cx="69.45" cy="542.2" filter="url(#SvgjsFilter1015)" fill="rgba(255, 255, 255, 0.33)"></circle><circle r="8.555" cx="1217.275" cy="556.0849999999999" filter="url(#SvgjsFilter1015)" fill="rgba(255, 255, 255, 0.33)"></circle><circle r="11.32" cx="1133.01" cy="362.48" filter="url(#SvgjsFilter1015)" fill="rgba(255, 255, 255, 0.33)"></circle><circle r="7.47" cx="829.5600000000001" cy="655.38" filter="url(#SvgjsFilter1015)" fill="rgba(255, 255, 255, 0.33)"></circle><circle r="6.955" cx="149.345" cy="625.815" filter="url(#SvgjsFilter1015)" fill="rgba(255, 255, 255, 0.33)"></circle><circle r="10.265" cx="303.145" cy="456.875" filter="url(#SvgjsFilter1015)" fill="rgba(255, 255, 255, 0.33)"></circle><circle r="9.23" cx="243.72" cy="138.07999999999998" filter="url(#SvgjsFilter1015)" fill="rgba(255, 255, 255, 0.33)"></circle><circle r="8.745" cx="822.305" cy="237.065" filter="url(#SvgjsFilter1015)" fill="rgba(255, 255, 255, 0.33)"></circle><circle r="6.91" cx="636.65" cy="413.86" filter="url(#SvgjsFilter1015)" fill="rgba(255, 255, 255, 0.33)"></circle><circle r="10.455" cx="575.1850000000001" cy="45.565" filter="url(#SvgjsFilter1015)" fill="rgba(255, 255, 255, 0.33)"></circle><circle r="7.005" cx="168.185" cy="153.95499999999998" filter="url(#SvgjsFilter1015)" fill="rgba(255, 255, 255, 0.33)"></circle><circle r="7.435" cx="1083.0149999999999" cy="253.705" filter="url(#SvgjsFilter1015)" fill="rgba(255, 255, 255, 0.33)"></circle><circle r="8.985" cx="1163.2849999999999" cy="594.085" filter="url(#SvgjsFilter1015)" fill="rgba(255, 255, 255, 0.33)"></circle><circle r="10.58" cx="680.0500000000001" cy="563.89" filter="url(#SvgjsFilter1015)" fill="rgba(255, 255, 255, 0.33)"></circle><circle r="11.18" cx="809.3399999999999" cy="640.4799999999999" filter="url(#SvgjsFilter1015)" fill="rgba(255, 255, 255, 0.33)"></circle><circle r="10.835" cx="1150.525" cy="384.995" filter="url(#SvgjsFilter1015)" fill="rgba(255, 255, 255, 0.33)"></circle><circle r="11.285" cx="244.95499999999998" cy="539.385" filter="url(#SvgjsFilter1015)" fill="rgba(255, 255, 255, 0.33)"></circle><path d="M324.2 394.6L323.6 376.8 334.4 382.1C335.5 382.7 337.2 382.3 338.4 380.9 338.7 379.3 338.3 377.6 337.2 376.9L323.2 369.7 322.8 353.1 351.2 368.1C353 369 354.8 368.5 355.1 367 356.3 365.6 355.8 363.8 354 363L322.6 346.4 321.9 331.4 351.2 312.9 363.1 318.9 364.1 356.6C364.4 357.1 364.7 357.6 365 358 365.3 358.5 366.4 359.2 367.2 359.4 369.2 359.4 370.3 358 369.9 356.3L369 321.8 383.3 329.6 384.3 347.1C383.9 347.5 384.2 347.9 384.5 348.4 385.1 349.4 386.2 350 387.4 349.9 388.7 349.8 389.8 348.4 390.2 346.8L389.3 332.6 407.3 342C408.4 342.7 410.2 342.2 411.3 340.9 411.7 339.3 411.2 337.5 410.2 336.9L393.2 328.1 403.3 321.7C404.7 320.8 404.8 318.8 404.1 317.8 403.2 316.4 401.4 315.5 399.9 316.4L386.9 324.6 372.6 316.9 399.5 299.9C401 298.9 401.3 297.4 400.4 295.9 399.5 294.5 397.9 294.1 396.5 295L366.7 313.9 354 307.7 352.8 272.8 363.9 265.8 396 282.6C397.4 283.7 399.6 283 400 281.4 401.1 280 400.2 278.6 398.8 277.4L369.7 262.2 383.6 253.4 397.9 261.1C399 261.8 401.3 261.1 401.9 260S401.8 256.7 400.4 255.5L389.4 249.7 406.2 239.1C407.7 238.2 407.7 236.1 406.8 234.7 406.2 233.7 404.3 232.9 402.9 233.8L386 244.4 385.2 231.5C385.1 230.2 384.2 228.8 382.2 228.7 380.9 228.8 379.3 230.5 379.4 231.8L380.3 248.1 366.3 256.9 365.1 224C364.6 222.3 363.7 220.9 361.7 220.8 360.4 220.9 358.8 222.6 358.9 223.9L360.6 260.6 349.5 267.5 318.5 251.5 318.3 237.4 348.2 218.6C349.6 217.7 350 216.1 349 214.7 348.1 213.2 346.3 212.4 344.8 213.3L317.9 230.3 317 214 330 205.8C331.4 204.9 331.8 203.4 330.9 201.9 330 200.5 328.4 200.1 327 201L316.9 207.4 316.2 188.3C316.1 187 314.4 185.4 313.1 185.5 311.4 186 309.9 186.9 310.4 188.6L310.8 208.5 298.7 202.1C297.1 201.7 295.4 202.2 294.7 203.2 294 204.3 294.2 205.6 294.8 206.6 294.8 206.6 295.1 207 295.9 207.2L311.3 215.6 312.2 231.9 281.4 216.3C280.1 215.2 278.3 215.6 277.5 217.5 277.3 218.3 277.1 219.1 277.7 220 278 220.5 278.3 221 278.6 221.5L312.3 238.5 312.6 251.8 283.3 270.4 270.1 263.2 268.5 227.9C268.6 225.8 267.2 224.7 265.5 225.1 263.9 224.7 262.7 226.1 262.7 228.2L264.1 260.3 249.3 252.8 248.7 237C248.6 235.7 247.2 234.6 245.7 234.2 243.9 234.7 242.5 235.6 242.9 237.3L243.1 249.3 227.2 241.2C225.8 240.1 224.3 241 223.2 242.4 223 243.2 223.2 244.4 223.8 245.4 223.8 245.4 224.1 245.9 224.4 246.4L241.4 255.1 229.3 262.7C228.4 263.3 227.5 265.2 228.5 266.7 229.4 268.1 231.4 268.2 232.4 267.5L247.3 258.1 262.1 265.6 232.8 284.1C231.3 285 231.3 287.1 232.2 288.5S234.7 290.3 236.1 289.4L268.3 269 280.5 275.5 281.7 310.4 269.2 318.3 236.8 301.1C235.2 300.8 233.5 301.2 232.3 302.6 232.1 303.4 232.3 304.6 232.9 305.6 233.2 306.1 233.5 306.6 234.3 306.7L263.4 322 249.5 330.8 234.7 323.3C233.6 322.7 231.8 323.1 230.7 324.5 230.3 326 230.8 327.8 231.9 328.5L243.7 334.4 228.3 344.1C227.4 344.8 226.8 347.1 227.4 348.1 228.3 349.5 230.7 350 231.7 349.4L247 339.7 247.1 352.5C247.4 353 247.7 353.5 248 353.9 248.6 354.9 249.7 355.6 250.4 355.7 252.2 355.3 253.3 353.9 253.7 352.3L252.8 336.1 266.8 327.2 268 360.1C268 362.2 269.4 363.3 270.6 363.2 272.7 363.2 273.8 361.8 274.2 360.3L272.5 323.6 285 315.7 316.1 331.8 316.7 345.5 284.4 365.9C283 366.8 282.7 368.4 283.6 369.8 284.5 371.2 286 371.6 287.5 370.7L316.8 352.1 317.2 368.7 302.3 378.1C301.3 378.7 300.8 381.1 301.7 382.5 302.6 384 304.7 384 305.6 383.4L317.7 375.8 318.3 394.9C318.6 395.4 318.6 395.4 318.9 395.9 319.5 396.9 320.6 397.5 321.4 397.7 323.1 397.3 324.3 395.9 324.2 394.6ZM290.8 312L287.5 310.1 287.5 306.8 286.4 278.5 286.3 275.2 289.2 273.3 312.8 258.4 315.7 256.6 318.6 258.1 343.7 271.2 346.7 272.7 347.1 276.5 347.8 304.3 348.2 308.1 345.3 309.9 321.7 324.8 318.9 326.6 315.6 324.6 290.8 312Z" fill="rgba(255, 255, 255, 0.33)"></path><path d="M142.7 490.9L130.2 464.2 139.3 439.5 156.1 459.7 153.2 489C153.2 489 153.3 489.4 153.3 489.4 153.4 490.1 154.2 490.7 155 490.9 156.1 491.1 157 490.2 156.9 489.1L159.3 463.5 167.5 473.2 166.5 484.6C166.5 484.6 166.6 484.9 166.6 484.9 166.7 485.6 167.5 486.2 168.3 486.4 169.4 486.6 170.3 485.7 170.2 484.7L171 477 176.9 484.2C177.4 484.9 178.9 485 179.5 484.5 180.5 484 180.3 482.6 179.8 481.9L173.8 474.7 181.6 475.5C182.7 475.7 183.6 474.8 183.4 473.7 183.6 472.6 182.7 471.7 181.7 471.9L170.3 470.9 162.5 461.1 188.2 463.5C189.3 463.7 190.2 462.8 190 461.8 190.2 460.7 189.3 459.7 188.2 459.9L158.9 457 142.1 436.9 168.3 432.3 192.6 449.4C193.4 450 194.4 449.8 195 449 195.6 448.2 195.4 447.1 194.6 446.5L173.2 431.5 185.8 429.3 194.9 435.7C195.7 436.2 196.8 436.1 197.3 435.2 197.9 434.4 197.7 433.4 196.9 432.8L190.8 428.4 200.6 426.8C201.7 426.9 202.2 425.7 202 424.7 201.8 423.6 201 423.1 200 423.2L190.8 424.8 195.2 418.7C195.8 417.8 195.6 416.8 194.8 416.2S192.9 415.8 192.3 416.6L185.9 425.7 173.3 427.8 188.4 406.5C189 405.7 188.8 404.6 188 404 187.2 403.4 186.1 403.6 185.5 404.5L168.4 428.7 142.5 433.2 151.6 408.5 177.6 396.4C178.6 395.9 178.8 394.8 178.6 393.7 178.1 392.7 177 392.6 175.9 392.8L152.6 403.7 157 391.7 167.4 387C168.4 386.5 168.5 385.4 168.3 384.3 167.8 383.3 166.7 383.2 166 383.3L159 386.7 162.2 377.8C162.4 377.1 162.1 375.7 161 375.5 159.9 375.3 158.9 375.5 158.7 376.6L155.5 385.5 152.2 378.5C151.6 377.5 150.5 377.3 149.8 377.4 149.2 377.9 148.6 378.7 148.7 379.4 148.7 379.4 148.8 379.8 148.8 379.8L153.5 390.1 149 402.1 138.1 378.7C137.6 377.7 136.5 377.6 135.8 377.7 135.2 378.2 134.6 379 134.7 379.7 134.7 379.7 134.8 380 134.8 380L147.3 406.7 138.2 431.4 121.4 411.2 124.2 381.8C124.4 380.7 123.5 379.8 122.5 380 121.4 379.8 120.4 380.7 120.6 381.7L118.2 407.4 110 397.6 110.9 386.3C111.1 385.2 110.2 384.3 109.2 384.4 108.1 384.3 107.1 385.2 107.3 386.2L106.5 393.9 100.5 386.7C100.1 386 98.6 385.9 98 386.4 97.3 386.9 97.1 387.6 97.2 388.3 97.3 388.7 97.3 389 97.8 389.3L103.7 396.6 96 395.7C94.9 395.6 93.9 396.5 94.1 397.5 94.1 397.5 94.2 397.9 94.2 397.9 94.3 398.6 95.1 399.1 95.9 399.4L107.2 400.3 115.4 410.1 89.7 407.6C88.6 407.5 87.7 408.4 87.9 409.4 87.9 409.4 87.9 409.8 87.9 409.8 88.1 410.5 88.9 411 89.6 411.3L119 414.1 135.8 434.3 109.9 438.8 85.7 421.7C84.8 421.1 83.8 421.3 83.2 422.1 82.6 422.9 82.8 424 83.6 424.6L104.7 439.7 92 441.9 83 435.5C82.2 434.9 81.1 435.1 80.6 435.9S80.2 437.8 81 438.4L87.1 442.7 78 444.3C77 444.5 76.4 445.3 76.6 446.4 76.8 447.4 77.6 448 78.6 447.8L87.7 446.2 83.4 452.4C83.1 452.8 82.8 453.2 82.9 453.9S83.5 454.9 83.9 455.2C84.7 455.8 85.8 455.6 86.3 454.8L92.7 445.7 105.3 443.6 90.3 464.9C90 465.3 89.7 465.8 89.8 466.5 89.9 466.8 90.3 467.4 90.7 467.7 91.6 468.3 92.6 468.1 93.2 467.3L110.3 443.1 136.2 438.6 127.1 463.2 100.4 475.8C99.8 476.3 99.2 477.1 99.3 477.8 99.3 477.8 99.4 478.1 99.4 478.1 99.9 479.1 101 479.3 101.7 479.2L125.1 468.3 120.7 480.2 110.3 484.9C109.7 485.4 109.1 486.2 109.2 486.9 109.2 486.9 109.3 487.3 109.3 487.3 109.8 488.3 110.9 488.4 111.6 488.3L118.6 484.9 115.4 493.8C115.5 494.1 115.2 494.5 115.3 494.9 115.4 495.6 115.9 496.2 116.6 496.5 117.7 496.6 118.8 496.4 119 495.3L122.1 486.5 125.5 493.5C126 494.5 127.1 494.6 127.8 494.5 128.8 494 129 492.9 128.9 492.2L124.2 481.8 128.6 469.8 139.5 493.2C140.1 494.2 141.2 494.4 141.9 494.3 142.7 493 143.3 491.9 142.7 490.9Z" fill="rgba(255, 255, 255, 0.33)"></path><path d="M451.4 269.2L456 278.1 450 278C449.4 278 448.7 278.5 448.5 279.4 448.6 280.2 449.2 280.9 450 280.7L457.5 281 461.4 287.8 445.7 287.1C444.9 287.3 444.2 287.8 444.2 288.5 444.2 289.5 444.8 290.2 445.6 290L462.9 290.7 468.4 301.2 454.9 299.2 462.7 310.4 450.9 310 442.6 294.8C442.7 294.6 442.5 294.5 442.2 294.3 441.7 294 441.1 293.9 440.6 294.3 440 294.6 439.8 295.5 440 296.3L447.5 310 439.8 309.5 436.2 302.9C436.1 302.5 435.8 302.4 435.6 302.2 435.4 302.1 434.7 302 434.2 302.4 433.6 302.7 433.4 303.6 433.8 304.1L436.5 309.5 426.5 309.3C425.6 309.1 425.2 309.8 425 310.7 424.9 311.3 425.5 312 426.5 312L436.3 312.4 433.2 317.5C432.7 318.2 433.1 319.1 433.6 319.4 434.4 319.9 435.1 319.7 435.6 319L439.6 312.5 447.4 312.9 439.3 326C438.8 326.7 439 327.5 439.7 327.9 440.2 328.2 441.2 328.2 441.7 327.5L450.7 313 462.6 313.3 454.3 323.9 467.7 322.9 461.4 333 444.3 332.4C443.3 332.5 442.8 333.2 442.8 333.8 442.7 334.5 443.3 335.2 444.2 335.4L459.7 335.7 455.7 342.2 448 342.1C447.1 341.9 446.4 342.5 446.5 343.5 446.4 344.1 447 344.8 448 344.8L453.9 345.1 448.6 353.5C448.2 354.3 448.3 355 449.1 355.5S450.6 355.8 451 355L456.3 346.6 459.1 351.7C459.5 352.6 460.4 352.8 461 352.5 461.9 352.1 462.1 351.2 461.5 350.5L458.1 343.7 462.1 337.2 469.3 351C469.9 351.7 470.7 351.9 471.3 351.5 472.2 351.1 472.4 350.2 471.8 349.6L463.8 334.5 470.1 324.4 475.1 336.8 480.9 324.7 486.5 335.2 477.4 349.7C477 350.4 477.4 351.4 477.9 351.7 478.6 352.1 479.4 351.9 479.9 351.2L488.1 337.9 491.8 344.9 487.8 351.4C487.3 352.1 487.5 352.9 488.2 353.4 488.7 353.7 489.7 353.6 490.2 352.9L493.3 347.8 498 356.5C498.5 357.4 499.3 357.6 500 357 500.6 356.7 501 356 500.4 355.3L495.9 346.4 501.9 346.5C502.5 346.5 503.2 346 503.3 345.3 503.3 344.7 503 344.1 502.8 344 502.5 343.8 502.3 343.7 501.9 343.8L494.4 343.5 490.5 336.7 506.2 337.4C507 337.2 507.7 336.7 507.7 336 507.8 335.4 507.4 334.9 507 334.5 506.7 334.4 506.7 334.4 506.3 334.5L489 333.8 483.5 323.3 497 325.3 489.2 314.1 501 314.5 509.3 329.7C509.7 330.2 510.4 330.7 511.3 330.2 511.9 329.9 512.1 329 511.9 328.2L504.4 314.5 512.1 315 515.7 321.6C515.9 322.3 516.8 322.6 517.7 322.1 518.2 321.8 518.4 320.9 518.3 320.1L515.4 315 525.4 315.2C526.2 315.4 526.7 314.7 526.9 313.8 526.8 313.4 526.5 312.9 526.2 312.7 526 312.6 525.8 312.4 525.4 312.5L515.6 312.1 518.7 307C519.2 306.3 518.7 305.4 518.3 305.1L518.3 305.1C517.5 304.6 516.8 304.8 516.3 305.5L512.2 312 504.5 311.6 512.6 298.5C513.1 297.8 512.9 297 512.1 296.6S510.6 296.3 510.2 297L501.2 311.5 489.3 311.2 497.6 300.6 484.2 301.6 490.5 291.5 507.6 292.1C508.6 292 509.1 291.3 509.1 290.7 509.2 290 508.6 289.3 507.7 289.1L492.3 288.6 496.2 282.3 503.9 282.4C504.8 282.6 505.5 282 505.4 281 505.5 280.4 504.9 279.7 504 279.5L498 279.4 503.3 271C503.7 270.2 503.6 269.5 502.8 269S501.3 268.7 500.9 269.5L495.6 277.9 492.8 272.8C492.7 272.4 492.4 272.3 492.2 272.1 491.7 271.8 491.3 271.9 490.9 272 490 272.4 489.8 273.3 490.4 274L493.8 280.8 489.8 287.3 482.6 273.5C482.4 273.4 482.1 273.2 481.9 273.1 481.4 272.8 481 272.9 480.6 273 479.7 273.4 479.5 274.3 480 274.9L488.1 290 481.8 300.1 476.8 287.7 471 299.8 465.4 289.3 474.4 274.8C474.9 274.1 474.5 273.1 474 272.8 473.3 272.4 472.5 272.6 472 273.3L463.9 286.3 460.1 279.6 464.1 273.1C464.6 272.4 464.4 271.6 463.7 271.1S462.2 270.9 461.7 271.6L458.6 276.7 453.9 268C453.8 267.6 453.5 267.5 453.3 267.3 453 267.2 452.4 267.1 451.9 267.5 451.3 267.8 450.9 268.5 451.4 269.2ZM476.6 294.6L480.6 304.8 491.5 303.9 484.7 312.7 490.9 321.6 480.1 320.2 475.3 330 471.3 319.7 460.3 320.6 467 312.1 461 302.9 471.7 304.6 476.6 294.6Z" fill="rgba(255, 255, 255, 0.33)"></path><path d="M923.9 440.9L969.6 452 976.6 462.9 962.9 488.4 949.6 489 915.5 456.4C915 456.1 915 456.1 914.5 455.9 913.5 455.3 912.2 455.3 910.9 456.5 910.1 458 910.1 459.3 911.3 460.6L941.2 489 920.8 489.7 907.5 477.3C907.5 477.3 907 477 907 477 906 476.5 904.7 476.4 903.4 477.7 902.3 478.4 902.5 480.4 903.8 481.7L912.1 490.1 897.1 490.4C895.8 490.4 894.5 491.6 894.2 493.4S895.9 496.3 897.7 496.6L912.2 496 904.3 504.7C903 505.9 903.2 507.9 904.4 509.3 905.4 509.8 907.2 510.1 908.5 508.9L920.9 495.5 941.8 495.1 913.3 525.1C912 526.3 912.2 528.3 913 529.4 914.5 530.2 916.2 530.5 917.5 529.3L949.7 494.9 963.4 494.6 978.2 518.7 971.7 530.7 926.7 544.6C925.2 545 924.4 546.5 924.8 548.1S926.8 550.4 928.3 550L967.9 537.7 957.9 556.2 941 561.3C939.4 561.8 938.6 563.3 938.8 565.3S940.8 567.7 942.3 567.2L954.1 563.2 946.8 576.8C946 578.3 947 580.1 948.5 580.9 950 581.7 951.5 581.2 952.4 579.7L959.7 566.2 963.1 577.8C963.3 579.8 964.8 580.6 966.6 579.7 968.2 579.2 969 577.7 968.5 576.2L963.4 559.2 973.4 540.7 984.9 580.5C985.4 582 987.4 583.1 988.9 582.7S991.3 580.7 990.8 579.2L977.2 533.7 983.7 521.7 1012.5 521 1019.3 532.4 1008.1 578.2C1007.8 579.9 1009.1 581.3 1010.6 582.1 1012.3 582.4 1013.7 581.1 1014.5 579.6L1023.9 539.5 1034.5 556.9 1030.2 574.5C1029.8 576.3 1031.1 577.6 1032.6 578.4 1033.8 578.5 1035.7 577.5 1036 575.7L1038.9 564.4 1046.9 577.1C1047.6 578.1 1049.4 578.4 1050.9 578 1052.2 576.8 1052.5 575 1051.8 573.9L1043.8 561.2 1055.9 563.9C1057.2 563.9 1059 563 1059.1 561.7 1059.9 560.2 1059.1 559.2 1057.6 558.3 1057.6 558.3 1057.1 558.1 1057.1 558.1L1039.5 553.7 1028.8 536.3 1069 545.7C1070.8 546 1072.3 545.6 1072.6 543.8 1072.9 542 1072.2 541 1071.2 540.4 1070.7 540.2 1070.7 540.2 1070.7 540.2L1024.2 529.3 1017.4 517.9 1031.2 492.4 1044.2 492.3 1079.1 524.7C1079.8 525.7 1081.8 525.5 1082.9 524.8 1084.2 523.5 1084 521.5 1082.8 520.2L1052.9 491.8 1073.2 491.1 1086.6 503.5C1087.8 504.8 1089.6 505.1 1090.4 503.6 1091.7 502.4 1091.5 500.4 1090.8 499.3L1081.6 491.1 1096.7 490.8C1098.2 490.4 1099.5 489.1 1099.8 487.4 1099.6 486.6 1098.9 485.6 1097.9 485 1097.4 484.8 1097.4 484.8 1096.6 485L1081.6 485.3 1089.7 476.1C1091.1 474.9 1090.6 473.3 1089.9 472.3 1089.4 472 1089.4 472 1088.9 471.8 1087.9 471.2 1086.6 471.2 1085.5 471.9L1073.2 485.3 1052.8 485.9 1081.2 456C1082 454.5 1082.3 452.7 1080.8 451.9 1080.6 451.1 1080.6 451.1 1080.1 450.9 1079.1 450.3 1077.6 450.8 1076.5 451.5L1044.1 486.4 1031.1 486.5 1015.9 462.1 1022.1 450.6 1067.6 437C1069.1 436.5 1070.2 434.5 1069.7 433S1067.3 430.4 1065.7 430.8L1026.1 443.1 1035.9 425 1053.1 419.5C1054.6 419 1055.4 417.5 1055 416 1054.5 414.4 1053 413.6 1051.5 414.1L1039.9 417.5 1047.2 404C1047.7 403 1047.6 401 1046.1 400.2 1044.6 399.4 1042.2 400 1041.7 401L1034.4 414.6 1030.9 403C1030.7 402.2 1030.5 401.5 1030 401.2 1029 400.6 1028.2 400.9 1027.4 401.1 1025.9 401.6 1025.1 403.1 1025.5 404.6L1030.3 422.1 1020.6 440.1 1009.1 400.3C1008.9 399.5 1008.4 399.2 1007.4 398.7 1006.9 398.4 1006.4 398.2 1005.6 398.4 1004.1 398.9 1003 400.9 1003.5 402.4L1016.6 447.6 1010.4 459.1 982.1 460 974.5 448.8 985.9 402.6C985.9 401.3 985.5 399.8 984.5 399.3 984 399 984 399 983.7 399.5 982.2 398.7 980.4 399.6 980.1 401.4L970.7 441.6 959.5 423.9 963.9 406.2C963.9 405 963.2 403.9 962.2 403.4 962.2 403.4 961.7 403.1 961.7 403.1 960.2 402.3 958.4 403.3 958.1 405L955.4 417.2 947.4 404.5C947.2 403.7 946.7 403.4 946.2 403.1 945.2 402.6 943.9 402.6 943.6 403.1 941.8 404 941.5 405.8 942 407.3L950 420.1 938.6 417.2C936.8 416.9 935 417.8 934.7 419.6 934.7 420.9 935.6 422.7 936.9 422.7L954.6 427.1 965.2 444.5 925.1 435.1C923.3 434.8 922 436 921.2 437.5 921.1 438.8 922.1 440.6 923.9 440.9ZM970 488.4L980.5 468.9 982.1 465.9 985.5 465.7 1007.1 465.1 1010.9 465.2 1012.6 468.1 1024 486.5 1025.7 489.4 1024.1 492.4 1013.5 511.9 1011.9 514.9 1008.6 515.1 986.9 515.7 983.6 515.8 981.4 512.7 970.1 494.3 968.4 491.4 970 488.4Z" fill="rgba(255, 255, 255, 0.33)"></path><path d="M998.8 94.7L1012.2 76.4 1020.4 75.3 1015.9 81.5C1015.2 82 1015.5 82.9 1016 83.5 1016.6 83.8 1017.6 83.7 1017.9 83.1L1024.3 74.8 1032.4 73.4 1029.3 81 1019.5 85.1C1019.5 85.1 1019.3 85.3 1019.3 85.3 1018.8 85.7 1018.7 86.5 1018.9 87.1 1019.4 87.8 1020 88 1020.8 87.7L1027.9 84.7 1024.8 92.2 1004.1 101.4C1004.1 101.4 1003.7 101.4 1003.7 101.4 1003.3 101.7 1003.2 102.5 1003.3 103.1 1003.6 104 1004.6 104.3 1005.2 103.8L1023.3 95.9 1019.9 105.2 1011.8 108.8C1011.8 108.8 1011.8 108.8 1011.5 108.9 1011.1 109.3 1010.8 109.9 1011 110.5 1011.5 111.2 1012.2 111.6 1013.1 111.3L1018.4 108.9 1015.8 115.7C1015.3 116.4 1015.9 117.1 1016.5 117.4 1017.2 117.9 1018.1 117.6 1018.4 116.6L1021.1 110 1023.2 115.3C1023.7 116 1024.5 116.5 1025.1 115.9 1026 115.6 1026.2 115 1025.9 114.2L1022.4 106.1 1026 97 1034.1 115.3C1034.2 116 1035.2 116.3 1036 116 1036.5 115.6 1037 114.8 1036.7 114L1027.5 93.3 1030.6 85.8 1033.6 92.8C1033.9 93.7 1034.7 93.7 1035.6 93.4 1036.2 93.3 1036.5 92.3 1036.4 91.7L1032 82.1 1034.9 74.3 1040 80.8 1038.9 91.2C1038.8 92 1039.3 92.6 1040.1 92.7 1040.7 93 1041.6 92.3 1041.7 91.5L1042.5 83.9 1047.7 90.3 1044.9 112.9C1044.8 113.7 1045.3 114.4 1046.1 114.5 1046.9 114.6 1047.6 114 1047.7 113.2L1050.1 93.5 1056.2 101 1055.2 109.8C1055.1 110.6 1055.6 111.3 1056.4 111.4 1057.2 111.5 1057.9 110.9 1058 110.1L1058.8 104.4 1063.2 109.9C1063.8 110.6 1064.6 110.7 1065.2 110.2 1065.9 109.6 1066 108.8 1065.5 108.2L1061 102.6 1066.6 103.2C1067.4 103.3 1068.1 102.8 1068.2 102S1067.8 100.5 1067 100.4L1058.6 99.5 1052.4 91.7 1071.9 93.9C1072.7 94 1073.4 93.5 1073.5 92.7 1073.6 91.9 1073.1 91.2 1072.3 91.1L1049.9 88.6 1044.7 82.1 1052.3 83C1053.1 83.1 1053.8 82.5 1053.9 81.7 1054 80.9 1053.4 80.3 1052.6 80.2L1042.3 79 1037.3 72.8 1045.1 71.6 1053.7 77.9C1054.3 78.1 1055.3 78.1 1055.6 77.5 1056.1 76.7 1055.9 76.1 1055.4 75.4L1049.2 70.9 1057.1 69.8 1075.4 83.2C1076.1 83.7 1076.8 83.5 1077.4 83 1077.9 82.2 1077.6 81.4 1077.3 80.9L1061.2 69 1071.1 67.7 1078 72.7C1078.5 73.4 1079.4 73.1 1080 72.6 1080.3 72 1080.2 71 1079.5 70.5L1075 67.1 1082 65.9C1082.8 66 1083.3 65.2 1083.2 64.2 1083.1 63.6 1082.3 63.1 1081.7 63.2L1074.5 64.2 1078.1 59.6C1078.5 58.8 1078.2 58 1077.7 57.7 1077.1 57 1076.5 57.2 1076.1 57.5 1075.8 57.7 1075.8 57.7 1075.6 57.9L1070.6 64.8 1060.7 66.1 1072.4 50.2C1073.1 49.7 1072.8 48.9 1072.3 48.2 1071.7 47.9 1071.1 48.1 1070.6 48.4 1070.4 48.6 1070.4 48.6 1070.4 48.6L1056.6 66.9 1048.8 68 1053.3 61.8C1053.8 61.1 1053.7 60.5 1053.1 59.8 1052.6 59.5 1051.8 59.4 1051.3 59.8 1051.1 60 1051.1 60 1050.9 60.1L1044.6 68.8 1036.8 69.9 1039.7 62.5 1049.3 58.1C1050.1 57.8 1050.4 56.9 1050.3 56.2 1049.8 55.6 1049 55.1 1048.3 55.6L1041.3 58.7 1044 51.1 1065.1 41.9C1065.7 41.8 1066 40.8 1065.9 40.2 1065.4 39.5 1064.6 39 1063.8 39.3L1045.7 47.2 1049.3 38.1 1057.2 34.8C1058 34.4 1058.3 33.5 1057.8 32.8 1057.7 32.2 1056.9 31.7 1056.1 32L1050.7 34.4 1053.3 27.6C1053.6 27.1 1053.3 26.2 1052.5 25.7 1052.1 25.7 1051.5 25.8 1051.1 26.2 1051.1 26.2 1050.9 26.3 1050.6 26.5L1048 33.3 1045.6 28C1045.5 27.4 1044.5 27 1043.9 27.2 1043.7 27.3 1043.7 27.3 1043.7 27.3 1043 27.9 1042.9 28.7 1043.2 29.1L1046.6 37 1043.1 46.3 1035.1 28C1034.5 27.3 1034 27.1 1033.1 27.4 1033.1 27.4 1032.9 27.5 1032.9 27.5 1032.5 27.9 1032.2 28.5 1032.5 29.3L1041.5 50.2 1038.6 57.5 1035.6 50.5C1035 49.9 1034.3 49.4 1033.6 49.9 1033.4 49.7 1033.2 49.8 1033.2 49.8 1032.8 50.2 1032.7 51 1032.8 51.6L1037.2 61.2 1034.1 68.8 1029.1 62.5 1030.3 52.2C1030.4 51.4 1029.7 50.5 1028.9 50.4 1028.3 50.5 1027.6 51 1027.3 51.6L1026.7 59.4 1021.5 53 1024.1 30.6C1024.1 29.8 1023.6 29.1 1022.8 29 1022 28.9 1021.3 29.5 1021.3 30.3L1019 49.9 1012.8 42.1 1013.8 33.7C1013.9 32.9 1013.3 32.2 1012.5 32.1S1011.1 32.6 1011 33.4L1010.4 39 1005.9 33.4C1005.4 32.7 1004.6 32.6 1003.9 33.2 1003.3 33.7 1003.2 34.5 1003.7 35.2L1008.1 40.7 1002.3 40.3C1001.9 40.2 1001.5 40.2 1001.3 40.4 1001.1 40.5 1000.8 41.1 1000.8 41.5 1000.7 42.3 1001.2 43 1002 43.1L1010.6 43.8 1016.8 51.6 997 49.6C996.6 49.6 996.2 49.5 996 49.7 995.8 49.9 995.5 50.4 995.4 50.8 995.4 51.6 995.9 52.3 996.7 52.4L1019.3 54.8 1024.4 61.2 1016.7 60.1C1016.3 60.1 1015.8 60.4 1015.6 60.6 1015.4 60.8 1015.2 61 1015.1 61.4 1015 62.2 1015.7 63.1 1016.3 62.9L1026.9 64.3 1031.9 70.5 1023.8 71.9 1015.5 65.4C1014.9 65.2 1014.1 65.1 1013.6 65.4 1013.4 65.6 1013.4 65.6 1013.6 65.8 1012.9 66.4 1013 67.4 1013.8 67.9L1019.9 72.4 1011.9 73.7 993.6 59.9C993 59.7 992.4 59.8 992 60.2 991.7 60.3 991.7 60.3 991.7 60.3 991.3 61.1 991.2 61.9 991.9 62.4L1008 74.3 998.1 75.6 991.2 70.6C990.4 70.1 989.8 70.2 989.4 70.6 989.4 70.6 989.1 70.8 989.1 70.8 988.7 71.5 989 72.4 989.3 72.8L994.2 76.2 987 77.2C986.8 77.4 986.6 77.6 986.3 77.7 986.1 77.9 985.8 78.5 985.8 78.9 986.1 79.7 986.6 80.4 987.5 80.1L994.7 79.1 991.1 83.7C990.6 84.5 990.9 85.3 991.3 85.8 992 86.3 992.9 86 993.6 85.4L998.6 78.5 1008.3 77 996.6 92.9C996.1 93.6 996.2 94.6 996.7 94.9 997.5 95.4 998.3 95.5 998.8 94.7Z" fill="rgba(255, 255, 255, 0.33)"></path><path d="M697.7 366.2L682.7 335.7 686.9 324 692 334.3C692.2 335.6 693.6 335.8 694.8 335.5 695.6 334.9 696.2 333.5 695.6 332.8L688.9 318.4 692.7 306.8 700.6 316.1 699.4 332C699.4 332 699.4 332.5 699.4 332.5 699.6 333.3 700.6 334 701.5 334.2 702.8 334 703.5 333.4 703.7 332.1L704.5 320.6 712.4 329.9 710.3 363.8C710.3 363.8 710 364.3 710 364.3 710.1 365.1 711.1 365.8 712 366.1 713.4 366.3 714.5 365.2 714.2 363.9L716.3 334.4 726.3 345.5 725.4 358.7C725.4 358.7 725.4 358.7 725.5 359.1 725.6 360 726.2 360.7 727.1 361 728.4 360.7 729.6 360.1 729.7 358.7L730.2 349.9 737.4 358.1C738.1 359.3 739.4 359 740.1 358.5 741.3 357.8 741.5 356.5 740.4 355.4L733.6 347.1 742 348.1C743.3 347.8 744.5 347.2 744.2 345.9 744.4 344.6 743.8 343.8 742.5 343.7L729.3 342.7 719.7 331.6 749.6 333.6C750.6 333.8 751.6 332.7 751.8 331.4 751.7 330.6 751 329.4 749.7 329.2L715.8 327.1 707.9 317.8 719.3 318.6C720.7 318.8 721.4 317.8 721.5 316.4 721.8 315.5 720.7 314.4 719.8 314.2L704 313.3 695.7 304.1 707.8 301.7 720.8 310.5C721.8 311.2 723.1 310.9 723.7 309.9 724.5 309.3 724.2 307.7 723.2 307L713.7 300.6 725.8 298.2 753.9 317.5C754.9 318.2 756.2 318 756.8 317 757.5 316 757.3 314.7 756.3 314L731.7 297.1 745.9 294.3 756.9 301.7C757.9 302.4 759.2 302.2 759.9 301.2 760.5 300.2 760.3 298.9 759.3 298.2L752.2 293.1 762.7 291.1C763.9 290.8 764.6 289.8 764.4 288.5 764.1 287.3 763.1 286.6 761.9 286.9L751.4 288.9 756.1 281.9C756.8 280.9 756.5 279.6 755.5 279S753.3 278.5 752.6 279.5L745.5 290 730.9 292.9 747.4 268.4C748.1 267.4 747.8 266.1 746.8 265.4 745.8 264.8 744.6 265 743.9 266L725 294 712.9 296.4 719.3 286.9C719.9 285.9 719.7 284.6 718.7 283.9 717.7 283.3 716.4 283.5 715.8 284.5L707 297.5 695.3 299.8 699.2 288.6 713.4 281.5C714.2 280.9 714.8 279.5 714.2 278.7 713.5 277.6 712.6 277.3 711.4 277.5L701.1 282.6 705 271.4 735.5 256.3C736.7 255.7 736.9 254.8 736.7 253.5 736 252.3 734.7 252.2 733.9 252.3L706.8 265.4 711.9 251.4 723.4 245.6C724.7 245.4 724.9 244.1 724.6 242.8 724 242.1 722.6 241.5 721.4 242.1L713.9 245.8 717.1 235.6C717.8 234.6 717.1 233.4 715.7 232.8 714.8 232.5 713.6 233.2 713.4 234.1L709.7 244.4 706 236.4C705.3 235.3 704 235.1 703.2 235.7 702 235.9 701.7 236.8 701.9 237.7 702 238.1 702 238.1 702.1 238.5L707.8 250 702.7 264 689.7 237.4C689.4 236.2 688.1 236 686.8 236.2 686.1 236.8 685.8 237.7 686 238.6 686.1 239 686.1 239 686.1 239L700.8 270 696.9 281.2 691.8 270.9C691.2 269.7 690.2 269.5 689 269.7 688.2 270.3 687.6 271.3 687.7 272.1 687.8 272.6 687.8 272.6 687.9 273L695 287.2 691.1 298.4 683.3 289.5 684.1 273.7C684.3 272.4 683.2 271.3 682.3 271 681 271.3 679.9 271.9 680.1 273.2L679.3 284.6 671 275.8 673.5 241.4C673.8 240.5 672.7 239.4 671.8 239.2 670.5 239.4 669.3 240.1 669.1 241.4L667.1 270.9 657.5 259.8 658.5 247C658.7 245.6 657.6 244.5 656.3 244.8 655.4 244.5 654.2 245.2 654.1 246.5L653.6 255.3 646.4 247.1C645.8 246.4 644.4 246.2 643.3 246.9 642.9 247.4 642.7 248.3 642.8 249.1 642.8 249.1 642.9 249.5 643 250L650.2 258.1 641.4 257.7C640.5 257.4 639.4 258.5 639.2 259.4 639.3 259.8 639.3 259.8 639.3 259.8 639.5 261.1 640.5 261.8 641.3 261.6L654.1 262.6 664.1 273.7 634.2 271.7C632.9 271.9 632.2 272.5 632 273.8 632 273.8 632.1 274.3 632.1 274.3 632.2 275.1 632.8 275.8 634.1 276L668.1 278.6 675.9 287.5 664.5 286.7C663.2 286.9 662 287.6 662.3 288.8 661.9 288.9 661.9 289.3 661.9 289.3 662.1 290.2 663.1 290.8 664 291.1L679.8 291.9 687.7 301.3 676 303.5 663 294.8C662 294.1 660.3 294.4 659.6 295.4 659.4 296.3 659.6 297.6 660.2 298.3L670.1 304.7 658 307 630 288.1C629 287.5 627.7 287.7 627 288.7 626.4 289.7 626.6 291 627.6 291.6L652.1 308.2 637.5 311 627 303.9C626 303.3 624.7 303.5 624 304.5S623.6 306.8 624.6 307.4L631.6 312.2 621.1 314.2C619.9 314.4 619.2 315.4 619.4 316.7 619.7 317.9 620.7 318.6 621.9 318.4L632.4 316.3 627.8 323.8C627.4 324.3 627.1 324.8 627.2 325.2 627.3 325.6 627.8 326.4 628.3 326.7 629.3 327.4 630.6 327.1 631.3 326.1L638.3 315.2 652.9 312.4 636.5 337.3C636.1 337.8 635.8 338.3 635.9 338.7 636 339.1 636.6 339.9 637.1 340.2 638.1 340.9 639.3 340.7 640 339.7L658.8 311.2 670.9 308.9 664.1 318.4C663.8 318.9 663.9 319.8 664 320.2 664.1 320.6 664.2 321 664.7 321.4 665.7 322.1 667.4 321.7 667.6 320.8L676.8 307.7 688.5 305.4 684.7 317.1 670.4 323.8C669.6 324.3 668.9 325.3 669.1 326.2 669.2 326.6 669.2 326.6 669.6 326.5 669.8 327.8 671.3 328.4 672.4 327.7L682.8 322.7 678.9 334.3 647.9 349C647.1 349.6 646.9 350.5 647 351.3 647.1 351.7 647.1 351.7 647.1 351.7 647.8 352.9 648.8 353.6 650 352.9L677 339.9 671.9 353.9 660.4 359.6C659.2 360.3 658.9 361.2 659.1 362 659.1 362 659.2 362.4 659.2 362.4 659.8 363.6 661.2 363.8 662 363.6L669.9 359.5 666.3 369.8C666.3 370.2 666.4 370.6 666.5 371 666.6 371.4 667.2 372.2 667.7 372.5 669 372.7 670.3 372.5 670.4 371.1L674.1 360.8 677.8 368.8C678.5 370 679.8 370.2 680.6 370 681.8 369.3 682 368 681.8 366.7L676 355.2 680.7 341.3 693.7 367.9C694.4 369.1 695.8 369.7 696.6 369.1 697.7 368.4 698.4 367.4 697.7 366.2Z" fill="rgba(255, 255, 255, 0.33)"></path><path d="M1049.9 687.8L1026.3 687.7 1011.6 672.6 1032 667.4 1052.2 679.6C1052.2 679.6 1052.5 679.7 1052.5 679.7 1053 679.8 1053.7 679.5 1054.1 679 1054.6 678.2 1054.3 677.3 1053.5 677L1035.8 666.4 1045.7 663.9 1053.5 668.5C1053.5 668.5 1053.8 668.6 1053.8 668.6 1054.4 668.7 1055.1 668.3 1055.5 667.8 1056 667.1 1055.7 666.1 1054.9 665.9L1049.6 662.6 1056.9 660.8C1057.5 660.7 1058.1 659.7 1058 659.1 1057.9 658.2 1056.8 657.9 1056.2 658L1048.9 659.8 1052.2 654.5C1052.7 653.7 1052.3 652.8 1051.5 652.5 1050.8 652 1049.8 652.4 1049.6 653.2L1045 661 1035.2 663.3 1045.8 645.6C1046.3 644.9 1046 643.9 1045.2 643.7 1044.4 643.2 1043.4 643.5 1043.2 644.3L1031 664.5 1010.6 669.7 1016.4 649.2 1037.1 637.6C1037.8 637.2 1038.1 636.3 1037.7 635.6 1037.3 634.9 1036.5 634.7 1035.8 635.1L1017.5 645.3 1020.3 635.5 1028 631.1C1028.7 630.7 1028.9 629.9 1028.5 629.2 1028.1 628.5 1027.3 628.3 1026.6 628.7L1021.4 631.6 1023.5 624C1024 623.2 1023.4 622.4 1022.5 622.2 1021.7 622 1021 622.4 1020.8 623.2L1018.8 630.3 1015.8 625.1C1015.4 624.4 1014.6 624.1 1013.9 624.5S1013 625.7 1013.4 626.4L1017.7 634.2 1014.9 644 1004.7 625.8C1004.3 625.1 1003.5 624.8 1002.8 625.2 1002.1 625.6 1001.8 626.4 1002.2 627.1L1013.8 647.8 1008.1 668.1 993.5 653 993.7 630.1C993.7 629.2 992.9 628.7 992.1 628.4 991.2 628.5 990.7 629.2 990.5 630L990.3 650.7 983.2 643.4 983.4 634.2C983.4 633.4 982.6 632.8 981.8 632.6 980.9 632.7 980.4 633.4 980.2 633.9L980.3 640.2 975 634.8C974.5 634.4 973.4 634.1 972.9 634.8 972.4 635.6 972.1 636.4 972.9 636.9L978.2 642.2 972 642.3C971.1 642.3 970.6 643.1 970.4 643.6 970.5 644.2 970.9 644.9 971.5 645.1 971.5 645.1 971.8 645.2 971.8 645.2L980.9 645.4 988 652.7 967.3 652.5C966.4 652.5 965.9 653.3 965.8 653.8 965.9 654.4 966.3 655.1 966.8 655.3 966.8 655.3 967.1 655.4 967.1 655.4L990.7 655.5 1005.4 670.6 985 675.8 964.8 663.6C964 663.1 963.1 663.4 962.8 664.2 962.3 665 962.7 665.9 963.5 666.2L981.2 676.8 971.3 679.3 963.4 674.7C962.7 674.2 961.7 674.5 961.5 675.4 961 676.1 961.3 677.1 962.1 677.3L967.4 680.6 960.1 682.4C959.5 682.5 958.9 683.5 959 684.1 959.1 684.7 959.6 685.2 960.2 685.3 960.4 685.4 960.7 685.5 961 685.3L968.3 683.5 965.1 688.8C964.6 689.5 964.9 690.5 965.7 690.7 965.7 690.7 966 690.8 966 690.8 966.5 691 967.2 690.6 967.7 690.1L972.3 682.2 982.1 679.7 971.5 697.4C971 698.1 971.3 699.1 972.2 699.3 972.2 699.3 972.4 699.4 972.4 699.4 973 699.6 973.7 699.2 974.1 698.7L986.3 678.5 1006.7 673.3 1001 693.6 980.3 705.2C979.6 705.6 979.3 706.4 979.7 707.1 980.1 707.8 980.9 708 981.6 707.6L999.8 697.7 997 707.5 989.3 711.9C988.6 712.3 988.4 713.1 988.8 713.8S990 714.7 990.7 714.3L996 711.4 994 718.5C993.7 719.3 994.1 720 994.9 720.2 995.8 720.5 996.5 720.1 996.7 719.3L998.7 712.1 1001.7 717.4C1001.9 717.8 1002 718.1 1002.6 718.3S1003.5 718.2 1003.8 718C1004.5 717.6 1004.8 716.8 1004.4 716.1L1000.1 708.4 1002.8 698.5 1013.1 716.8C1013.3 717.1 1013.5 717.5 1014 717.6 1014.3 717.7 1014.9 717.6 1015.3 717.4 1016 717 1016.2 716.2 1015.8 715.5L1004.2 694.8 1009.9 674.5 1024.6 689.6 1024.4 713.2C1024.5 713.8 1024.9 714.5 1025.5 714.6 1025.5 714.6 1025.8 714.7 1025.8 714.7 1026.6 714.7 1027.2 713.9 1027.3 713.4L1027.5 692.8 1034.6 700.1 1034.4 709.2C1034.5 709.8 1034.9 710.5 1035.5 710.7 1035.5 710.7 1035.7 710.7 1035.7 710.7 1036.6 710.7 1037.1 710 1037.3 709.4L1037.3 703.2 1042.6 708.5C1042.8 708.6 1043 709 1043.3 709 1043.9 709.2 1044.5 709.1 1044.9 708.6 1045.4 707.9 1045.6 707 1044.9 706.5L1039.6 701.2 1045.8 701.2C1046.7 701.1 1047.2 700.4 1047.4 699.8 1047.3 698.9 1046.6 698.4 1046 698.3L1036.9 698.1 1029.8 690.8 1050.5 691C1051.4 690.9 1051.9 690.2 1052 689.6 1051.4 688.6 1050.8 687.8 1049.9 687.8Z" fill="rgba(255, 255, 255, 0.33)"></path><path d="M535.5 594.3L537.1 639.6 525.5 651.5 525 636.2C525.4 634.5 523.9 633.6 522.2 633.2 521 633.5 519.5 634.9 519.8 636.1L520.1 657.3 509.1 669.3 504.6 653.6 514.8 635C514.8 635 514.9 634.4 514.9 634.4 515.2 633.3 514.3 631.9 513.4 631.1 511.7 630.7 510.5 631 509.5 632.6L502.3 646.1 497.8 630.4 518.9 590.3C518.9 590.3 519.5 589.9 519.5 589.9 519.8 588.8 519 587.4 518 586.6 516.5 585.7 514.5 586.4 514.1 588.1L495.5 622.8 489.4 603.9 497.7 588.3C497.7 588.3 497.7 588.3 497.9 587.7 498.1 586.6 497.8 585.4 496.8 584.6 495.2 584.2 493.4 584.4 492.4 585.9L487.1 596.3 482.7 582.4C482.6 580.6 480.9 580.3 479.7 580.5 477.9 580.7 476.9 582.2 477.7 584.2L481.4 597.9 471.7 592.1C470 591.7 468.2 591.9 467.9 593.5 466.9 595.1 467.2 596.3 468.7 597.3L484.3 605.6 489.8 624.4 454.5 605.6C453.5 604.8 451.6 605.5 450.7 607 450.4 608.1 450.6 609.9 452.1 610.9L492.1 632 496.6 647.7 483.1 640.4C481.6 639.4 480.2 640.3 479.3 641.8 478.5 642.8 479.2 644.7 480.2 645.5L498.9 655.2 504 671 487.9 667.2 476.9 649.4C476.1 648.1 474.4 647.7 473 648.5 471.8 648.8 471.3 651 472.1 652.4L480.2 665.4 464.1 661.6 440.5 622.8C439.7 621.4 438 621 436.7 621.9 435.3 622.7 434.9 624.4 435.7 625.7L456.4 659.8 437.5 655.4 428.2 640.3C427.4 639 425.7 638.6 424.3 639.4 423 640.3 422.6 641.9 423.4 643.3L429.2 653.4 415.4 650.2C413.7 649.8 412.4 650.6 412 652.3 411.6 654 412.4 655.3 414.1 655.7L427.9 659 418.4 664.9C417 665.7 416.6 667.4 417.4 668.8S420 670.5 421.3 669.7L435.7 660.8 455.1 665.3 421.6 686.1C420.2 686.9 419.8 688.6 420.6 690 421.5 691.3 423.1 691.7 424.5 690.9L462.8 667.2 478.9 670.9 465.9 679C464.5 679.8 464.1 681.5 465 682.9 465.8 684.2 467.5 684.6 468.8 683.8L486.6 672.8 502.1 676.4 491.3 687.9 470 688.7C468.8 689 467.3 690.4 467.6 691.7 467.7 693.5 468.7 694.3 470.4 694.7L485.7 694.2 474.8 705.6 429.4 707.2C427.6 707.4 426.8 708.4 426.4 710 426.6 711.8 428.1 712.8 429.2 713L469.2 711.9 455.4 726.2 438.3 726.8C436.6 726.5 435.7 728 435.3 729.7 435.6 730.9 437 732.4 438.8 732.2L449.9 731.9 440.4 742.6C439.1 743.4 439.2 745.2 440.6 746.7 441.6 747.5 443.4 747.3 444.2 746.4L454.3 735.9 454.4 747.6C454.6 749.4 456.1 750.3 457.4 750 459 750.4 459.8 749.5 460.1 748.3 460.2 747.8 460.2 747.8 460.4 747.2L459.7 730.1 473.6 715.9 474.8 755.3C474.4 757 476 757.9 477.6 758.3 478.9 758 479.7 757 479.9 755.9 480.1 755.4 480.1 755.4 480.1 755.4L479.1 709.6 490 698.1 490.5 713.4C490.7 715.2 491.7 716 493.3 716.4 494.6 716.1 495.9 715.3 496.2 714.2 496.3 713.6 496.3 713.6 496.4 713.1L495.6 691.8 506.5 680.4 511.1 695.5 501.4 714.2C500.5 715.8 501.2 717.7 502.2 718.5 503.8 718.9 505.6 718.7 506 717.1L513.3 703.6 518.5 718.8 496.7 759.3C495.9 760.3 496.6 762.2 497.6 763 499.2 763.4 501 763.2 502 761.7L520.6 726.9 526.2 745.8 518 760.8C517 762.3 517.7 764.2 519.4 764.6 520.4 765.4 522.2 765.3 523.1 763.7L528.5 753.3 532.8 767.2C533.1 768.4 534.6 769.4 536.4 769.2 537.1 768.8 537.9 767.8 538.2 766.7 538.2 766.7 538.3 766.1 538.4 765.6L534.1 751.7 544.5 757.1C545.5 757.9 547.4 757.2 548.2 756.2 548.4 755.7 548.4 755.7 548.4 755.7 548.8 754 547.9 752.6 546.8 752.4L531.8 744.2 525.7 725.2 561 744C562.7 744.4 563.9 744.1 564.9 742.6 564.9 742.6 565 742 565 742 565.3 740.9 565 739.7 563.5 738.7L523.5 717.1 518.9 702 532.4 709.2C534.1 709.6 535.9 709.5 536.2 707.8 536.8 707.9 536.9 707.4 536.9 707.4 537.2 706.3 536.3 704.9 535.4 704.1L516.6 694.4 512.1 678.8 527.6 682.4 538.6 700.2C539.5 701.6 541.7 702.1 543.1 701.2 543.9 700.2 544.3 698.6 544 697.4L535.4 684.2 551.4 688 575.1 726.3C576 727.7 577.7 728.1 579 727.2 580.4 726.4 580.8 724.7 579.9 723.3L559.2 689.8 578.6 694.4 587.5 708.7C588.3 710.1 590 710.5 591.3 709.7S593.1 707.1 592.2 705.8L586.3 696.2 600.2 699.5C601.8 699.8 603.2 699 603.6 697.3 604 695.7 603.1 694.3 601.5 693.9L587.6 690.7 597.3 684.2C598 683.8 598.7 683.3 598.8 682.8 599 682.2 598.7 681 598.2 680.3 597.4 678.9 595.7 678.5 594.4 679.4L579.9 688.8 560.5 684.3 594.1 663C594.8 662.6 595.5 662.1 595.6 661.6 595.8 661 595.5 659.8 595 659.1 594.2 657.7 592.5 657.3 591.2 658.2L552.7 682.5 536.7 678.7 550.2 670.8C550.9 670.3 551.2 669.2 551.3 668.7 551.4 668.1 551.6 667.6 551.1 666.9 550.3 665.5 548.1 665 547.3 666L528.9 676.9 513.4 673.2 524.4 661.2 545.5 660.9C546.8 660.6 548.1 659.8 548.4 658.7 548.5 658.1 548.5 658.1 548 658 548.4 656.3 547 654.8 545.2 655L529.9 655.5 540.9 643.4 586.7 642.5C587.9 642.2 588.7 641.2 589 640.1 589.1 639.6 589.1 639.6 589.1 639.6 588.9 637.8 588.1 636.4 586.3 636.6L546.3 637.7 560.2 623.4 577.3 622.8C579.1 622.6 579.9 621.6 580.1 620.5 580.1 620.5 580.3 620 580.3 620 580.1 618.2 578.6 617.2 577.5 617L565.6 617.7 575.7 607.2C575.8 606.7 575.9 606.1 576.1 605.5 576.2 605 575.9 603.8 575.5 603.1 574 602.1 572.3 601.7 571.3 603.3L561.3 613.8 561.1 602C561 600.2 559.4 599.3 558.3 599 556.5 599.2 555.6 600.7 555.2 602.4L555.8 619.5 542.5 633.9 541.3 594.4C541.1 592.7 539.7 591.2 538.5 591.5 536.7 591.6 535.3 592.5 535.5 594.3Z" fill="rgba(255, 255, 255, 0.33)"></path><path d="M1223.1 649.2L1220.4 620.9 1227.1 613.1 1228 622.6C1227.8 623.6 1228.8 624.2 1229.9 624.4 1230.6 624.1 1231.5 623.2 1231.3 622.4L1230.3 609.3 1236.7 601.4 1240.1 611 1234.4 623C1234.4 623 1234.4 623.3 1234.4 623.3 1234.3 624 1234.8 624.9 1235.5 625.3 1236.5 625.5 1237.3 625.3 1237.8 624.3L1241.9 615.6 1245.3 625.2 1233.6 651C1233.6 651 1233.2 651.3 1233.2 651.3 1233 652 1233.6 652.8 1234.3 653.3 1235.3 653.8 1236.4 653.3 1236.6 652.2L1247 629.8 1251.5 641.4 1246.8 651.5C1246.8 651.5 1246.8 651.5 1246.8 651.8 1246.7 652.5 1246.9 653.3 1247.5 653.7 1248.6 653.9 1249.7 653.8 1250.2 652.8L1253.2 646.1 1256.4 654.6C1256.6 655.7 1257.6 655.9 1258.4 655.6 1259.5 655.5 1260 654.5 1259.5 653.3L1256.6 644.9 1262.9 648.1C1264 648.3 1265.1 648.1 1265.3 647.1 1265.8 646.1 1265.6 645.3 1264.6 644.8L1254.6 640.2 1250.4 628.6 1273.2 639.1C1273.8 639.5 1275 639 1275.5 638 1275.6 637.3 1275.5 636.2 1274.5 635.7L1248.7 624 1245.3 614.4 1254 618.4C1255 619 1255.8 618.4 1256.3 617.4 1256.8 616.7 1256.3 615.6 1255.7 615.1L1243.6 609.8 1239.8 600.1 1250 601.9 1257.5 612.5C1258.1 613.4 1259.2 613.5 1260 613 1260.8 612.7 1261 611.3 1260.4 610.5L1254.9 602.7 1265.1 604.5 1281.2 627.8C1281.8 628.6 1282.9 628.8 1283.7 628.2 1284.5 627.7 1284.7 626.6 1284.1 625.8L1270 605.3 1281.9 607.4 1288.3 616.4C1288.8 617.2 1289.9 617.4 1290.7 616.8 1291.5 616.3 1291.7 615.2 1291.1 614.4L1287.1 608.3 1295.9 609.8C1297 610 1297.8 609.4 1298 608.3 1298.1 607.3 1297.6 606.5 1296.5 606.3L1287.8 604.8 1293.5 600.7C1294.3 600.1 1294.5 599.1 1293.9 598.3S1292.3 597.3 1291.5 597.8L1282.8 603.9 1270.6 601.8 1290.7 587.6C1291.5 587 1291.7 586 1291.1 585.2 1290.6 584.3 1289.5 584.2 1288.7 584.7L1265.7 601 1255.5 599.2 1263.3 593.7C1264.2 593.1 1264.3 592.1 1263.8 591.2 1263.2 590.4 1262.1 590.2 1261.3 590.8L1250.6 598.4 1240.8 596.7 1247.2 589.1 1260.4 587.8C1261.1 587.5 1262 586.6 1261.8 585.9 1261.6 584.7 1261 584.3 1259.9 584.1L1250.4 585 1256.8 577.4 1285 574.7C1286.1 574.5 1286.6 573.9 1286.8 572.9 1286.6 571.7 1285.6 571.2 1284.9 571.1L1260 573.3 1268.1 563.9 1278.8 562.8C1279.8 563 1280.4 562 1280.5 560.9 1280.3 560.2 1279.4 559.3 1278.3 559.5L1271.3 560.1 1276.8 553.1C1277.7 552.5 1277.5 551.4 1276.6 550.5 1275.9 550 1274.8 550.2 1274.3 550.9L1268.5 557.8 1267.9 550.5C1267.7 549.4 1266.8 548.8 1266 549.1 1264.9 548.9 1264.5 549.5 1264.4 550.2 1264.3 550.6 1264.3 550.6 1264.2 550.9L1265.3 561.6 1257.2 571 1254.9 546.4C1255.1 545.4 1254.1 544.8 1253 544.6 1252.3 544.9 1251.8 545.5 1251.7 546.2 1251.6 546.6 1251.6 546.6 1251.6 546.6L1253.9 575.1 1247.6 582.7 1246.7 573.1C1246.5 572 1245.9 571.6 1244.8 571.4 1244.1 571.6 1243.2 572.2 1243.1 572.9 1243.1 573.2 1243.1 573.2 1243 573.6L1244.3 586.8 1238 594.4 1234.5 585.1 1239.8 573C1240.4 572 1239.9 570.9 1239.2 570.4 1238.2 570.2 1237 570.4 1236.9 571.4L1232.8 580.1 1229 570.8 1241.1 544.8C1241.6 544.1 1241.1 542.9 1240.4 542.5 1239.4 542.3 1238.3 542.5 1237.7 543.4L1227.4 565.8 1223.2 554.3 1227.8 544.6C1228.3 543.6 1227.8 542.4 1226.8 542.3 1226.1 541.8 1225 542 1224.5 543L1221.5 549.7 1218.3 541.2C1218.1 540.4 1217.1 539.9 1216 540 1215.5 540.3 1215.1 541 1215 541.7 1215 541.7 1214.9 542 1214.8 542.4L1218.1 550.9 1211.3 547.9C1210.7 547.4 1209.5 547.9 1209.1 548.6 1209 548.9 1209 548.9 1209 548.9 1208.8 550 1209.4 550.8 1210.1 550.9L1219.8 555.5 1224.3 567.1 1201.5 556.7C1200.5 556.5 1199.7 556.7 1199.2 557.7 1199.2 557.7 1199.1 558.1 1199.1 558.1 1199 558.8 1199.2 559.5 1200.2 560.1L1225.9 572.1 1229.4 581.3 1220.7 577.3C1219.6 577.1 1218.5 577.3 1218.4 578.3 1218 578.3 1217.9 578.6 1217.9 578.6 1217.8 579.3 1218.4 580.2 1219 580.6L1231.1 586 1234.5 595.6 1224.7 593.9 1217.2 583.2C1216.6 582.4 1215.2 582.1 1214.4 582.7 1213.9 583.3 1213.7 584.4 1213.9 585.2L1219.8 593 1209.6 591.3 1193.4 568.3C1192.8 567.4 1191.8 567.2 1190.9 567.8 1190.1 568.4 1189.9 569.5 1190.5 570.3L1204.7 590.4 1192.5 588.3 1186.4 579.7C1185.8 578.8 1184.7 578.7 1183.9 579.2S1182.9 580.9 1183.5 581.7L1187.6 587.4 1178.8 585.9C1177.7 585.8 1176.9 586.3 1176.7 587.4 1176.6 588.4 1177.1 589.3 1178.2 589.4L1186.9 591 1181.1 595.4C1180.7 595.6 1180.3 595.9 1180.2 596.3 1180.2 596.6 1180.4 597.4 1180.7 597.8 1181.3 598.6 1182.3 598.8 1183.2 598.2L1191.9 591.8 1204.1 593.9 1183.9 608.5C1183.5 608.8 1183.1 609 1183 609.4 1183 609.7 1183.2 610.5 1183.5 610.9 1184.1 611.7 1185.1 611.9 1185.9 611.3L1209 594.8 1219.2 596.5 1211 602C1210.6 602.3 1210.5 603 1210.4 603.3 1210.4 603.7 1210.3 604 1210.6 604.4 1211.2 605.2 1212.6 605.5 1213 604.8L1224.1 597.4 1233.9 599.1 1227.5 607 1214.3 608C1213.6 608.2 1212.7 608.8 1212.6 609.5 1212.6 609.8 1212.6 609.8 1212.9 609.9 1212.7 610.9 1213.6 611.8 1214.8 611.6L1224.3 610.8 1217.9 618.7 1189.3 621C1188.6 621.2 1188.1 621.8 1188 622.5 1187.9 622.9 1187.9 622.9 1187.9 622.9 1188.1 624 1188.7 624.8 1189.8 624.6L1214.7 622.5 1206.6 631.9 1195.9 632.9C1194.8 633.1 1194.3 633.7 1194.2 634.4 1194.2 634.4 1194.2 634.8 1194.2 634.8 1194.3 635.9 1195.3 636.4 1196 636.5L1203.4 635.7 1197.5 642.6C1197.4 642.9 1197.4 643.3 1197.3 643.6 1197.3 644 1197.5 644.7 1197.8 645.1 1198.8 645.7 1199.8 645.9 1200.4 644.9L1206.2 637.9 1206.8 645.3C1207 646.4 1207.9 646.9 1208.6 647 1209.8 646.9 1210.3 645.9 1210.5 644.8L1209.4 634.2 1217.2 624.7 1219.4 649.3C1219.6 650.4 1220.5 651.2 1221.3 651 1222.4 650.8 1223.2 650.3 1223.1 649.2Z" fill="rgba(255, 255, 255, 0.33)"></path><path d="M819.9 564.1L799.5 585.4 773.3 585.9 786 562.9 814.4 554.9C814.4 554.9 814.7 554.7 814.7 554.7 815.3 554.4 815.5 553.4 815.5 552.6 815.2 551.5 814.1 551 813.1 551.5L788.3 558.6 794.5 547.4 805.4 544.1C805.4 544.1 805.7 544 805.7 544 806.3 543.6 806.5 542.6 806.5 541.8 806.2 540.7 805.1 540.2 804.2 540.7L796.7 542.7 801.3 534.6C801.7 533.9 801.3 532.5 800.6 532.1 799.8 531.3 798.5 532.1 798.1 532.7L793.5 540.9 791.5 533.4C791.2 532.3 790.1 531.8 789.1 532.3 788.1 532.6 787.5 533.7 788.1 534.7L791.3 545.6 785 556.4 777.9 531.6C777.7 530.5 776.5 530 775.6 530.5 774.5 530.8 774 531.9 774.5 532.8L782.5 561.2 769.8 584.3 756 561.4 763.2 532.6C763.4 531.6 762.9 530.7 761.9 530.5 760.9 530.2 760 530.8 759.8 531.8L753.5 557.1 746.9 546.2 749.5 535.4C749.8 534.5 749.2 533.6 748.2 533.3 747.3 533.1 746.3 533.6 746.1 534.6L744.3 541.9 739.1 533.4C738.9 532.3 737.6 532.2 736.7 532.8 735.8 533.3 735.6 534.3 736.1 535.2L740.9 543.1 733.6 541.3C732.6 541.1 731.7 541.6 731.4 542.6S731.7 544.5 732.7 544.7L743.4 547.4 750 558.4 724.7 552.1C723.7 551.8 722.8 552.4 722.5 553.3 722.3 554.3 722.8 555.2 723.8 555.5L752.6 562.6 766.2 585.2 739.9 585.6 719.2 565.7C718.3 565 717.2 565.2 716.3 565.8 715.6 566.7 715.8 567.7 716.4 568.7L735 586.5 722.3 586.7 714.2 578.7C713.3 578 712.2 578.2 711.3 578.8 710.6 579.6 710.8 580.7 711.2 581.4L716.8 586.7 707.5 586.9C706.7 587 705.4 587.7 705.7 588.8 705.9 589.9 706.5 590.8 707.6 590.6L717 590.3 711.7 596C711 596.8 711.2 597.9 711.6 598.5 712.2 599 713.2 599.2 713.8 598.9 713.8 598.9 714.1 598.7 714.1 598.7L722.1 590.5 734.8 590.3 717 609C716.3 609.8 716.5 610.9 716.9 611.5 717.6 612 718.5 612.2 719.1 611.8 719.1 611.8 719.4 611.6 719.4 611.6L739.8 590.3 766.1 589.8 753.4 612.8 725 620.8C723.9 621 723.3 622.2 723.9 623.1 724.1 624.2 725.3 624.7 726.2 624.2L751 617.1 744.8 628.3 733.9 631.6C732.8 631.8 732.3 633 732.8 633.9 733.1 635 734.2 635.5 735.2 635L742.7 633 738 641.1C737.6 641.8 738 643.2 738.7 643.6 739.4 644.1 740.2 644 740.8 643.6 741.1 643.4 741.4 643.3 741.5 642.8L746.1 634.6 748.2 642.1C748.4 643.2 749.6 643.7 750.5 643.2 750.5 643.2 750.8 643 750.8 643 751.4 642.6 751.6 641.7 751.6 640.9L748.3 630 754.5 618.8 761.5 643.6C761.8 644.7 762.9 645.2 763.8 644.7 763.8 644.7 764.1 644.5 764.1 644.5 764.7 644.1 765 643.2 764.9 642.4L757 614 769.7 591 783.2 613.5 776.1 642.3C775.8 643.3 776.4 644.2 777.4 644.4 778.3 644.7 779.3 644.1 779.5 643.1L786 618.1 792.6 629 789.9 639.8C789.7 640.8 790.2 641.7 791.2 641.9S793.1 641.6 793.3 640.6L795.2 633.3 799.9 641.2C800.5 642.1 801.4 642.4 802.4 641.8 803.3 641.3 803.5 640.3 803 639.4L798.2 631.5 805.5 633.3C806 633.4 806.5 633.5 807.1 633.2S807.8 632.3 808 631.8C808.2 630.8 807.6 629.9 806.7 629.7L795.9 627 789.3 616.1 814.7 622.4C815.2 622.5 815.7 622.6 816.3 622.2 816.6 622.1 817 621.4 817.1 620.9 817.4 619.9 816.8 619 815.9 618.8L787.1 611.6 773.5 589.1 799.8 588.6 821.2 608.9C821.8 609.4 822.8 609.6 823.4 609.2 823.4 609.2 823.7 609.1 823.7 609.1 824.4 608.2 824.2 607.1 823.8 606.5L805.2 588.7 818 588.5 826.1 596.4C826.7 596.9 827.7 597.1 828.3 596.7 828.3 596.7 828.6 596.5 828.6 596.5 829.4 595.7 829.1 594.6 828.8 594L823.1 588.7 832.5 588.4C832.8 588.2 833.3 588.4 833.6 588.2 834.2 587.8 834.6 587.1 834.5 586.4 834.3 585.3 833.7 584.3 832.6 584.6L823.3 584.8 828.5 579.2C829.3 578.3 829 577.2 828.7 576.6 827.8 575.9 826.7 576.1 826.1 576.5L818.1 584.6 805.4 584.8 823.2 566.2C824 565.3 823.7 564.2 823.3 563.6 821.9 563.3 820.6 563.2 819.9 564.1Z" fill="rgba(255, 255, 255, 0.33)"></path></g><defs><mask id="SvgjsMask1014"><rect width="1280" height="720" fill="#ffffff"></rect></mask><filter id="SvgjsFilter1015"><feGaussianBlur stdDeviation="1"></feGaussianBlur></filter></defs></svg>