<svg xmlns="http://www.w3.org/2000/svg" version="1.1" xmlns:xlink="http://www.w3.org/1999/xlink" xmlns:svgjs="http://svgjs.com/svgjs" width="1280" height="720" preserveAspectRatio="none" viewBox="0 0 1280 720"><g mask="url(&quot;#SvgjsMask1020&quot;)" fill="none"><path d="M226.83 535.36L226.83 538.68L251.03 538.68L251.03 535.36zM245.16 537.02 a5.87 5.87 0 1 0 11.74 0 a5.87 5.87 0 1 0 -11.74 0zM222.65 559.7L221.38 562.76L243.53 571.93L244.79 568.87zM238.29 570.4 a5.87 5.87 0 1 0 11.74 0 a5.87 5.87 0 1 0 -11.74 0zM209.47 580.58L207.13 582.92L227.92 603.71L230.26 601.37zM223.22 602.54 a5.87 5.87 0 1 0 11.74 0 a5.87 5.87 0 1 0 -11.74 0zM189.31 594.83L186.25 596.1L191.85 609.63L194.91 608.36zM187.51 608.99 a5.87 5.87 0 1 0 11.74 0 a5.87 5.87 0 1 0 -11.74 0zM165.22 600.28L161.91 600.28L161.91 625.24L165.22 625.24zM157.7 625.24 a5.87 5.87 0 1 0 11.74 0 a5.87 5.87 0 1 0 -11.74 0zM140.89 596.1L137.83 594.83L133.76 604.65L136.82 605.92zM129.42 605.29 a5.87 5.87 0 1 0 11.74 0 a5.87 5.87 0 1 0 -11.74 0zM120.01 582.92L117.66 580.58L102.88 595.37L105.22 597.71zM98.18 596.54 a5.87 5.87 0 1 0 11.74 0 a5.87 5.87 0 1 0 -11.74 0zM105.76 562.76L104.49 559.7L91.72 564.99L92.99 568.05zM86.48 566.52 a5.87 5.87 0 1 0 11.74 0 a5.87 5.87 0 1 0 -11.74 0zM100.31 538.68L100.31 535.36L72.95 535.36L72.95 538.68zM67.08 537.02 a5.87 5.87 0 1 0 11.74 0 a5.87 5.87 0 1 0 -11.74 0zM104.49 514.34L105.76 511.28L77.95 499.76L76.68 502.82zM71.44 501.29 a5.87 5.87 0 1 0 11.74 0 a5.87 5.87 0 1 0 -11.74 0zM117.66 493.46L120.01 491.12L98.9 470.01L96.56 472.35zM91.86 471.18 a5.87 5.87 0 1 0 11.74 0 a5.87 5.87 0 1 0 -11.74 0zM137.83 479.21L140.89 477.94L132.24 457.05L129.18 458.32zM124.84 457.69 a5.87 5.87 0 1 0 11.74 0 a5.87 5.87 0 1 0 -11.74 0zM161.91 473.76L165.22 473.76L165.22 463.33L161.91 463.33zM157.7 463.33 a5.87 5.87 0 1 0 11.74 0 a5.87 5.87 0 1 0 -11.74 0zM186.25 477.94L189.31 479.21L200.99 451L197.93 449.73zM193.59 450.37 a5.87 5.87 0 1 0 11.74 0 a5.87 5.87 0 1 0 -11.74 0zM207.13 491.12L209.47 493.46L220.88 482.05L218.54 479.7zM213.84 480.88 a5.87 5.87 0 1 0 11.74 0 a5.87 5.87 0 1 0 -11.74 0zM221.38 511.28L222.65 514.34L244.96 505.1L243.69 502.04zM238.46 503.57 a5.87 5.87 0 1 0 11.74 0 a5.87 5.87 0 1 0 -11.74 0zM100.29 537.02 a63.28 63.28 0 1 0 126.56 0 a63.28 63.28 0 1 0 -126.56 0z" fill="rgba(0, 0, 0, 0.12)"></path><path d="M226.46 544.02 A62.2832 62.2832 0 0 1 126.17 588.07M126.17 588.07 A126.5664 126.5664 0 0 0 226.46 544.02" fill="rgba(0, 0, 0, 0.12)" fill-rule="nonzero"></path><path d="M182.83 535.98 a12.66 12.66 0 1 0 25.32 0 a12.66 12.66 0 1 0 -25.32 0zM217.86 558 a2.53 2.53 0 1 0 5.06 0 a2.53 2.53 0 1 0 -5.06 0zM144.38 585.44 a12.66 12.66 0 1 0 25.32 0 a12.66 12.66 0 1 0 -25.32 0zM164.22 490.29 a12.66 12.66 0 1 0 25.32 0 a12.66 12.66 0 1 0 -25.32 0zM146.21 538.38 a12.02 12.02 0 1 0 24.04 0 a12.02 12.02 0 1 0 -24.04 0zM104.88 554.69 a12.66 12.66 0 1 0 25.32 0 a12.66 12.66 0 1 0 -25.32 0zM105.46 513.78 a6.96 6.96 0 1 0 13.92 0 a6.96 6.96 0 1 0 -13.92 0zM126.69 582.24 a2.53 2.53 0 1 0 5.06 0 a2.53 2.53 0 1 0 -5.06 0zM130.98 504.7 a11.39 11.39 0 1 0 22.78 0 a11.39 11.39 0 1 0 -22.78 0zM187.07 568.94 a7.59 7.59 0 1 0 15.18 0 a7.59 7.59 0 1 0 -15.18 0z" fill="rgba(0, 0, 0, 0.12)" fill-rule="nonzero"></path><path d="M1248.06 50.58L1248.06 52.24L1257.01 52.24L1257.01 50.58zM1254.08 51.41 a2.93 2.93 0 1 0 5.86 0 a2.93 2.93 0 1 0 -5.86 0zM1245.97 62.75L1245.33 64.28L1257.92 69.5L1258.56 67.97zM1255.31 68.73 a2.93 2.93 0 1 0 5.86 0 a2.93 2.93 0 1 0 -5.86 0zM1239.38 73.19L1238.21 74.37L1244.54 80.7L1245.71 79.53zM1242.2 80.11 a2.93 2.93 0 1 0 5.86 0 a2.93 2.93 0 1 0 -5.86 0zM1229.3 80.32L1227.76 80.95L1231.37 89.66L1232.9 89.02zM1229.21 89.34 a2.93 2.93 0 1 0 5.86 0 a2.93 2.93 0 1 0 -5.86 0zM1217.25 83.04L1215.6 83.04L1215.6 97.34L1217.25 97.34zM1213.5 97.34 a2.93 2.93 0 1 0 5.86 0 a2.93 2.93 0 1 0 -5.86 0zM1205.09 80.95L1203.56 80.32L1200.23 88.36L1201.76 88.99zM1198.06 88.67 a2.93 2.93 0 1 0 5.86 0 a2.93 2.93 0 1 0 -5.86 0zM1194.64 74.37L1193.47 73.19L1185.48 81.19L1186.65 82.36zM1183.13 81.78 a2.93 2.93 0 1 0 5.86 0 a2.93 2.93 0 1 0 -5.86 0zM1187.52 64.28L1186.89 62.75L1180.39 65.44L1181.02 66.97zM1177.78 66.21 a2.93 2.93 0 1 0 5.86 0 a2.93 2.93 0 1 0 -5.86 0zM1184.79 52.24L1184.79 50.58L1171.58 50.58L1171.58 52.24zM1168.65 51.41 a2.93 2.93 0 1 0 5.86 0 a2.93 2.93 0 1 0 -5.86 0zM1186.89 40.07L1187.52 38.54L1180.21 35.52L1179.58 37.05zM1176.96 36.28 a2.93 2.93 0 1 0 5.86 0 a2.93 2.93 0 1 0 -5.86 0zM1193.47 29.63L1194.64 28.46L1189.98 23.79L1188.81 24.97zM1186.46 24.38 a2.93 2.93 0 1 0 5.86 0 a2.93 2.93 0 1 0 -5.86 0zM1203.56 22.51L1205.09 21.87L1201.43 13.04L1199.9 13.67zM1197.73 13.36 a2.93 2.93 0 1 0 5.86 0 a2.93 2.93 0 1 0 -5.86 0zM1215.6 19.78L1217.25 19.78L1217.25 7.86L1215.6 7.86zM1213.5 7.86 a2.93 2.93 0 1 0 5.86 0 a2.93 2.93 0 1 0 -5.86 0zM1227.76 21.87L1229.3 22.51L1232.83 13.98L1231.3 13.35zM1229.13 13.66 a2.93 2.93 0 1 0 5.86 0 a2.93 2.93 0 1 0 -5.86 0zM1238.21 28.46L1239.38 29.63L1242.62 26.39L1241.44 25.22zM1239.1 25.81 a2.93 2.93 0 1 0 5.86 0 a2.93 2.93 0 1 0 -5.86 0zM1245.33 38.54L1245.97 40.07L1259.11 34.63L1258.48 33.1zM1255.87 33.86 a2.93 2.93 0 1 0 5.86 0 a2.93 2.93 0 1 0 -5.86 0zM1184.79 51.41 a31.64 31.64 0 1 0 63.28 0 a31.64 31.64 0 1 0 -63.28 0z" fill="rgba(0, 0, 0, 0.12)"></path><path d="M1245.12 64.75 A30.6416 30.6416 0 0 1 1190.57 69.65M1190.57 69.65 A63.2832 63.2832 0 0 0 1245.12 64.75" fill="rgba(0, 0, 0, 0.12)" fill-rule="nonzero"></path><path d="M1189.58 53.53 a6.33 6.33 0 1 0 12.66 0 a6.33 6.33 0 1 0 -12.66 0zM1217.56 44.82 a6.33 6.33 0 1 0 12.66 0 a6.33 6.33 0 1 0 -12.66 0zM1204.03 40.31 a3.8 3.8 0 1 0 7.6 0 a3.8 3.8 0 1 0 -7.6 0zM1207.78 58.81 a4.75 4.75 0 1 0 9.5 0 a4.75 4.75 0 1 0 -9.5 0zM1225.81 74.17 a4.75 4.75 0 1 0 9.5 0 a4.75 4.75 0 1 0 -9.5 0zM1202.7 77.98 a2.53 2.53 0 1 0 5.06 0 a2.53 2.53 0 1 0 -5.06 0zM1193.02 68.98 a2.53 2.53 0 1 0 5.06 0 a2.53 2.53 0 1 0 -5.06 0zM1239.01 53.47 a4.43 4.43 0 1 0 8.86 0 a4.43 4.43 0 1 0 -8.86 0zM1225.5 30.77 a1.58 1.58 0 1 0 3.16 0 a1.58 1.58 0 1 0 -3.16 0zM1232.09 60.55 a1.27 1.27 0 1 0 2.54 0 a1.27 1.27 0 1 0 -2.54 0z" fill="rgba(0, 0, 0, 0.12)" fill-rule="nonzero"></path><path d="M1000.76 192.57L1000.76 195.88L1018.66 195.88L1018.66 192.57zM1012.79 194.23 a5.87 5.87 0 1 0 11.74 0 a5.87 5.87 0 1 0 -11.74 0zM996.58 216.9L995.31 219.97L1011.83 226.81L1013.09 223.75zM1006.59 225.28 a5.87 5.87 0 1 0 11.74 0 a5.87 5.87 0 1 0 -11.74 0zM983.4 237.79L981.06 240.13L991.34 250.42L993.69 248.08zM986.65 249.25 a5.87 5.87 0 1 0 11.74 0 a5.87 5.87 0 1 0 -11.74 0zM963.23 252.04L960.17 253.31L965.4 265.92L968.46 264.65zM961.06 265.28 a5.87 5.87 0 1 0 11.74 0 a5.87 5.87 0 1 0 -11.74 0zM939.15 257.49L935.84 257.49L935.84 269.58L939.15 269.58zM931.63 269.58 a5.87 5.87 0 1 0 11.74 0 a5.87 5.87 0 1 0 -11.74 0zM914.82 253.31L911.76 252.04L903.65 271.61L906.71 272.87zM899.31 272.24 a5.87 5.87 0 1 0 11.74 0 a5.87 5.87 0 1 0 -11.74 0zM893.93 240.13L891.59 237.79L874.58 254.8L876.92 257.14zM869.88 255.97 a5.87 5.87 0 1 0 11.74 0 a5.87 5.87 0 1 0 -11.74 0zM879.68 219.97L878.42 216.9L852.51 227.63L853.78 230.7zM847.27 229.17 a5.87 5.87 0 1 0 11.74 0 a5.87 5.87 0 1 0 -11.74 0zM874.23 195.88L874.23 192.57L851.16 192.57L851.16 195.88zM845.29 194.23 a5.87 5.87 0 1 0 11.74 0 a5.87 5.87 0 1 0 -11.74 0zM878.42 171.55L879.68 168.49L869.31 164.19L868.04 167.25zM862.8 165.72 a5.87 5.87 0 1 0 11.74 0 a5.87 5.87 0 1 0 -11.74 0zM891.59 150.66L893.93 148.32L880.49 134.88L878.15 137.22zM873.45 136.05 a5.87 5.87 0 1 0 11.74 0 a5.87 5.87 0 1 0 -11.74 0zM911.76 136.41L914.82 135.15L907.37 117.16L904.3 118.43zM899.97 117.79 a5.87 5.87 0 1 0 11.74 0 a5.87 5.87 0 1 0 -11.74 0zM935.84 130.96L939.15 130.96L939.15 121.08L935.84 121.08zM931.63 121.08 a5.87 5.87 0 1 0 11.74 0 a5.87 5.87 0 1 0 -11.74 0zM960.17 135.15L963.23 136.41L972.22 114.73L969.16 113.46zM964.82 114.1 a5.87 5.87 0 1 0 11.74 0 a5.87 5.87 0 1 0 -11.74 0zM981.06 148.32L983.4 150.66L993.03 141.03L990.69 138.69zM985.99 139.86 a5.87 5.87 0 1 0 11.74 0 a5.87 5.87 0 1 0 -11.74 0zM995.31 168.49L996.58 171.55L1025 159.77L1023.74 156.71zM1018.5 158.24 a5.87 5.87 0 1 0 11.74 0 a5.87 5.87 0 1 0 -11.74 0zM874.22 194.23 a63.28 63.28 0 1 0 126.56 0 a63.28 63.28 0 1 0 -126.56 0z" fill="rgba(0, 0, 0, 0.12)"></path><path d="M946.67 131.61 A62.2832 62.2832 0 0 1 987.21 233.38M987.21 233.38 A126.5664 126.5664 0 0 0 946.67 131.61" fill="rgba(0, 0, 0, 0.12)" fill-rule="nonzero"></path><path d="M935.44 166.26 a12.66 12.66 0 1 0 25.32 0 a12.66 12.66 0 1 0 -25.32 0zM914.95 208.49 a12.66 12.66 0 1 0 25.32 0 a12.66 12.66 0 1 0 -25.32 0zM964.47 231.77 a10.13 10.13 0 1 0 20.26 0 a10.13 10.13 0 1 0 -20.26 0zM891.22 180.08 a12.02 12.02 0 1 0 24.04 0 a12.02 12.02 0 1 0 -24.04 0zM980.49 205.48 a5.7 5.7 0 1 0 11.4 0 a5.7 5.7 0 1 0 -11.4 0zM919.33 153.25 a3.16 3.16 0 1 0 6.32 0 a3.16 3.16 0 1 0 -6.32 0zM876.02 207.44 a2.53 2.53 0 1 0 5.06 0 a2.53 2.53 0 1 0 -5.06 0zM963.81 144.26 a3.16 3.16 0 1 0 6.32 0 a3.16 3.16 0 1 0 -6.32 0zM936.72 250.5 a6.33 6.33 0 1 0 12.66 0 a6.33 6.33 0 1 0 -12.66 0zM912.4 249.13 a4.43 4.43 0 1 0 8.86 0 a4.43 4.43 0 1 0 -8.86 0z" fill="rgba(0, 0, 0, 0.12)" fill-rule="nonzero"></path><path d="M838.87 452.62L838.87 455.93L865.25 455.93L865.25 452.62zM859.38 454.27 a5.87 5.87 0 1 0 11.74 0 a5.87 5.87 0 1 0 -11.74 0zM834.68 476.95L833.42 480.01L851.05 487.32L852.32 484.26zM845.82 485.79 a5.87 5.87 0 1 0 11.74 0 a5.87 5.87 0 1 0 -11.74 0zM821.51 497.84L819.17 500.18L833.81 514.82L836.15 512.48zM829.11 513.65 a5.87 5.87 0 1 0 11.74 0 a5.87 5.87 0 1 0 -11.74 0zM801.34 512.09L798.28 513.35L806.01 532.02L809.07 530.75zM801.67 531.38 a5.87 5.87 0 1 0 11.74 0 a5.87 5.87 0 1 0 -11.74 0zM777.26 517.54L773.95 517.54L773.95 548.59L777.26 548.59zM769.73 548.59 a5.87 5.87 0 1 0 11.74 0 a5.87 5.87 0 1 0 -11.74 0zM752.93 513.35L749.86 512.09L740.13 535.58L743.19 536.85zM735.79 536.21 a5.87 5.87 0 1 0 11.74 0 a5.87 5.87 0 1 0 -11.74 0zM732.04 500.18L729.7 497.84L713.92 513.61L716.27 515.95zM709.23 514.78 a5.87 5.87 0 1 0 11.74 0 a5.87 5.87 0 1 0 -11.74 0zM717.79 480.01L716.52 476.95L695.3 485.74L696.57 488.8zM690.07 487.27 a5.87 5.87 0 1 0 11.74 0 a5.87 5.87 0 1 0 -11.74 0zM712.34 455.93L712.34 452.62L704.03 452.62L704.03 455.93zM698.16 454.27 a5.87 5.87 0 1 0 11.74 0 a5.87 5.87 0 1 0 -11.74 0zM716.52 431.6L717.79 428.54L690 417.02L688.73 420.08zM683.5 418.55 a5.87 5.87 0 1 0 11.74 0 a5.87 5.87 0 1 0 -11.74 0zM729.7 410.71L732.04 408.37L719.05 395.38L716.71 397.72zM712.01 396.55 a5.87 5.87 0 1 0 11.74 0 a5.87 5.87 0 1 0 -11.74 0zM749.86 396.46L752.93 395.19L748.08 383.51L745.02 384.78zM740.68 384.14 a5.87 5.87 0 1 0 11.74 0 a5.87 5.87 0 1 0 -11.74 0zM773.95 391.01L777.26 391.01L777.26 376.39L773.95 376.39zM769.73 376.39 a5.87 5.87 0 1 0 11.74 0 a5.87 5.87 0 1 0 -11.74 0zM798.28 395.19L801.34 396.46L805.5 386.43L802.44 385.16zM798.1 385.8 a5.87 5.87 0 1 0 11.74 0 a5.87 5.87 0 1 0 -11.74 0zM819.17 408.37L821.51 410.71L834 398.23L831.65 395.88zM826.95 397.05 a5.87 5.87 0 1 0 11.74 0 a5.87 5.87 0 1 0 -11.74 0zM833.42 428.54L834.68 431.6L845.8 426.99L844.53 423.93zM839.29 425.46 a5.87 5.87 0 1 0 11.74 0 a5.87 5.87 0 1 0 -11.74 0zM712.32 454.27 a63.28 63.28 0 1 0 126.56 0 a63.28 63.28 0 1 0 -126.56 0z" fill="rgba(0, 0, 0, 0.12)"></path><path d="M829.63 421.31 A62.2832 62.2832 0 0 1 777.27 517.54M777.27 517.54 A126.5664 126.5664 0 0 0 829.63 421.31" fill="rgba(0, 0, 0, 0.12)" fill-rule="nonzero"></path><path d="M784.74 481.32 a12.66 12.66 0 1 0 25.32 0 a12.66 12.66 0 1 0 -25.32 0zM718.47 429.18 a3.16 3.16 0 1 0 6.32 0 a3.16 3.16 0 1 0 -6.32 0zM722.35 470.43 a12.66 12.66 0 1 0 25.32 0 a12.66 12.66 0 1 0 -25.32 0zM753.6 448.46 a12.02 12.02 0 1 0 24.04 0 a12.02 12.02 0 1 0 -24.04 0zM777.08 416.98 a12.66 12.66 0 1 0 25.32 0 a12.66 12.66 0 1 0 -25.32 0zM738.02 502.05 a5.06 5.06 0 1 0 10.12 0 a5.06 5.06 0 1 0 -10.12 0zM824.26 441.78 a6.33 6.33 0 1 0 12.66 0 a6.33 6.33 0 1 0 -12.66 0zM762.94 497.02 a6.33 6.33 0 1 0 12.66 0 a6.33 6.33 0 1 0 -12.66 0zM819.88 467.49 a6.33 6.33 0 1 0 12.66 0 a6.33 6.33 0 1 0 -12.66 0zM751.65 418.34 a6.33 6.33 0 1 0 12.66 0 a6.33 6.33 0 1 0 -12.66 0z" fill="rgba(0, 0, 0, 0.12)" fill-rule="nonzero"></path><path d="M588.27 85.7L588.27 88.18L606.28 88.18L606.28 85.7zM601.88 86.94 a4.4 4.4 0 1 0 8.8 0 a4.4 4.4 0 1 0 -8.8 0zM585.13 103.95L584.18 106.25L593.98 110.3L594.93 108.01zM590.05 109.16 a4.4 4.4 0 1 0 8.8 0 a4.4 4.4 0 1 0 -8.8 0zM575.25 119.61L573.5 121.37L582.49 130.36L584.25 128.61zM578.97 129.49 a4.4 4.4 0 1 0 8.8 0 a4.4 4.4 0 1 0 -8.8 0zM560.13 130.3L557.83 131.25L563.85 145.78L566.15 144.82zM560.6 145.3 a4.4 4.4 0 1 0 8.8 0 a4.4 4.4 0 1 0 -8.8 0zM542.07 134.39L539.58 134.39L539.58 156.64L542.07 156.64zM536.42 156.64 a4.4 4.4 0 1 0 8.8 0 a4.4 4.4 0 1 0 -8.8 0zM523.82 131.25L521.52 130.3L512.88 151.16L515.17 152.11zM509.63 151.64 a4.4 4.4 0 1 0 8.8 0 a4.4 4.4 0 1 0 -8.8 0zM508.15 121.37L506.4 119.61L495.49 130.52L497.25 132.27zM491.97 131.4 a4.4 4.4 0 1 0 8.8 0 a4.4 4.4 0 1 0 -8.8 0zM497.47 106.25L496.51 103.95L475.43 112.68L476.38 114.98zM471.51 113.83 a4.4 4.4 0 1 0 8.8 0 a4.4 4.4 0 1 0 -8.8 0zM493.38 88.18L493.38 85.7L475.65 85.7L475.65 88.18zM471.25 86.94 a4.4 4.4 0 1 0 8.8 0 a4.4 4.4 0 1 0 -8.8 0zM496.51 69.93L497.47 67.64L480.6 60.65L479.64 62.95zM475.72 61.8 a4.4 4.4 0 1 0 8.8 0 a4.4 4.4 0 1 0 -8.8 0zM506.4 54.27L508.15 52.51L495.31 39.67L493.55 41.42zM490.03 40.54 a4.4 4.4 0 1 0 8.8 0 a4.4 4.4 0 1 0 -8.8 0zM521.52 43.58L523.82 42.63L520.2 33.91L517.91 34.86zM514.66 34.39 a4.4 4.4 0 1 0 8.8 0 a4.4 4.4 0 1 0 -8.8 0zM539.58 39.5L542.07 39.5L542.07 31.44L539.58 31.44zM536.42 31.44 a4.4 4.4 0 1 0 8.8 0 a4.4 4.4 0 1 0 -8.8 0zM557.83 42.63L560.13 43.58L567.18 26.57L564.88 25.61zM561.63 26.09 a4.4 4.4 0 1 0 8.8 0 a4.4 4.4 0 1 0 -8.8 0zM573.5 52.51L575.25 54.27L580.73 48.8L578.97 47.04zM575.45 47.92 a4.4 4.4 0 1 0 8.8 0 a4.4 4.4 0 1 0 -8.8 0zM584.18 67.64L585.13 69.93L595.07 65.82L594.12 63.52zM590.19 64.67 a4.4 4.4 0 1 0 8.8 0 a4.4 4.4 0 1 0 -8.8 0zM493.36 86.94 a47.46 47.46 0 1 0 94.92 0 a47.46 47.46 0 1 0 -94.92 0z" fill="rgba(0, 0, 0, 0.12)"></path><path d="M546.18 39.78 A46.462399999999995 46.462399999999995 0 0 1 579.05 115.08M579.05 115.08 A94.92479999999999 94.92479999999999 0 0 0 546.18 39.78" fill="rgba(0, 0, 0, 0.12)" fill-rule="nonzero"></path><path d="M521.33 94.12 a9.49 9.49 0 1 0 18.98 0 a9.49 9.49 0 1 0 -18.98 0zM533.74 117.66 a6.17 6.17 0 1 0 12.34 0 a6.17 6.17 0 1 0 -12.34 0zM546.72 82.66 a2.37 2.37 0 1 0 4.74 0 a2.37 2.37 0 1 0 -4.74 0zM493.85 85.43 a5.22 5.22 0 1 0 10.44 0 a5.22 5.22 0 1 0 -10.44 0zM509.34 72.47 a5.22 5.22 0 1 0 10.44 0 a5.22 5.22 0 1 0 -10.44 0zM549 62.46 a9.49 9.49 0 1 0 18.98 0 a9.49 9.49 0 1 0 -18.98 0zM518.28 47.57 a3.8 3.8 0 1 0 7.6 0 a3.8 3.8 0 1 0 -7.6 0zM553.89 98.69 a8.54 8.54 0 1 0 17.08 0 a8.54 8.54 0 1 0 -17.08 0zM557.37 125.9 a3.32 3.32 0 1 0 6.64 0 a3.32 3.32 0 1 0 -6.64 0zM532.06 69.82 a4.27 4.27 0 1 0 8.54 0 a4.27 4.27 0 1 0 -8.54 0z" fill="rgba(0, 0, 0, 0.12)" fill-rule="nonzero"></path><path d="M387.81 172.9L387.81 174.55L397.34 174.55L397.34 172.9zM394.41 173.72 a2.93 2.93 0 1 0 5.86 0 a2.93 2.93 0 1 0 -5.86 0zM385.72 185.06L385.08 186.59L389.89 188.58L390.52 187.05zM387.27 187.82 a2.93 2.93 0 1 0 5.86 0 a2.93 2.93 0 1 0 -5.86 0zM379.13 195.5L377.96 196.68L386.34 205.05L387.51 203.88zM383.99 204.47 a2.93 2.93 0 1 0 5.86 0 a2.93 2.93 0 1 0 -5.86 0zM369.05 202.63L367.52 203.26L372.57 215.47L374.1 214.83zM370.41 215.15 a2.93 2.93 0 1 0 5.86 0 a2.93 2.93 0 1 0 -5.86 0zM357 205.35L355.35 205.35L355.35 213.86L357 213.86zM353.25 213.86 a2.93 2.93 0 1 0 5.86 0 a2.93 2.93 0 1 0 -5.86 0zM344.84 203.26L343.31 202.63L339.48 211.86L341.01 212.49zM337.32 212.18 a2.93 2.93 0 1 0 5.86 0 a2.93 2.93 0 1 0 -5.86 0zM334.4 196.68L333.22 195.5L325.27 203.46L326.44 204.63zM322.93 204.04 a2.93 2.93 0 1 0 5.86 0 a2.93 2.93 0 1 0 -5.86 0zM327.27 186.59L326.64 185.06L320.49 187.61L321.13 189.14zM317.88 188.37 a2.93 2.93 0 1 0 5.86 0 a2.93 2.93 0 1 0 -5.86 0zM324.55 174.55L324.55 172.9L315.5 172.9L315.5 174.55zM312.57 173.72 a2.93 2.93 0 1 0 5.86 0 a2.93 2.93 0 1 0 -5.86 0zM326.64 162.38L327.27 160.85L318.13 157.07L317.5 158.6zM314.89 157.83 a2.93 2.93 0 1 0 5.86 0 a2.93 2.93 0 1 0 -5.86 0zM333.22 151.94L334.4 150.77L325.02 141.4L323.85 142.57zM321.5 141.98 a2.93 2.93 0 1 0 5.86 0 a2.93 2.93 0 1 0 -5.86 0zM343.31 144.82L344.84 144.18L341.94 137.18L340.41 137.81zM338.24 137.5 a2.93 2.93 0 1 0 5.86 0 a2.93 2.93 0 1 0 -5.86 0zM355.35 142.09L357 142.09L357 128.99L355.35 128.99zM353.25 128.99 a2.93 2.93 0 1 0 5.86 0 a2.93 2.93 0 1 0 -5.86 0zM367.52 144.18L369.05 144.82L372.45 136.6L370.92 135.97zM368.75 136.29 a2.93 2.93 0 1 0 5.86 0 a2.93 2.93 0 1 0 -5.86 0zM377.96 150.77L379.13 151.94L382.52 148.56L381.34 147.38zM379 147.97 a2.93 2.93 0 1 0 5.86 0 a2.93 2.93 0 1 0 -5.86 0zM385.08 160.85L385.72 162.38L391.88 159.83L391.24 158.3zM388.63 159.07 a2.93 2.93 0 1 0 5.86 0 a2.93 2.93 0 1 0 -5.86 0zM324.54 173.72 a31.64 31.64 0 1 0 63.28 0 a31.64 31.64 0 1 0 -63.28 0z" fill="rgba(0, 0, 0, 0.12)"></path><path d="M381.34 192.91 A30.6416 30.6416 0 0 1 327.01 185.98M327.01 185.98 A63.2832 63.2832 0 0 0 381.34 192.91" fill="rgba(0, 0, 0, 0.12)" fill-rule="nonzero"></path><path d="M361.49 183.72 a6.33 6.33 0 1 0 12.66 0 a6.33 6.33 0 1 0 -12.66 0zM374.57 166.82 a6.01 6.01 0 1 0 12.02 0 a6.01 6.01 0 1 0 -12.02 0zM336.29 188.01 a6.33 6.33 0 1 0 12.66 0 a6.33 6.33 0 1 0 -12.66 0zM375.98 153.61 a1.27 1.27 0 1 0 2.54 0 a1.27 1.27 0 1 0 -2.54 0zM341.79 171.51 a4.11 4.11 0 1 0 8.22 0 a4.11 4.11 0 1 0 -8.22 0zM362.11 156.08 a3.8 3.8 0 1 0 7.6 0 a3.8 3.8 0 1 0 -7.6 0zM369.35 197.82 a1.58 1.58 0 1 0 3.16 0 a1.58 1.58 0 1 0 -3.16 0zM327.13 162.08 a3.48 3.48 0 1 0 6.96 0 a3.48 3.48 0 1 0 -6.96 0zM326.05 180.77 a2.85 2.85 0 1 0 5.7 0 a2.85 2.85 0 1 0 -5.7 0zM353.56 159.22 a1.27 1.27 0 1 0 2.54 0 a1.27 1.27 0 1 0 -2.54 0z" fill="rgba(0, 0, 0, 0.12)" fill-rule="nonzero"></path><path d="M393.95 341.58L393.95 343.24L405.48 343.24L405.48 341.58zM402.55 342.41 a2.93 2.93 0 1 0 5.86 0 a2.93 2.93 0 1 0 -5.86 0zM391.86 353.75L391.23 355.28L399.97 358.9L400.6 357.37zM397.35 358.14 a2.93 2.93 0 1 0 5.86 0 a2.93 2.93 0 1 0 -5.86 0zM385.27 364.19L384.1 365.36L387.29 368.55L388.46 367.38zM384.95 367.97 a2.93 2.93 0 1 0 5.86 0 a2.93 2.93 0 1 0 -5.86 0zM375.19 371.32L373.66 371.95L379.52 386.1L381.05 385.46zM377.35 385.78 a2.93 2.93 0 1 0 5.86 0 a2.93 2.93 0 1 0 -5.86 0zM363.15 374.04L361.49 374.04L361.49 384.52L363.15 384.52zM359.39 384.52 a2.93 2.93 0 1 0 5.86 0 a2.93 2.93 0 1 0 -5.86 0zM350.98 371.95L349.45 371.32L347.7 375.54L349.23 376.17zM345.54 375.86 a2.93 2.93 0 1 0 5.86 0 a2.93 2.93 0 1 0 -5.86 0zM340.54 365.36L339.37 364.19L333.31 370.25L334.48 371.42zM330.97 370.84 a2.93 2.93 0 1 0 5.86 0 a2.93 2.93 0 1 0 -5.86 0zM333.42 355.28L332.78 353.75L324.18 357.31L324.81 358.84zM321.57 358.08 a2.93 2.93 0 1 0 5.86 0 a2.93 2.93 0 1 0 -5.86 0zM330.69 343.24L330.69 341.58L325.54 341.58L325.54 343.24zM322.61 342.41 a2.93 2.93 0 1 0 5.86 0 a2.93 2.93 0 1 0 -5.86 0zM332.78 331.07L333.42 329.54L325.77 326.37L325.13 327.9zM322.52 327.14 a2.93 2.93 0 1 0 5.86 0 a2.93 2.93 0 1 0 -5.86 0zM339.37 320.63L340.54 319.46L331.62 310.54L330.45 311.71zM328.11 311.13 a2.93 2.93 0 1 0 5.86 0 a2.93 2.93 0 1 0 -5.86 0zM349.45 313.51L350.98 312.87L347.62 304.76L346.09 305.39zM343.93 305.08 a2.93 2.93 0 1 0 5.86 0 a2.93 2.93 0 1 0 -5.86 0zM361.49 310.78L363.15 310.78L363.15 298.1L361.49 298.1zM359.39 298.1 a2.93 2.93 0 1 0 5.86 0 a2.93 2.93 0 1 0 -5.86 0zM373.66 312.87L375.19 313.51L379.46 303.2L377.93 302.57zM375.76 302.89 a2.93 2.93 0 1 0 5.86 0 a2.93 2.93 0 1 0 -5.86 0zM384.1 319.46L385.27 320.63L396.1 309.81L394.93 308.63zM392.58 309.22 a2.93 2.93 0 1 0 5.86 0 a2.93 2.93 0 1 0 -5.86 0zM391.23 329.54L391.86 331.07L396.71 329.06L396.08 327.53zM393.46 328.3 a2.93 2.93 0 1 0 5.86 0 a2.93 2.93 0 1 0 -5.86 0zM330.68 342.41 a31.64 31.64 0 1 0 63.28 0 a31.64 31.64 0 1 0 -63.28 0z" fill="rgba(0, 0, 0, 0.12)"></path><path d="M390.34 327.72 A30.6416 30.6416 0 0 1 361.1 374.03M361.1 374.03 A63.2832 63.2832 0 0 0 390.34 327.72" fill="rgba(0, 0, 0, 0.12)" fill-rule="nonzero"></path><path d="M337.27 338.77 a6.33 6.33 0 1 0 12.66 0 a6.33 6.33 0 1 0 -12.66 0zM378.64 344.42 a6.33 6.33 0 1 0 12.66 0 a6.33 6.33 0 1 0 -12.66 0zM371.27 359.97 a5.06 5.06 0 1 0 10.12 0 a5.06 5.06 0 1 0 -10.12 0zM356.42 348.24 a6.33 6.33 0 1 0 12.66 0 a6.33 6.33 0 1 0 -12.66 0zM359.12 332.02 a3.48 3.48 0 1 0 6.96 0 a3.48 3.48 0 1 0 -6.96 0zM345.5 359.82 a4.43 4.43 0 1 0 8.86 0 a4.43 4.43 0 1 0 -8.86 0zM368.17 322.28 a3.48 3.48 0 1 0 6.96 0 a3.48 3.48 0 1 0 -6.96 0zM385.41 325.47 a1.58 1.58 0 1 0 3.16 0 a1.58 1.58 0 1 0 -3.16 0zM340.35 323.88 a2.21 2.21 0 1 0 4.42 0 a2.21 2.21 0 1 0 -4.42 0zM332.1 351.48 a1.58 1.58 0 1 0 3.16 0 a1.58 1.58 0 1 0 -3.16 0z" fill="rgba(0, 0, 0, 0.12)" fill-rule="nonzero"></path><path d="M1214.88 620.38L1214.88 623.28L1227.72 623.28L1227.72 620.38zM1222.59 621.83 a5.13 5.13 0 1 0 10.26 0 a5.13 5.13 0 1 0 -10.26 0zM1211.22 641.67L1210.11 644.35L1222.79 649.6L1223.9 646.92zM1218.22 648.26 a5.13 5.13 0 1 0 10.26 0 a5.13 5.13 0 1 0 -10.26 0zM1199.69 659.94L1197.64 661.99L1208.35 672.7L1210.4 670.65zM1204.24 671.67 a5.13 5.13 0 1 0 10.26 0 a5.13 5.13 0 1 0 -10.26 0zM1182.05 672.41L1179.37 673.52L1185.36 687.98L1188.03 686.87zM1181.57 687.42 a5.13 5.13 0 1 0 10.26 0 a5.13 5.13 0 1 0 -10.26 0zM1160.97 677.18L1158.07 677.18L1158.07 686.8L1160.97 686.8zM1154.39 686.8 a5.13 5.13 0 1 0 10.26 0 a5.13 5.13 0 1 0 -10.26 0zM1139.68 673.52L1137 672.41L1130.47 688.18L1133.15 689.29zM1126.68 688.74 a5.13 5.13 0 1 0 10.26 0 a5.13 5.13 0 1 0 -10.26 0zM1121.41 661.99L1119.36 659.94L1103.97 675.33L1106.02 677.38zM1099.87 676.35 a5.13 5.13 0 1 0 10.26 0 a5.13 5.13 0 1 0 -10.26 0zM1108.94 644.35L1107.83 641.67L1083.42 651.78L1084.53 654.46zM1078.84 653.12 a5.13 5.13 0 1 0 10.26 0 a5.13 5.13 0 1 0 -10.26 0zM1104.17 623.28L1104.17 620.38L1076.99 620.38L1076.99 623.28zM1071.86 621.83 a5.13 5.13 0 1 0 10.26 0 a5.13 5.13 0 1 0 -10.26 0zM1107.83 601.98L1108.94 599.3L1095.26 593.64L1094.15 596.31zM1089.57 594.98 a5.13 5.13 0 1 0 10.26 0 a5.13 5.13 0 1 0 -10.26 0zM1119.36 583.71L1121.41 581.66L1106.95 567.2L1104.9 569.25zM1100.79 568.22 a5.13 5.13 0 1 0 10.26 0 a5.13 5.13 0 1 0 -10.26 0zM1137 571.24L1139.68 570.13L1136.98 563.61L1134.3 564.72zM1130.51 564.16 a5.13 5.13 0 1 0 10.26 0 a5.13 5.13 0 1 0 -10.26 0zM1158.07 566.47L1160.97 566.47L1160.97 546.53L1158.07 546.53zM1154.39 546.53 a5.13 5.13 0 1 0 10.26 0 a5.13 5.13 0 1 0 -10.26 0zM1179.37 570.13L1182.05 571.24L1188.44 555.8L1185.76 554.69zM1181.97 555.25 a5.13 5.13 0 1 0 10.26 0 a5.13 5.13 0 1 0 -10.26 0zM1197.64 581.66L1199.69 583.71L1211.94 571.46L1209.89 569.41zM1205.78 570.44 a5.13 5.13 0 1 0 10.26 0 a5.13 5.13 0 1 0 -10.26 0zM1210.11 599.3L1211.22 601.98L1236.11 591.67L1235 588.99zM1230.42 590.33 a5.13 5.13 0 1 0 10.26 0 a5.13 5.13 0 1 0 -10.26 0zM1104.15 621.83 a55.37 55.37 0 1 0 110.74 0 a55.37 55.37 0 1 0 -110.74 0z" fill="rgba(0, 0, 0, 0.12)"></path><path d="M1207.69 594.51 A54.3728 54.3728 0 0 1 1159.21 677.2M1159.21 677.2 A110.7456 110.7456 0 0 0 1207.69 594.51" fill="rgba(0, 0, 0, 0.12)" fill-rule="nonzero"></path><path d="M1161.15 659.38 a11.07 11.07 0 1 0 22.14 0 a11.07 11.07 0 1 0 -22.14 0zM1129.97 646.3 a11.07 11.07 0 1 0 22.14 0 a11.07 11.07 0 1 0 -22.14 0zM1165.13 630.79 a6.09 6.09 0 1 0 12.18 0 a6.09 6.09 0 1 0 -12.18 0zM1144.52 671.24 a3.32 3.32 0 1 0 6.64 0 a3.32 3.32 0 1 0 -6.64 0zM1115.45 591.43 a7.75 7.75 0 1 0 15.5 0 a7.75 7.75 0 1 0 -15.5 0zM1118.75 612.72 a2.21 2.21 0 1 0 4.42 0 a2.21 2.21 0 1 0 -4.42 0zM1155.59 580.18 a11.07 11.07 0 1 0 22.14 0 a11.07 11.07 0 1 0 -22.14 0zM1180.52 608.37 a11.07 11.07 0 1 0 22.14 0 a11.07 11.07 0 1 0 -22.14 0zM1146.24 616.83 a6.09 6.09 0 1 0 12.18 0 a6.09 6.09 0 1 0 -12.18 0zM1208.17 630.57 a2.77 2.77 0 1 0 5.54 0 a2.77 2.77 0 1 0 -5.54 0z" fill="rgba(0, 0, 0, 0.12)" fill-rule="nonzero"></path><path d="M1155.08 369.26L1155.08 371.75L1164.13 371.75L1164.13 369.26zM1159.73 370.5 a4.4 4.4 0 1 0 8.8 0 a4.4 4.4 0 1 0 -8.8 0zM1151.94 387.51L1150.99 389.81L1156.47 392.08L1157.42 389.78zM1152.55 390.93 a4.4 4.4 0 1 0 8.8 0 a4.4 4.4 0 1 0 -8.8 0zM1142.06 403.17L1140.3 404.93L1156.45 421.07L1158.2 419.32zM1152.93 420.2 a4.4 4.4 0 1 0 8.8 0 a4.4 4.4 0 1 0 -8.8 0zM1126.94 413.86L1124.64 414.81L1132.81 434.53L1135.1 433.58zM1129.56 434.05 a4.4 4.4 0 1 0 8.8 0 a4.4 4.4 0 1 0 -8.8 0zM1108.88 417.95L1106.39 417.95L1106.39 440.09L1108.88 440.09zM1103.23 440.09 a4.4 4.4 0 1 0 8.8 0 a4.4 4.4 0 1 0 -8.8 0zM1090.62 414.81L1088.33 413.86L1079.7 434.69L1082 435.64zM1076.45 435.16 a4.4 4.4 0 1 0 8.8 0 a4.4 4.4 0 1 0 -8.8 0zM1074.96 404.93L1073.21 403.17L1063.91 412.47L1065.66 414.23zM1060.39 413.35 a4.4 4.4 0 1 0 8.8 0 a4.4 4.4 0 1 0 -8.8 0zM1064.27 389.81L1063.32 387.51L1044.86 395.16L1045.81 397.46zM1040.93 396.31 a4.4 4.4 0 1 0 8.8 0 a4.4 4.4 0 1 0 -8.8 0zM1060.19 371.75L1060.19 369.26L1041.9 369.26L1041.9 371.75zM1037.5 370.5 a4.4 4.4 0 1 0 8.8 0 a4.4 4.4 0 1 0 -8.8 0zM1063.32 353.49L1064.27 351.2L1043.56 342.62L1042.61 344.91zM1038.69 343.77 a4.4 4.4 0 1 0 8.8 0 a4.4 4.4 0 1 0 -8.8 0zM1073.21 337.83L1074.96 336.07L1070.42 331.54L1068.67 333.29zM1065.14 332.41 a4.4 4.4 0 1 0 8.8 0 a4.4 4.4 0 1 0 -8.8 0zM1088.33 327.14L1090.62 326.19L1088.08 320.05L1085.78 321zM1082.53 320.52 a4.4 4.4 0 1 0 8.8 0 a4.4 4.4 0 1 0 -8.8 0zM1106.39 323.06L1108.88 323.06L1108.88 315.28L1106.39 315.28zM1103.23 315.28 a4.4 4.4 0 1 0 8.8 0 a4.4 4.4 0 1 0 -8.8 0zM1124.64 326.19L1126.94 327.14L1129.4 321.21L1127.1 320.26zM1123.85 320.74 a4.4 4.4 0 1 0 8.8 0 a4.4 4.4 0 1 0 -8.8 0zM1140.3 336.07L1142.06 337.83L1156.54 323.36L1154.78 321.6zM1151.26 322.48 a4.4 4.4 0 1 0 8.8 0 a4.4 4.4 0 1 0 -8.8 0zM1150.99 351.2L1151.94 353.49L1162.08 349.3L1161.13 347zM1157.2 348.15 a4.4 4.4 0 1 0 8.8 0 a4.4 4.4 0 1 0 -8.8 0zM1060.17 370.5 a47.46 47.46 0 1 0 94.92 0 a47.46 47.46 0 1 0 -94.92 0z" fill="rgba(0, 0, 0, 0.12)"></path><path d="M1096.59 416.66 A46.462399999999995 46.462399999999995 0 0 1 1073.11 337.93M1073.11 337.93 A94.92479999999999 94.92479999999999 0 0 0 1096.59 416.66" fill="rgba(0, 0, 0, 0.12)" fill-rule="nonzero"></path><path d="M1082.07 384 a9.49 9.49 0 1 0 18.98 0 a9.49 9.49 0 1 0 -18.98 0zM1112.2 389.95 a9.49 9.49 0 1 0 18.98 0 a9.49 9.49 0 1 0 -18.98 0zM1091.38 340.46 a9.49 9.49 0 1 0 18.98 0 a9.49 9.49 0 1 0 -18.98 0zM1107.77 369.09 a3.8 3.8 0 1 0 7.6 0 a3.8 3.8 0 1 0 -7.6 0zM1076.63 346.12 a2.85 2.85 0 1 0 5.7 0 a2.85 2.85 0 1 0 -5.7 0zM1063.77 364.55 a7.59 7.59 0 1 0 15.18 0 a7.59 7.59 0 1 0 -15.18 0zM1116.61 326.9 a2.37 2.37 0 1 0 4.74 0 a2.37 2.37 0 1 0 -4.74 0zM1106.35 411.47 a4.75 4.75 0 1 0 9.5 0 a4.75 4.75 0 1 0 -9.5 0zM1126.18 339.36 a6.64 6.64 0 1 0 13.28 0 a6.64 6.64 0 1 0 -13.28 0zM1138.19 378.5 a4.75 4.75 0 1 0 9.5 0 a4.75 4.75 0 1 0 -9.5 0z" fill="rgba(0, 0, 0, 0.12)" fill-rule="nonzero"></path><path d="M150.17 118.22L150.17 121.12L159.92 121.12L159.92 118.22zM154.79 119.67 a5.13 5.13 0 1 0 10.26 0 a5.13 5.13 0 1 0 -10.26 0zM146.52 139.52L145.41 142.2L159.1 147.87L160.21 145.19zM154.52 146.53 a5.13 5.13 0 1 0 10.26 0 a5.13 5.13 0 1 0 -10.26 0zM134.99 157.79L132.94 159.84L139.27 166.17L141.32 164.12zM135.16 165.14 a5.13 5.13 0 1 0 10.26 0 a5.13 5.13 0 1 0 -10.26 0zM117.34 170.26L114.66 171.37L123 191.5L125.68 190.39zM119.21 190.95 a5.13 5.13 0 1 0 10.26 0 a5.13 5.13 0 1 0 -10.26 0zM96.27 175.03L93.37 175.03L93.37 194.7L96.27 194.7zM89.69 194.7 a5.13 5.13 0 1 0 10.26 0 a5.13 5.13 0 1 0 -10.26 0zM74.98 171.37L72.3 170.26L62.34 194.29L65.02 195.4zM58.55 194.84 a5.13 5.13 0 1 0 10.26 0 a5.13 5.13 0 1 0 -10.26 0zM56.7 159.84L54.65 157.79L37.8 174.64L39.85 176.69zM33.7 175.66 a5.13 5.13 0 1 0 10.26 0 a5.13 5.13 0 1 0 -10.26 0zM44.23 142.2L43.13 139.52L24.36 147.29L25.47 149.97zM19.79 148.63 a5.13 5.13 0 1 0 10.26 0 a5.13 5.13 0 1 0 -10.26 0zM39.47 121.12L39.47 118.22L31.4 118.22L31.4 121.12zM26.27 119.67 a5.13 5.13 0 1 0 10.26 0 a5.13 5.13 0 1 0 -10.26 0zM43.13 99.83L44.23 97.15L23.44 88.54L22.33 91.22zM17.75 89.88 a5.13 5.13 0 1 0 10.26 0 a5.13 5.13 0 1 0 -10.26 0zM54.65 81.56L56.7 79.51L44.5 67.3L42.45 69.35zM38.34 68.33 a5.13 5.13 0 1 0 10.26 0 a5.13 5.13 0 1 0 -10.26 0zM72.3 69.09L74.98 67.98L71.27 59.04L68.59 60.14zM64.8 59.59 a5.13 5.13 0 1 0 10.26 0 a5.13 5.13 0 1 0 -10.26 0zM93.37 64.32L96.27 64.32L96.27 47.75L93.37 47.75zM89.69 47.75 a5.13 5.13 0 1 0 10.26 0 a5.13 5.13 0 1 0 -10.26 0zM114.66 67.98L117.34 69.09L123.38 54.51L120.7 53.4zM116.91 53.95 a5.13 5.13 0 1 0 10.26 0 a5.13 5.13 0 1 0 -10.26 0zM132.94 79.51L134.99 81.56L142.56 73.98L140.51 71.93zM136.4 72.96 a5.13 5.13 0 1 0 10.26 0 a5.13 5.13 0 1 0 -10.26 0zM145.41 97.15L146.52 99.83L161.49 93.63L160.38 90.95zM155.81 92.29 a5.13 5.13 0 1 0 10.26 0 a5.13 5.13 0 1 0 -10.26 0zM39.45 119.67 a55.37 55.37 0 1 0 110.74 0 a55.37 55.37 0 1 0 -110.74 0z" fill="rgba(0, 0, 0, 0.12)"></path><path d="M43.3 99.37 A54.3728 54.3728 0 0 1 138.09 85.12M138.09 85.12 A110.7456 110.7456 0 0 0 43.3 99.37" fill="rgba(0, 0, 0, 0.12)" fill-rule="nonzero"></path><path d="M56.31 107.11 a11.07 11.07 0 1 0 22.14 0 a11.07 11.07 0 1 0 -22.14 0zM133.37 87.84 a2.77 2.77 0 1 0 5.54 0 a2.77 2.77 0 1 0 -5.54 0zM98.96 114.98 a11.07 11.07 0 1 0 22.14 0 a11.07 11.07 0 1 0 -22.14 0zM85.15 78.97 a11.07 11.07 0 1 0 22.14 0 a11.07 11.07 0 1 0 -22.14 0zM94.23 169.14 a5.54 5.54 0 1 0 11.08 0 a5.54 5.54 0 1 0 -11.08 0zM63.86 163.83 a2.21 2.21 0 1 0 4.42 0 a2.21 2.21 0 1 0 -4.42 0zM42.98 136.7 a7.2 7.2 0 1 0 14.4 0 a7.2 7.2 0 1 0 -14.4 0zM134.69 127.58 a7.2 7.2 0 1 0 14.4 0 a7.2 7.2 0 1 0 -14.4 0zM74.3 140.02 a11.07 11.07 0 1 0 22.14 0 a11.07 11.07 0 1 0 -22.14 0zM123.28 146.6 a4.98 4.98 0 1 0 9.96 0 a4.98 4.98 0 1 0 -9.96 0z" fill="rgba(0, 0, 0, 0.12)" fill-rule="nonzero"></path></g><defs><mask id="SvgjsMask1020"><rect width="1280" height="720" fill="#ffffff"></rect></mask></defs></svg>