<svg xmlns="http://www.w3.org/2000/svg" version="1.1" xmlns:xlink="http://www.w3.org/1999/xlink" xmlns:svgjs="http://svgjs.com/svgjs" width="1280" height="720" preserveAspectRatio="none" viewBox="0 0 1280 720"><g mask="url(&quot;#SvgjsMask1047&quot;)" fill="none"><path d="M -257.98029237487947,616 C -193.98,564.2 -65.98,373.8 62.019707625120546,357 C 190.02,340.2 254.02,566 382.01970762512053,532 C 510.02,498 574.02,174 702.0197076251205,187 C 830.02,200 894.02,612 1022.0197076251205,597 C 1150.02,582 1290.42,119.2 1342.0197076251206,112 C 1393.62,104.8 1292.4,471.2 1280,561" stroke="rgba(255, 255, 255, 0.28)" stroke-width="2"></path><path d="M -639.9662705614026,96 C -575.97,184.6 -447.97,494 -319.9662705614025,539 C -191.97,584 -127.97,355.2 0.03372943859750421,321 C 128.03,286.8 192.03,405.6 320.0337294385975,368 C 448.03,330.4 512.03,84.4 640.0337294385974,133 C 768.03,181.6 832.04,619.4 960.0337294385974,611 C 1088.03,602.6 1216.01,195 1280,91" stroke="rgba(255, 255, 255, 0.28)" stroke-width="2"></path><path d="M -596.6819333541275,283 C -532.68,308.6 -404.68,405.6 -276.6819333541275,411 C -148.68,416.4 -84.68,304.2 43.31806664587248,310 C 171.32,315.8 235.32,453 363.3180666458725,440 C 491.32,427 555.32,235.6 683.3180666458725,245 C 811.32,254.4 883.98,499.6 1003.3180666458725,487 C 1122.65,474.4 1224.66,243 1280,182" stroke="rgba(255, 255, 255, 0.28)" stroke-width="2"></path><path d="M -73.79099276660426,83 C -9.79,162 118.21,448 246.20900723339574,478 C 374.21,508 438.21,228.6 566.2090072333957,233 C 694.21,237.4 758.21,520.4 886.2090072333957,500 C 1014.21,479.6 1078.21,108.2 1206.2090072333958,131 C 1334.21,153.8 1511.45,601.8 1526.2090072333958,614 C 1540.97,626.2 1329.24,276.4 1280,192" stroke="rgba(255, 255, 255, 0.28)" stroke-width="2"></path></g><defs><mask id="SvgjsMask1047"><rect width="1280" height="720" fill="#ffffff"></rect></mask></defs></svg>