<svg xmlns="http://www.w3.org/2000/svg" version="1.1" xmlns:xlink="http://www.w3.org/1999/xlink" xmlns:svgjs="http://svgjs.com/svgjs" width="1280" height="720" preserveAspectRatio="none" viewBox="0 0 1280 720"><g mask="url(&quot;#SvgjsMask1321&quot;)" fill="none"><use xlink:href="#SvgjsG1329" transform="translate(0, 0)" fill="rgba(255, 255, 255, 0.34)"></use><use xlink:href="#SvgjsG1329" transform="translate(0, 576)" fill="rgba(255, 255, 255, 0.34)"></use><use xlink:href="#SvgjsG1329" transform="translate(576, 0)" fill="rgba(255, 255, 255, 0.34)"></use><use xlink:href="#SvgjsG1329" transform="translate(576, 576)" fill="rgba(255, 255, 255, 0.34)"></use><use xlink:href="#SvgjsG1329" transform="translate(1152, 0)" fill="rgba(255, 255, 255, 0.34)"></use><use xlink:href="#SvgjsG1329" transform="translate(1152, 576)" fill="rgba(255, 255, 255, 0.34)"></use></g><defs><mask id="SvgjsMask1321"><rect width="1280" height="720" fill="#ffffff"></rect></mask><g id="SvgjsG1326"><path d="M1.12 8.836c1.001-1.179 2.827-2.005 4.388-1.743 0.174-2.151-0.071-4.156 1-6.133C3.189 1.173 1.648 6.247 1.12 8.836M12.892 5.07c0.697-0.83 2.347-1.253 3.213-0.476C13.849 1.44 11.058-0.583 7.086 0.764c3.102 0.942 5.276 3.84 5.805 4.306"></path><path d="M12.267 5.198C11.182 3.684 7.769 1.266 7.019 1.417c-0.8 0.16-1.022 4.702-0.95 5.676 0.475-0.892 1.202-1.564 2.045-1.984l3.461 9.423 0.475-0.12-3.494-9.493c1.156-0.427 2.484-0.391 3.712 0.279"></path></g><g id="SvgjsG1327"><path d="M7.45 12.652S6.4 11.121 3.725 11.121C1.274 11.121 0 11.833 0 11.833V1.937s1.274-0.712 3.725-0.729C6.4 1.19 7.45 2.756 7.45 2.756V12.652z m1.087 0s1.05-1.531 3.725-1.531c2.451 0 3.725 0.712 3.725 0.713V1.937s-1.274-0.712-3.725-0.729c-2.675-0.017-3.725 1.548-3.725 1.548v9.896z"></path><path d="M8.012 15.733S6.4 13.411 3.725 13.411c-2.451 0-3.725 0.712-3.725 0.712v-1.186s1.274-0.712 3.725-0.729c2.675-0.018 4.287 2.34 4.287 2.34V15.733z m0 0s1.612-2.323 4.287-2.323c2.451 0 3.725 0.712 3.725 0.712v-1.185s-1.274-0.712-3.725-0.729c-2.675-0.019-4.287 2.339-4.287 2.339v1.185z"></path></g><g id="SvgjsG1323"><path d="M1.507 0.867v14.666h12.877V0.867h-12.878z m3.76 12.876H3.087V11.564H5.267v2.179z m0-3.328H3.087V8.236H5.267v2.179z m3.768 3.328H6.856V11.564h2.179v2.179z m0-3.328H6.856V8.236h2.179v2.179z m3.775 3.328H10.631v-5.507h2.179v5.507z m0.08-7.65h-9.78V2.602h9.78V6.093z"></path></g><g id="SvgjsG1324"><path d="M7.713 15.485C3.459 15.485 0 12.025 0 7.768 0 3.513 3.459 0.051 7.713 0.051S15.432 3.513 15.432 7.768c0 4.257-3.465 7.716-7.719 7.717z m0-1.91c3.201 0 5.81-2.604 5.81-5.809 0-3.199-2.61-5.807-5.81-5.807-3.202 0-5.804 2.609-5.804 5.807-0.001 3.206 2.602 5.809 5.804 5.809z"></path><path d="M7.753 8.787a0.574 0.574 0 0 1-0.554-0.042 0.578 0.578 0 0 1-0.259-0.399L6.931 3.862a0.58 0.58 0 0 1 1.162 0v3.478l2.975-1.4a0.578 0.578 0 0 1 0.773 0.275c0.138 0.292 0.011 0.637-0.276 0.774l-3.81 1.798z"></path></g><g id="SvgjsG1322"><path d="M6.846 8.046l0.633 0.934h1.178l0.544-0.934-0.573-0.995h-1.181l-0.601 0.995zM7.331 15.562V13.449l-1.181 0.664-0.601-0.345V13.024l1.751-0.995V10.64l-1.271 0.816v-1.471l-1.214 0.7v1.994l-0.664 0.412-0.561-0.372V11.382L1.747 12.422 0.96 12.091V11.248l1.934-1.058-1.21-0.608v-0.771l0.687-0.376 1.735 1.022 1.206-0.696-0.03-0.022-1.232-0.707 1.197-0.742-1.201-0.696L2.311 7.614l-0.651-0.324v-0.769l1.174-0.66L0.96 4.844v-0.844l0.72-0.371 1.847 1.067v-1.36l0.557-0.375 0.682 0.393-0.004 2.035 1.241 0.709-0.005-1.438 1.301 0.7v-1.388L5.549 2.974v-0.738l0.601-0.348 1.181 0.664V0.443L8.006 0l0.682 0.443v2.109l1.224-0.678 0.615 0.407v0.664L8.715 3.972v1.388l1.239-0.755v1.511l1.277-0.696v-2.176l0.615-0.286 0.646 0.286v1.392l1.901-1.027 0.664 0.405v0.787l-1.856 1.055 1.161 0.651v0.751L13.76 7.592l-1.782-1.053-1.232 0.782 1.192 0.743-1.228 0.706 1.268 0.664L13.76 8.439l0.572 0.405v0.718L13.214 10.19l1.781 1.058v0.83l-0.754 0.344-1.749-0.995v1.317l-0.628 0.351-0.615-0.351V10.745l-1.295-0.737v1.388L8.715 10.64v1.389L10.466 13.024v0.787l-0.605 0.302-1.173-0.664v2.113L8.006 16l-0.675-0.438z"></path></g><g id="SvgjsG1328"><path d="M7.867 14.689a9.978 9.978 0 0 0-1.863-6.862A9.989 9.989 0 0 0 0.059 3.924 9.973 9.973 0 0 0 1.92 10.788a9.979 9.979 0 0 0 5.947 3.902z m-0.971-7.508a11.292 11.292 0 0 1 1 1.675 11.329 11.329 0 0 1 0.996-1.675 11.095 11.095 0 0 1 1.477-1.65A9.969 9.969 0 0 0 7.914 0a9.977 9.977 0 0 0-2.456 5.564 11.227 11.227 0 0 1 1.438 1.617z m8.833-3.258a9.988 9.988 0 0 0-5.945 3.904 10.058 10.058 0 0 0-1.314 2.479 11.075 11.075 0 0 1 0.513 4.081 9.966 9.966 0 0 0 4.886-3.599A9.973 9.973 0 0 0 15.729 3.924z" fill-rule="evenodd"></path></g><g id="SvgjsG1325"><path d="M3.755 2.315h2.494v11.128h-2.494zM13.507 0.537H16v11.261h-2.493z"></path><path d="M4.451 5.556l-0.696-3.24L16 0v3.167z"></path><path d="M0 13.443a3.124 2.606 0 1 0 6.249 0 3.124 2.606 0 1 0-6.249 0"></path><path d="M9.751 11.798a3.124 2.606 0 1 0 6.249 0 3.124 2.606 0 1 0-6.249 0"></path></g><g id="SvgjsG1329"><use xlink:href="#SvgjsG1322" transform="translate(0, 0) scale(1.8)" fill="rgba(255, 255, 255, 0.34)"></use><use xlink:href="#SvgjsG1323" transform="translate(0, 57.6) scale(1.8)" fill="rgba(255, 255, 255, 0.34)"></use><use xlink:href="#SvgjsG1323" transform="translate(0, 115.2) scale(1.8)" fill="rgba(255, 255, 255, 0.34)"></use><use xlink:href="#SvgjsG1324" transform="translate(0, 172.8) scale(1.8)" fill="rgba(255, 255, 255, 0.34)"></use><use xlink:href="#SvgjsG1324" transform="translate(0, 230.4) scale(1.8)" fill="rgba(255, 255, 255, 0.34)"></use><use xlink:href="#SvgjsG1325" transform="translate(0, 288) scale(1.8)" fill="rgba(255, 255, 255, 0.34)"></use><use xlink:href="#SvgjsG1326" transform="translate(0, 345.6) scale(1.8)" fill="rgba(255, 255, 255, 0.34)"></use><use xlink:href="#SvgjsG1322" transform="translate(0, 403.2) scale(1.8)" fill="rgba(255, 255, 255, 0.34)"></use><use xlink:href="#SvgjsG1327" transform="translate(0, 460.8) scale(1.8)" fill="rgba(255, 255, 255, 0.34)"></use><use xlink:href="#SvgjsG1328" transform="translate(0, 518.4) scale(1.8)" fill="rgba(255, 255, 255, 0.34)"></use><use xlink:href="#SvgjsG1326" transform="translate(57.6, 0) scale(1.8)" fill="rgba(255, 255, 255, 0.34)"></use><use xlink:href="#SvgjsG1322" transform="translate(57.6, 57.6) scale(1.8)" fill="rgba(255, 255, 255, 0.34)"></use><use xlink:href="#SvgjsG1328" transform="translate(57.6, 115.2) scale(1.8)" fill="rgba(255, 255, 255, 0.34)"></use><use xlink:href="#SvgjsG1327" transform="translate(57.6, 172.8) scale(1.8)" fill="rgba(255, 255, 255, 0.34)"></use><use xlink:href="#SvgjsG1327" transform="translate(57.6, 230.4) scale(1.8)" fill="rgba(255, 255, 255, 0.34)"></use><use xlink:href="#SvgjsG1326" transform="translate(57.6, 288) scale(1.8)" fill="rgba(255, 255, 255, 0.34)"></use><use xlink:href="#SvgjsG1322" transform="translate(57.6, 345.6) scale(1.8)" fill="rgba(255, 255, 255, 0.34)"></use><use xlink:href="#SvgjsG1327" transform="translate(57.6, 403.2) scale(1.8)" fill="rgba(255, 255, 255, 0.34)"></use><use xlink:href="#SvgjsG1324" transform="translate(57.6, 460.8) scale(1.8)" fill="rgba(255, 255, 255, 0.34)"></use><use xlink:href="#SvgjsG1327" transform="translate(57.6, 518.4) scale(1.8)" fill="rgba(255, 255, 255, 0.34)"></use><use xlink:href="#SvgjsG1325" transform="translate(115.2, 0) scale(1.8)" fill="rgba(255, 255, 255, 0.34)"></use><use xlink:href="#SvgjsG1328" transform="translate(115.2, 57.6) scale(1.8)" fill="rgba(255, 255, 255, 0.34)"></use><use xlink:href="#SvgjsG1328" transform="translate(115.2, 115.2) scale(1.8)" fill="rgba(255, 255, 255, 0.34)"></use><use xlink:href="#SvgjsG1324" transform="translate(115.2, 172.8) scale(1.8)" fill="rgba(255, 255, 255, 0.34)"></use><use xlink:href="#SvgjsG1325" transform="translate(115.2, 230.4) scale(1.8)" fill="rgba(255, 255, 255, 0.34)"></use><use xlink:href="#SvgjsG1326" transform="translate(115.2, 288) scale(1.8)" fill="rgba(255, 255, 255, 0.34)"></use><use xlink:href="#SvgjsG1325" transform="translate(115.2, 345.6) scale(1.8)" fill="rgba(255, 255, 255, 0.34)"></use><use xlink:href="#SvgjsG1328" transform="translate(115.2, 403.2) scale(1.8)" fill="rgba(255, 255, 255, 0.34)"></use><use xlink:href="#SvgjsG1328" transform="translate(115.2, 460.8) scale(1.8)" fill="rgba(255, 255, 255, 0.34)"></use><use xlink:href="#SvgjsG1323" transform="translate(115.2, 518.4) scale(1.8)" fill="rgba(255, 255, 255, 0.34)"></use><use xlink:href="#SvgjsG1328" transform="translate(172.8, 0) scale(1.8)" fill="rgba(255, 255, 255, 0.34)"></use><use xlink:href="#SvgjsG1322" transform="translate(172.8, 57.6) scale(1.8)" fill="rgba(255, 255, 255, 0.34)"></use><use xlink:href="#SvgjsG1326" transform="translate(172.8, 115.2) scale(1.8)" fill="rgba(255, 255, 255, 0.34)"></use><use xlink:href="#SvgjsG1324" transform="translate(172.8, 172.8) scale(1.8)" fill="rgba(255, 255, 255, 0.34)"></use><use xlink:href="#SvgjsG1328" transform="translate(172.8, 230.4) scale(1.8)" fill="rgba(255, 255, 255, 0.34)"></use><use xlink:href="#SvgjsG1322" transform="translate(172.8, 288) scale(1.8)" fill="rgba(255, 255, 255, 0.34)"></use><use xlink:href="#SvgjsG1328" transform="translate(172.8, 345.6) scale(1.8)" fill="rgba(255, 255, 255, 0.34)"></use><use xlink:href="#SvgjsG1326" transform="translate(172.8, 403.2) scale(1.8)" fill="rgba(255, 255, 255, 0.34)"></use><use xlink:href="#SvgjsG1327" transform="translate(172.8, 460.8) scale(1.8)" fill="rgba(255, 255, 255, 0.34)"></use><use xlink:href="#SvgjsG1326" transform="translate(172.8, 518.4) scale(1.8)" fill="rgba(255, 255, 255, 0.34)"></use><use xlink:href="#SvgjsG1328" transform="translate(230.4, 0) scale(1.8)" fill="rgba(255, 255, 255, 0.34)"></use><use xlink:href="#SvgjsG1326" transform="translate(230.4, 57.6) scale(1.8)" fill="rgba(255, 255, 255, 0.34)"></use><use xlink:href="#SvgjsG1326" transform="translate(230.4, 115.2) scale(1.8)" fill="rgba(255, 255, 255, 0.34)"></use><use xlink:href="#SvgjsG1328" transform="translate(230.4, 172.8) scale(1.8)" fill="rgba(255, 255, 255, 0.34)"></use><use xlink:href="#SvgjsG1328" transform="translate(230.4, 230.4) scale(1.8)" fill="rgba(255, 255, 255, 0.34)"></use><use xlink:href="#SvgjsG1328" transform="translate(230.4, 288) scale(1.8)" fill="rgba(255, 255, 255, 0.34)"></use><use xlink:href="#SvgjsG1324" transform="translate(230.4, 345.6) scale(1.8)" fill="rgba(255, 255, 255, 0.34)"></use><use xlink:href="#SvgjsG1326" transform="translate(230.4, 403.2) scale(1.8)" fill="rgba(255, 255, 255, 0.34)"></use><use xlink:href="#SvgjsG1322" transform="translate(230.4, 460.8) scale(1.8)" fill="rgba(255, 255, 255, 0.34)"></use><use xlink:href="#SvgjsG1323" transform="translate(230.4, 518.4) scale(1.8)" fill="rgba(255, 255, 255, 0.34)"></use><use xlink:href="#SvgjsG1327" transform="translate(288, 0) scale(1.8)" fill="rgba(255, 255, 255, 0.34)"></use><use xlink:href="#SvgjsG1322" transform="translate(288, 57.6) scale(1.8)" fill="rgba(255, 255, 255, 0.34)"></use><use xlink:href="#SvgjsG1326" transform="translate(288, 115.2) scale(1.8)" fill="rgba(255, 255, 255, 0.34)"></use><use xlink:href="#SvgjsG1327" transform="translate(288, 172.8) scale(1.8)" fill="rgba(255, 255, 255, 0.34)"></use><use xlink:href="#SvgjsG1324" transform="translate(288, 230.4) scale(1.8)" fill="rgba(255, 255, 255, 0.34)"></use><use xlink:href="#SvgjsG1322" transform="translate(288, 288) scale(1.8)" fill="rgba(255, 255, 255, 0.34)"></use><use xlink:href="#SvgjsG1323" transform="translate(288, 345.6) scale(1.8)" fill="rgba(255, 255, 255, 0.34)"></use><use xlink:href="#SvgjsG1323" transform="translate(288, 403.2) scale(1.8)" fill="rgba(255, 255, 255, 0.34)"></use><use xlink:href="#SvgjsG1325" transform="translate(288, 460.8) scale(1.8)" fill="rgba(255, 255, 255, 0.34)"></use><use xlink:href="#SvgjsG1322" transform="translate(288, 518.4) scale(1.8)" fill="rgba(255, 255, 255, 0.34)"></use><use xlink:href="#SvgjsG1325" transform="translate(345.6, 0) scale(1.8)" fill="rgba(255, 255, 255, 0.34)"></use><use xlink:href="#SvgjsG1323" transform="translate(345.6, 57.6) scale(1.8)" fill="rgba(255, 255, 255, 0.34)"></use><use xlink:href="#SvgjsG1322" transform="translate(345.6, 115.2) scale(1.8)" fill="rgba(255, 255, 255, 0.34)"></use><use xlink:href="#SvgjsG1323" transform="translate(345.6, 172.8) scale(1.8)" fill="rgba(255, 255, 255, 0.34)"></use><use xlink:href="#SvgjsG1325" transform="translate(345.6, 230.4) scale(1.8)" fill="rgba(255, 255, 255, 0.34)"></use><use xlink:href="#SvgjsG1328" transform="translate(345.6, 288) scale(1.8)" fill="rgba(255, 255, 255, 0.34)"></use><use xlink:href="#SvgjsG1328" transform="translate(345.6, 345.6) scale(1.8)" fill="rgba(255, 255, 255, 0.34)"></use><use xlink:href="#SvgjsG1323" transform="translate(345.6, 403.2) scale(1.8)" fill="rgba(255, 255, 255, 0.34)"></use><use xlink:href="#SvgjsG1328" transform="translate(345.6, 460.8) scale(1.8)" fill="rgba(255, 255, 255, 0.34)"></use><use xlink:href="#SvgjsG1323" transform="translate(345.6, 518.4) scale(1.8)" fill="rgba(255, 255, 255, 0.34)"></use><use xlink:href="#SvgjsG1325" transform="translate(403.2, 0) scale(1.8)" fill="rgba(255, 255, 255, 0.34)"></use><use xlink:href="#SvgjsG1325" transform="translate(403.2, 57.6) scale(1.8)" fill="rgba(255, 255, 255, 0.34)"></use><use xlink:href="#SvgjsG1323" transform="translate(403.2, 115.2) scale(1.8)" fill="rgba(255, 255, 255, 0.34)"></use><use xlink:href="#SvgjsG1324" transform="translate(403.2, 172.8) scale(1.8)" fill="rgba(255, 255, 255, 0.34)"></use><use xlink:href="#SvgjsG1326" transform="translate(403.2, 230.4) scale(1.8)" fill="rgba(255, 255, 255, 0.34)"></use><use xlink:href="#SvgjsG1327" transform="translate(403.2, 288) scale(1.8)" fill="rgba(255, 255, 255, 0.34)"></use><use xlink:href="#SvgjsG1327" transform="translate(403.2, 345.6) scale(1.8)" fill="rgba(255, 255, 255, 0.34)"></use><use xlink:href="#SvgjsG1322" transform="translate(403.2, 403.2) scale(1.8)" fill="rgba(255, 255, 255, 0.34)"></use><use xlink:href="#SvgjsG1326" transform="translate(403.2, 460.8) scale(1.8)" fill="rgba(255, 255, 255, 0.34)"></use><use xlink:href="#SvgjsG1325" transform="translate(403.2, 518.4) scale(1.8)" fill="rgba(255, 255, 255, 0.34)"></use><use xlink:href="#SvgjsG1322" transform="translate(460.8, 0) scale(1.8)" fill="rgba(255, 255, 255, 0.34)"></use><use xlink:href="#SvgjsG1326" transform="translate(460.8, 57.6) scale(1.8)" fill="rgba(255, 255, 255, 0.34)"></use><use xlink:href="#SvgjsG1326" transform="translate(460.8, 115.2) scale(1.8)" fill="rgba(255, 255, 255, 0.34)"></use><use xlink:href="#SvgjsG1323" transform="translate(460.8, 172.8) scale(1.8)" fill="rgba(255, 255, 255, 0.34)"></use><use xlink:href="#SvgjsG1327" transform="translate(460.8, 230.4) scale(1.8)" fill="rgba(255, 255, 255, 0.34)"></use><use xlink:href="#SvgjsG1326" transform="translate(460.8, 288) scale(1.8)" fill="rgba(255, 255, 255, 0.34)"></use><use xlink:href="#SvgjsG1326" transform="translate(460.8, 345.6) scale(1.8)" fill="rgba(255, 255, 255, 0.34)"></use><use xlink:href="#SvgjsG1322" transform="translate(460.8, 403.2) scale(1.8)" fill="rgba(255, 255, 255, 0.34)"></use><use xlink:href="#SvgjsG1322" transform="translate(460.8, 460.8) scale(1.8)" fill="rgba(255, 255, 255, 0.34)"></use><use xlink:href="#SvgjsG1324" transform="translate(460.8, 518.4) scale(1.8)" fill="rgba(255, 255, 255, 0.34)"></use><use xlink:href="#SvgjsG1325" transform="translate(518.4, 0) scale(1.8)" fill="rgba(255, 255, 255, 0.34)"></use><use xlink:href="#SvgjsG1323" transform="translate(518.4, 57.6) scale(1.8)" fill="rgba(255, 255, 255, 0.34)"></use><use xlink:href="#SvgjsG1326" transform="translate(518.4, 115.2) scale(1.8)" fill="rgba(255, 255, 255, 0.34)"></use><use xlink:href="#SvgjsG1325" transform="translate(518.4, 172.8) scale(1.8)" fill="rgba(255, 255, 255, 0.34)"></use><use xlink:href="#SvgjsG1324" transform="translate(518.4, 230.4) scale(1.8)" fill="rgba(255, 255, 255, 0.34)"></use><use xlink:href="#SvgjsG1327" transform="translate(518.4, 288) scale(1.8)" fill="rgba(255, 255, 255, 0.34)"></use><use xlink:href="#SvgjsG1326" transform="translate(518.4, 345.6) scale(1.8)" fill="rgba(255, 255, 255, 0.34)"></use><use xlink:href="#SvgjsG1327" transform="translate(518.4, 403.2) scale(1.8)" fill="rgba(255, 255, 255, 0.34)"></use><use xlink:href="#SvgjsG1325" transform="translate(518.4, 460.8) scale(1.8)" fill="rgba(255, 255, 255, 0.34)"></use><use xlink:href="#SvgjsG1323" transform="translate(518.4, 518.4) scale(1.8)" fill="rgba(255, 255, 255, 0.34)"></use></g></defs></svg>