<svg xmlns="http://www.w3.org/2000/svg" version="1.1" xmlns:xlink="http://www.w3.org/1999/xlink" xmlns:svgjs="http://svgjs.com/svgjs" width="1280" height="720" preserveAspectRatio="none" viewBox="0 0 1280 720"><g mask="url(&quot;#SvgjsMask1007&quot;)" fill="none"><path d="M1344 720L0 720 L0 445.3Q-8.64 372.66, 64 364.02Q123.51 359.53, 128 419.04Q193.47 377.84, 234.66666666666666 443.31Q250.19 352.17, 341.3333333333333 367.69Q400.07 319.76, 448 378.49Q522.8 346.62, 554.6666666666666 421.42Q617.55 377.64, 661.3333333333333 440.52Q695.94 368.46, 767.9999999999999 403.06Q809.25 337.65, 874.6666666666665 378.9Q929.66 369.89, 938.6666666666665 424.89Q989.94 412.16, 1002.6666666666665 463.44Q1004.79 401.56, 1066.6666666666665 403.69Q1082.26 355.28, 1130.6666666666665 370.88Q1189.28 322.83, 1237.3333333333333 381.45Q1340.18 377.63, 1344 480.48z" fill="rgba(0, 0, 0, 0.16)"></path><path d="M1386.6666666666665 720L0 720 L0 484.03Q17.68 437.71, 64 455.4Q138.31 423.04, 170.66666666666666 497.35Q231.23 493.91, 234.66666666666666 554.48Q255.2 511.01, 298.66666666666663 531.54Q316.27 485.14, 362.66666666666663 502.75Q437.54 470.95, 469.33333333333326 545.82Q474.92 444.74, 575.9999999999999 450.33Q665.96 433.62, 682.6666666666665 523.58Q729.33 463.58, 789.3333333333331 510.25Q867.8 482.05, 895.9999999999998 560.52Q908.83 466.68, 1002.6666666666664 479.51Q1042.26 412.44, 1109.333333333333 452.04Q1183.26 419.3, 1215.9999999999998 493.22Q1241.51 454.74, 1279.9999999999998 480.25Q1375.25 468.84, 1386.6666666666665 564.09z" fill="rgba(255, 255, 255, 0.13)"></path><path d="M1386.6666666666667 720L0 720 L0 625.46Q29 590.46, 64 619.45Q106.75 555.53, 170.66666666666666 598.28Q176.73 540.35, 234.66666666666666 546.41Q293.9 498.98, 341.3333333333333 558.21Q393.77 546.64, 405.3333333333333 599.08Q429.76 559.5, 469.3333333333333 583.93Q485.85 536.44, 533.3333333333333 552.96Q608.69 521.65, 639.9999999999999 597.01Q718.85 569.19, 746.6666666666665 648.04Q773.66 611.03, 810.6666666666665 638.03Q828.15 591.51, 874.6666666666665 608.99Q873.7 544.02, 938.6666666666665 543.05Q1024.6 564.98, 1002.6666666666665 650.92Q989.78 574.03, 1066.6666666666665 561.14Q1109.63 497.43, 1173.3333333333333 540.39Q1249.64 510.03, 1280 586.34Q1361.4 561.08, 1386.6666666666667 642.48z" fill="rgba(255, 255, 255, 0.27)"></path><path d="M1344 720L0 720 L0 694.17Q51.75 681.92, 64 733.68Q107.01 712.69, 128 755.71Q140.56 704.27, 192 716.83Q212.63 673.47, 256 694.1Q298.81 630.25, 362.66666666666663 673.06Q378.49 624.88, 426.66666666666663 640.7Q462.83 612.87, 490.66666666666663 649.03Q588.11 639.8, 597.3333333333333 737.24Q598.93 674.84, 661.3333333333333 676.43Q697.29 605.72, 767.9999999999999 641.68Q808.02 617.7, 831.9999999999999 657.72Q893.18 654.9, 895.9999999999999 716.08Q908.01 621.43, 1002.6666666666665 633.44Q1080.23 647.01, 1066.6666666666665 724.57Q1129.72 680.96, 1173.3333333333333 744.02Q1209.58 673.6, 1280 709.85Q1294.72 660.58, 1344 675.3z" fill="rgba(255, 255, 255, 0.26)"></path></g><defs><mask id="SvgjsMask1007"><rect width="1280" height="720" fill="#ffffff"></rect></mask></defs></svg>