<svg xmlns="http://www.w3.org/2000/svg" version="1.1" xmlns:xlink="http://www.w3.org/1999/xlink" xmlns:svgjs="http://svgjs.com/svgjs" width="640" height="360" preserveAspectRatio="none" viewBox="0 0 640 360"><g mask="url(&quot;#SvgjsMask1086&quot;)" fill="none"><path d="M484.014,264.276C519.567,266.589,557.197,256.372,576.196,226.233C596.288,194.36,595.034,152.356,574.467,120.788C555.477,91.641,518.791,83.93,484.014,84.745C450.96,85.52,416.825,96.044,400.618,124.862C384.659,153.239,393.79,187.513,410.503,215.453C426.688,242.51,452.553,262.229,484.014,264.276" fill="rgba(255, 255, 255, 0.67)" class="triangle-float3"></path><path d="M189.169,48.658C199.745,48.546,211.43,48.621,217.459,39.93C224.196,30.218,224.259,16.984,218.17,6.853C212.244,-3.008,200.674,-7.158,189.169,-7.143C177.696,-7.128,166.317,-2.839,160.303,6.931C154.008,17.159,152.984,30.666,159.817,40.543C166.007,49.491,178.29,48.774,189.169,48.658" fill="rgba(255, 255, 255, 0.67)" class="triangle-float2"></path><path d="M131.175,204.453C142.035,204.267,150.913,197.196,156.773,188.05C163.258,177.928,168.948,165.344,162.885,154.964C156.852,144.637,143.122,143.669,131.175,144.229C120.421,144.733,109.813,148.509,104.224,157.711C98.43,167.251,98.436,179.284,104.011,188.954C109.592,198.633,120.004,204.644,131.175,204.453" fill="rgba(255, 255, 255, 0.67)" class="triangle-float3"></path><path d="M248.711,166.268C279.747,164.443,303.019,139.935,316.788,112.06C328.922,87.494,325.644,59.924,313.331,35.448C299.313,7.584,279.865,-21.735,248.711,-23.26C215.717,-24.875,188.673,-0.05,172.121,28.537C155.527,57.196,149.102,92.03,165.197,120.973C181.693,150.638,214.827,168.26,248.711,166.268" fill="rgba(255, 255, 255, 0.67)" class="triangle-float2"></path><path d="M166.285,349.488C194.466,350.267,215.29,325.632,228.205,300.572C239.925,277.83,241.877,250.706,228.4,228.96C215.554,208.232,190.667,200.204,166.285,200.661C142.802,201.101,119.892,210.916,108.075,231.214C96.19,251.629,99.591,276.112,110.022,297.306C122.128,321.903,138.88,348.731,166.285,349.488" fill="rgba(255, 255, 255, 0.67)" class="triangle-float2"></path><path d="M600.233,451.699C628.996,452.566,658.928,442.694,673.274,417.749C687.587,392.861,681.16,361.978,665.772,337.74C651.541,315.324,626.771,303.554,600.233,302.698C571.876,301.783,541.416,308.863,526.937,333.262C512.231,358.042,519.276,389.063,534.44,413.565C548.737,436.668,573.076,450.881,600.233,451.699" fill="rgba(255, 255, 255, 0.67)" class="triangle-float2"></path><path d="M555.399,130.851C573.725,131.415,591.043,121.085,599.68,104.912C607.882,89.554,603.977,71.404,595.164,56.388C586.48,41.591,572.526,30.47,555.399,29.461C536.35,28.339,515.746,34.424,506.598,51.171C497.703,67.456,505.906,86.501,515.598,102.325C524.735,117.243,537.913,130.313,555.399,130.851" fill="rgba(255, 255, 255, 0.67)" class="triangle-float2"></path></g><defs><mask id="SvgjsMask1086"><rect width="640" height="360" fill="#ffffff"></rect></mask><style>
            @keyframes float1 {
                0%{transform: translate(0, 0)}
                50%{transform: translate(-10px, 0)}
                100%{transform: translate(0, 0)}
            }

            .triangle-float1 {
                animation: float1 5s infinite;
            }

            @keyframes float2 {
                0%{transform: translate(0, 0)}
                50%{transform: translate(-5px, -5px)}
                100%{transform: translate(0, 0)}
            }

            .triangle-float2 {
                animation: float2 4s infinite;
            }

            @keyframes float3 {
                0%{transform: translate(0, 0)}
                50%{transform: translate(0, -10px)}
                100%{transform: translate(0, 0)}
            }

            .triangle-float3 {
                animation: float3 6s infinite;
            }
        </style></defs></svg>