<svg xmlns="http://www.w3.org/2000/svg" version="1.1" xmlns:xlink="http://www.w3.org/1999/xlink" xmlns:svgjs="http://svgjs.com/svgjs" width="1280" height="720" preserveAspectRatio="none" viewBox="0 0 1280 720"><g mask="url(&quot;#SvgjsMask1013&quot;)" fill="none"><path d="M 0,309 C 51.2,266.2 153.6,95.4 256,95 C 358.4,94.6 409.6,292 512,307 C 614.4,322 665.6,188.2 768,170 C 870.4,151.8 921.6,221.8 1024,216 C 1126.4,210.2 1228.8,156 1280,141L1280 720L0 720z" fill="rgba(0, 0, 0, 0.09)"></path><path d="M 0,580 C 85.4,564.4 256.2,493 427,502 C 597.8,511 683.4,644 854,625 C 1024.6,606 1194.8,450.6 1280,407L1280 720L0 720z" fill="rgba(0, 0, 0, 0.1)"></path></g><defs><mask id="SvgjsMask1013"><rect width="1280" height="720" fill="#ffffff"></rect></mask></defs></svg>