<svg xmlns="http://www.w3.org/2000/svg" version="1.1" xmlns:xlink="http://www.w3.org/1999/xlink" xmlns:svgjs="http://svgjs.com/svgjs" width="1280" height="720" preserveAspectRatio="none" viewBox="0 0 1280 720"><g mask="url(&quot;#SvgjsMask1026&quot;)" fill="none"><path d="M-68.4 527.07L-68.4 527.07" stroke="rgba(0, 0, 0, 0.13)" stroke-width="1.5"></path><path d="M-68.4 527.07L-61.37 665.84" stroke="rgba(0, 0, 0, 0.13)" stroke-width="1.5"></path><path d="M-68.4 527.07L80.2 490.29" stroke="rgba(0, 0, 0, 0.13)" stroke-width="1.5"></path><path d="M-61.37 665.84L-61.37 665.84" stroke="rgba(0, 0, 0, 0.13)" stroke-width="1.5"></path><path d="M-61.37 665.84L61.34 695.4" stroke="rgba(0, 0, 0, 0.13)" stroke-width="1.5"></path><path d="M-61.37 665.84L-45.13 851.78" stroke="rgba(0, 0, 0, 0.13)" stroke-width="1.5"></path><path d="M-61.37 665.84L80.2 490.29" stroke="rgba(0, 0, 0, 0.13)" stroke-width="1.5"></path><path d="M-61.37 665.84L111.92 813.1" stroke="rgba(0, 0, 0, 0.13)" stroke-width="1.5"></path><path d="M-45.13 851.78L-45.13 851.78" stroke="rgba(0, 0, 0, 0.13)" stroke-width="1.5"></path><path d="M-45.13 851.78L111.92 813.1" stroke="rgba(0, 0, 0, 0.13)" stroke-width="1.5"></path><path d="M80.2 490.29L80.2 490.29" stroke="rgba(0, 0, 0, 0.13)" stroke-width="1.5"></path><path d="M80.2 490.29L190.48 546.18" stroke="rgba(0, 0, 0, 0.13)" stroke-width="1.5"></path><path d="M80.2 490.29L61.34 695.4" stroke="rgba(0, 0, 0, 0.13)" stroke-width="1.5"></path><path d="M80.2 490.29L200.41 659.78" stroke="rgba(0, 0, 0, 0.13)" stroke-width="1.5"></path><path d="M61.34 695.4L61.34 695.4" stroke="rgba(0, 0, 0, 0.13)" stroke-width="1.5"></path><path d="M61.34 695.4L111.92 813.1" stroke="rgba(0, 0, 0, 0.13)" stroke-width="1.5"></path><path d="M61.34 695.4L200.41 659.78" stroke="rgba(0, 0, 0, 0.13)" stroke-width="1.5"></path><path d="M111.92 813.1L111.92 813.1" stroke="rgba(0, 0, 0, 0.13)" stroke-width="1.5"></path><path d="M111.92 813.1L222.17 812.57" stroke="rgba(0, 0, 0, 0.13)" stroke-width="1.5"></path><path d="M111.92 813.1L200.41 659.78" stroke="rgba(0, 0, 0, 0.13)" stroke-width="1.5"></path><path d="M190.48 546.18L190.48 546.18" stroke="rgba(0, 0, 0, 0.13)" stroke-width="1.5"></path><path d="M190.48 546.18L200.41 659.78" stroke="rgba(0, 0, 0, 0.13)" stroke-width="1.5"></path><path d="M190.48 546.18L351.1 531.05" stroke="rgba(0, 0, 0, 0.13)" stroke-width="1.5"></path><path d="M200.41 659.78L200.41 659.78" stroke="rgba(0, 0, 0, 0.13)" stroke-width="1.5"></path><path d="M200.41 659.78L222.17 812.57" stroke="rgba(0, 0, 0, 0.13)" stroke-width="1.5"></path><path d="M222.17 812.57L222.17 812.57" stroke="rgba(0, 0, 0, 0.13)" stroke-width="1.5"></path><path d="M222.17 812.57L346.54 825.17" stroke="rgba(0, 0, 0, 0.13)" stroke-width="1.5"></path><path d="M222.17 812.57L61.34 695.4" stroke="rgba(0, 0, 0, 0.13)" stroke-width="1.5"></path><path d="M222.17 812.57L391.61 700.51" stroke="rgba(0, 0, 0, 0.13)" stroke-width="1.5"></path><path d="M386.31 373.68L386.31 373.68" stroke="rgba(0, 0, 0, 0.13)" stroke-width="1.5"></path><path d="M386.31 373.68L547.07 372.21" stroke="rgba(0, 0, 0, 0.13)" stroke-width="1.5"></path><path d="M386.31 373.68L351.1 531.05" stroke="rgba(0, 0, 0, 0.13)" stroke-width="1.5"></path><path d="M386.31 373.68L555.55 535.49" stroke="rgba(0, 0, 0, 0.13)" stroke-width="1.5"></path><path d="M386.31 373.68L190.48 546.18" stroke="rgba(0, 0, 0, 0.13)" stroke-width="1.5"></path><path d="M386.31 373.68L654.61 500.33" stroke="rgba(0, 0, 0, 0.13)" stroke-width="1.5"></path><path d="M351.1 531.05L351.1 531.05" stroke="rgba(0, 0, 0, 0.13)" stroke-width="1.5"></path><path d="M351.1 531.05L391.61 700.51" stroke="rgba(0, 0, 0, 0.13)" stroke-width="1.5"></path><path d="M351.1 531.05L200.41 659.78" stroke="rgba(0, 0, 0, 0.13)" stroke-width="1.5"></path><path d="M391.61 700.51L391.61 700.51" stroke="rgba(0, 0, 0, 0.13)" stroke-width="1.5"></path><path d="M391.61 700.51L346.54 825.17" stroke="rgba(0, 0, 0, 0.13)" stroke-width="1.5"></path><path d="M391.61 700.51L504.57 797.46" stroke="rgba(0, 0, 0, 0.13)" stroke-width="1.5"></path><path d="M346.54 825.17L346.54 825.17" stroke="rgba(0, 0, 0, 0.13)" stroke-width="1.5"></path><path d="M346.54 825.17L504.57 797.46" stroke="rgba(0, 0, 0, 0.13)" stroke-width="1.5"></path><path d="M346.54 825.17L200.41 659.78" stroke="rgba(0, 0, 0, 0.13)" stroke-width="1.5"></path><path d="M346.54 825.17L111.92 813.1" stroke="rgba(0, 0, 0, 0.13)" stroke-width="1.5"></path><path d="M346.54 825.17L537.08 666.95" stroke="rgba(0, 0, 0, 0.13)" stroke-width="1.5"></path><path d="M547.07 372.21L547.07 372.21" stroke="rgba(0, 0, 0, 0.13)" stroke-width="1.5"></path><path d="M555.55 535.49L555.55 535.49" stroke="rgba(0, 0, 0, 0.13)" stroke-width="1.5"></path><path d="M555.55 535.49L654.61 500.33" stroke="rgba(0, 0, 0, 0.13)" stroke-width="1.5"></path><path d="M537.08 666.95L537.08 666.95" stroke="rgba(0, 0, 0, 0.13)" stroke-width="1.5"></path><path d="M537.08 666.95L644.77 709.31" stroke="rgba(0, 0, 0, 0.13)" stroke-width="1.5"></path><path d="M537.08 666.95L555.55 535.49" stroke="rgba(0, 0, 0, 0.13)" stroke-width="1.5"></path><path d="M537.08 666.95L504.57 797.46" stroke="rgba(0, 0, 0, 0.13)" stroke-width="1.5"></path><path d="M537.08 666.95L391.61 700.51" stroke="rgba(0, 0, 0, 0.13)" stroke-width="1.5"></path><path d="M504.57 797.46L504.57 797.46" stroke="rgba(0, 0, 0, 0.13)" stroke-width="1.5"></path><path d="M696.07 187.69L696.07 187.69" stroke="rgba(0, 0, 0, 0.13)" stroke-width="1.5"></path><path d="M696.07 187.69L859.52 214.4" stroke="rgba(0, 0, 0, 0.13)" stroke-width="1.5"></path><path d="M696.07 187.69L859.53 99.34" stroke="rgba(0, 0, 0, 0.13)" stroke-width="1.5"></path><path d="M654.61 500.33L654.61 500.33" stroke="rgba(0, 0, 0, 0.13)" stroke-width="1.5"></path><path d="M654.61 500.33L818.44 527.37" stroke="rgba(0, 0, 0, 0.13)" stroke-width="1.5"></path><path d="M654.61 500.33L547.07 372.21" stroke="rgba(0, 0, 0, 0.13)" stroke-width="1.5"></path><path d="M654.61 500.33L537.08 666.95" stroke="rgba(0, 0, 0, 0.13)" stroke-width="1.5"></path><path d="M644.77 709.31L644.77 709.31" stroke="rgba(0, 0, 0, 0.13)" stroke-width="1.5"></path><path d="M644.77 709.31L667.03 834.23" stroke="rgba(0, 0, 0, 0.13)" stroke-width="1.5"></path><path d="M644.77 709.31L504.57 797.46" stroke="rgba(0, 0, 0, 0.13)" stroke-width="1.5"></path><path d="M667.03 834.23L667.03 834.23" stroke="rgba(0, 0, 0, 0.13)" stroke-width="1.5"></path><path d="M667.03 834.23L504.57 797.46" stroke="rgba(0, 0, 0, 0.13)" stroke-width="1.5"></path><path d="M837.99 -70.17L837.99 -70.17" stroke="rgba(0, 0, 0, 0.13)" stroke-width="1.5"></path><path d="M837.99 -70.17L998.73 -98.67" stroke="rgba(0, 0, 0, 0.13)" stroke-width="1.5"></path><path d="M837.99 -70.17L859.53 99.34" stroke="rgba(0, 0, 0, 0.13)" stroke-width="1.5"></path><path d="M859.53 99.34L859.53 99.34" stroke="rgba(0, 0, 0, 0.13)" stroke-width="1.5"></path><path d="M859.53 99.34L859.52 214.4" stroke="rgba(0, 0, 0, 0.13)" stroke-width="1.5"></path><path d="M859.53 99.34L987.98 86.73" stroke="rgba(0, 0, 0, 0.13)" stroke-width="1.5"></path><path d="M859.52 214.4L859.52 214.4" stroke="rgba(0, 0, 0, 0.13)" stroke-width="1.5"></path><path d="M859.52 214.4L981.08 192.29" stroke="rgba(0, 0, 0, 0.13)" stroke-width="1.5"></path><path d="M859.52 214.4L811.57 339.44" stroke="rgba(0, 0, 0, 0.13)" stroke-width="1.5"></path><path d="M859.52 214.4L937.77 371.78" stroke="rgba(0, 0, 0, 0.13)" stroke-width="1.5"></path><path d="M811.57 339.44L811.57 339.44" stroke="rgba(0, 0, 0, 0.13)" stroke-width="1.5"></path><path d="M811.57 339.44L937.77 371.78" stroke="rgba(0, 0, 0, 0.13)" stroke-width="1.5"></path><path d="M811.57 339.44L818.44 527.37" stroke="rgba(0, 0, 0, 0.13)" stroke-width="1.5"></path><path d="M818.44 527.37L818.44 527.37" stroke="rgba(0, 0, 0, 0.13)" stroke-width="1.5"></path><path d="M818.44 527.37L959.39 527.09" stroke="rgba(0, 0, 0, 0.13)" stroke-width="1.5"></path><path d="M818.44 527.37L824.97 670.51" stroke="rgba(0, 0, 0, 0.13)" stroke-width="1.5"></path><path d="M824.97 670.51L824.97 670.51" stroke="rgba(0, 0, 0, 0.13)" stroke-width="1.5"></path><path d="M824.97 670.51L945.4 669.28" stroke="rgba(0, 0, 0, 0.13)" stroke-width="1.5"></path><path d="M824.97 670.51L834.08 824.59" stroke="rgba(0, 0, 0, 0.13)" stroke-width="1.5"></path><path d="M834.08 824.59L834.08 824.59" stroke="rgba(0, 0, 0, 0.13)" stroke-width="1.5"></path><path d="M834.08 824.59L667.03 834.23" stroke="rgba(0, 0, 0, 0.13)" stroke-width="1.5"></path><path d="M834.08 824.59L1002.23 808.88" stroke="rgba(0, 0, 0, 0.13)" stroke-width="1.5"></path><path d="M834.08 824.59L945.4 669.28" stroke="rgba(0, 0, 0, 0.13)" stroke-width="1.5"></path><path d="M834.08 824.59L644.77 709.31" stroke="rgba(0, 0, 0, 0.13)" stroke-width="1.5"></path><path d="M834.08 824.59L818.44 527.37" stroke="rgba(0, 0, 0, 0.13)" stroke-width="1.5"></path><path d="M998.73 -98.67L998.73 -98.67" stroke="rgba(0, 0, 0, 0.13)" stroke-width="1.5"></path><path d="M998.73 -98.67L1132.19 -71.17" stroke="rgba(0, 0, 0, 0.13)" stroke-width="1.5"></path><path d="M998.73 -98.67L987.98 86.73" stroke="rgba(0, 0, 0, 0.13)" stroke-width="1.5"></path><path d="M998.73 -98.67L1136.07 44.37" stroke="rgba(0, 0, 0, 0.13)" stroke-width="1.5"></path><path d="M998.73 -98.67L859.53 99.34" stroke="rgba(0, 0, 0, 0.13)" stroke-width="1.5"></path><path d="M987.98 86.73L987.98 86.73" stroke="rgba(0, 0, 0, 0.13)" stroke-width="1.5"></path><path d="M987.98 86.73L981.08 192.29" stroke="rgba(0, 0, 0, 0.13)" stroke-width="1.5"></path><path d="M981.08 192.29L981.08 192.29" stroke="rgba(0, 0, 0, 0.13)" stroke-width="1.5"></path><path d="M981.08 192.29L859.53 99.34" stroke="rgba(0, 0, 0, 0.13)" stroke-width="1.5"></path><path d="M981.08 192.29L1153.89 218.53" stroke="rgba(0, 0, 0, 0.13)" stroke-width="1.5"></path><path d="M937.77 371.78L937.77 371.78" stroke="rgba(0, 0, 0, 0.13)" stroke-width="1.5"></path><path d="M959.39 527.09L959.39 527.09" stroke="rgba(0, 0, 0, 0.13)" stroke-width="1.5"></path><path d="M959.39 527.09L945.4 669.28" stroke="rgba(0, 0, 0, 0.13)" stroke-width="1.5"></path><path d="M959.39 527.09L937.77 371.78" stroke="rgba(0, 0, 0, 0.13)" stroke-width="1.5"></path><path d="M959.39 527.09L824.97 670.51" stroke="rgba(0, 0, 0, 0.13)" stroke-width="1.5"></path><path d="M945.4 669.28L945.4 669.28" stroke="rgba(0, 0, 0, 0.13)" stroke-width="1.5"></path><path d="M945.4 669.28L1002.23 808.88" stroke="rgba(0, 0, 0, 0.13)" stroke-width="1.5"></path><path d="M945.4 669.28L818.44 527.37" stroke="rgba(0, 0, 0, 0.13)" stroke-width="1.5"></path><path d="M1002.23 808.88L1002.23 808.88" stroke="rgba(0, 0, 0, 0.13)" stroke-width="1.5"></path><path d="M1002.23 808.88L1140.89 658.59" stroke="rgba(0, 0, 0, 0.13)" stroke-width="1.5"></path><path d="M1132.19 -71.17L1132.19 -71.17" stroke="rgba(0, 0, 0, 0.13)" stroke-width="1.5"></path><path d="M1132.19 -71.17L1136.07 44.37" stroke="rgba(0, 0, 0, 0.13)" stroke-width="1.5"></path><path d="M1132.19 -71.17L1307.94 -74.08" stroke="rgba(0, 0, 0, 0.13)" stroke-width="1.5"></path><path d="M1136.07 44.37L1136.07 44.37" stroke="rgba(0, 0, 0, 0.13)" stroke-width="1.5"></path><path d="M1136.07 44.37L1281.3 38.95" stroke="rgba(0, 0, 0, 0.13)" stroke-width="1.5"></path><path d="M1136.07 44.37L987.98 86.73" stroke="rgba(0, 0, 0, 0.13)" stroke-width="1.5"></path><path d="M1136.07 44.37L1153.89 218.53" stroke="rgba(0, 0, 0, 0.13)" stroke-width="1.5"></path><path d="M1153.89 218.53L1153.89 218.53" stroke="rgba(0, 0, 0, 0.13)" stroke-width="1.5"></path><path d="M1153.89 218.53L1270.21 213.45" stroke="rgba(0, 0, 0, 0.13)" stroke-width="1.5"></path><path d="M1153.89 218.53L1122 361.18" stroke="rgba(0, 0, 0, 0.13)" stroke-width="1.5"></path><path d="M1153.89 218.53L1282.84 344.11" stroke="rgba(0, 0, 0, 0.13)" stroke-width="1.5"></path><path d="M1122 361.18L1122 361.18" stroke="rgba(0, 0, 0, 0.13)" stroke-width="1.5"></path><path d="M1122 361.18L1282.84 344.11" stroke="rgba(0, 0, 0, 0.13)" stroke-width="1.5"></path><path d="M1122 361.18L937.77 371.78" stroke="rgba(0, 0, 0, 0.13)" stroke-width="1.5"></path><path d="M1140.89 658.59L1140.89 658.59" stroke="rgba(0, 0, 0, 0.13)" stroke-width="1.5"></path><path d="M1140.89 658.59L1286.55 638" stroke="rgba(0, 0, 0, 0.13)" stroke-width="1.5"></path><path d="M1140.89 658.59L1283.67 533.55" stroke="rgba(0, 0, 0, 0.13)" stroke-width="1.5"></path><path d="M1140.89 658.59L945.4 669.28" stroke="rgba(0, 0, 0, 0.13)" stroke-width="1.5"></path><path d="M1140.89 658.59L1255.78 843.83" stroke="rgba(0, 0, 0, 0.13)" stroke-width="1.5"></path><path d="M1140.89 658.59L959.39 527.09" stroke="rgba(0, 0, 0, 0.13)" stroke-width="1.5"></path><path d="M1307.94 -74.08L1307.94 -74.08" stroke="rgba(0, 0, 0, 0.13)" stroke-width="1.5"></path><path d="M1307.94 -74.08L1417.96 -95.97" stroke="rgba(0, 0, 0, 0.13)" stroke-width="1.5"></path><path d="M1307.94 -74.08L1281.3 38.95" stroke="rgba(0, 0, 0, 0.13)" stroke-width="1.5"></path><path d="M1307.94 -74.08L1431.06 92.09" stroke="rgba(0, 0, 0, 0.13)" stroke-width="1.5"></path><path d="M1307.94 -74.08L1136.07 44.37" stroke="rgba(0, 0, 0, 0.13)" stroke-width="1.5"></path><path d="M1307.94 -74.08L1270.21 213.45" stroke="rgba(0, 0, 0, 0.13)" stroke-width="1.5"></path><path d="M1281.3 38.95L1281.3 38.95" stroke="rgba(0, 0, 0, 0.13)" stroke-width="1.5"></path><path d="M1281.3 38.95L1431.06 92.09" stroke="rgba(0, 0, 0, 0.13)" stroke-width="1.5"></path><path d="M1281.3 38.95L1270.21 213.45" stroke="rgba(0, 0, 0, 0.13)" stroke-width="1.5"></path><path d="M1281.3 38.95L1132.19 -71.17" stroke="rgba(0, 0, 0, 0.13)" stroke-width="1.5"></path><path d="M1281.3 38.95L1417.96 -95.97" stroke="rgba(0, 0, 0, 0.13)" stroke-width="1.5"></path><path d="M1270.21 213.45L1270.21 213.45" stroke="rgba(0, 0, 0, 0.13)" stroke-width="1.5"></path><path d="M1270.21 213.45L1282.84 344.11" stroke="rgba(0, 0, 0, 0.13)" stroke-width="1.5"></path><path d="M1282.84 344.11L1282.84 344.11" stroke="rgba(0, 0, 0, 0.13)" stroke-width="1.5"></path><path d="M1282.84 344.11L1429.49 356.57" stroke="rgba(0, 0, 0, 0.13)" stroke-width="1.5"></path><path d="M1282.84 344.11L1407.74 203.01" stroke="rgba(0, 0, 0, 0.13)" stroke-width="1.5"></path><path d="M1282.84 344.11L1283.67 533.55" stroke="rgba(0, 0, 0, 0.13)" stroke-width="1.5"></path><path d="M1283.67 533.55L1283.67 533.55" stroke="rgba(0, 0, 0, 0.13)" stroke-width="1.5"></path><path d="M1283.67 533.55L1286.55 638" stroke="rgba(0, 0, 0, 0.13)" stroke-width="1.5"></path><path d="M1283.67 533.55L1409.27 551.33" stroke="rgba(0, 0, 0, 0.13)" stroke-width="1.5"></path><path d="M1286.55 638L1286.55 638" stroke="rgba(0, 0, 0, 0.13)" stroke-width="1.5"></path><path d="M1286.55 638L1409.27 551.33" stroke="rgba(0, 0, 0, 0.13)" stroke-width="1.5"></path><path d="M1286.55 638L1435.15 701.45" stroke="rgba(0, 0, 0, 0.13)" stroke-width="1.5"></path><path d="M1286.55 638L1255.78 843.83" stroke="rgba(0, 0, 0, 0.13)" stroke-width="1.5"></path><path d="M1286.55 638L1389.54 846.18" stroke="rgba(0, 0, 0, 0.13)" stroke-width="1.5"></path><path d="M1255.78 843.83L1255.78 843.83" stroke="rgba(0, 0, 0, 0.13)" stroke-width="1.5"></path><path d="M1255.78 843.83L1389.54 846.18" stroke="rgba(0, 0, 0, 0.13)" stroke-width="1.5"></path><path d="M1417.96 -95.97L1417.96 -95.97" stroke="rgba(0, 0, 0, 0.13)" stroke-width="1.5"></path><path d="M1417.96 -95.97L1431.06 92.09" stroke="rgba(0, 0, 0, 0.13)" stroke-width="1.5"></path><path d="M1431.06 92.09L1431.06 92.09" stroke="rgba(0, 0, 0, 0.13)" stroke-width="1.5"></path><path d="M1431.06 92.09L1407.74 203.01" stroke="rgba(0, 0, 0, 0.13)" stroke-width="1.5"></path><path d="M1431.06 92.09L1270.21 213.45" stroke="rgba(0, 0, 0, 0.13)" stroke-width="1.5"></path><path d="M1431.06 92.09L1429.49 356.57" stroke="rgba(0, 0, 0, 0.13)" stroke-width="1.5"></path><path d="M1407.74 203.01L1407.74 203.01" stroke="rgba(0, 0, 0, 0.13)" stroke-width="1.5"></path><path d="M1407.74 203.01L1270.21 213.45" stroke="rgba(0, 0, 0, 0.13)" stroke-width="1.5"></path><path d="M1429.49 356.57L1429.49 356.57" stroke="rgba(0, 0, 0, 0.13)" stroke-width="1.5"></path><path d="M1429.49 356.57L1407.74 203.01" stroke="rgba(0, 0, 0, 0.13)" stroke-width="1.5"></path><path d="M1429.49 356.57L1409.27 551.33" stroke="rgba(0, 0, 0, 0.13)" stroke-width="1.5"></path><path d="M1429.49 356.57L1270.21 213.45" stroke="rgba(0, 0, 0, 0.13)" stroke-width="1.5"></path><path d="M1409.27 551.33L1409.27 551.33" stroke="rgba(0, 0, 0, 0.13)" stroke-width="1.5"></path><path d="M1409.27 551.33L1435.15 701.45" stroke="rgba(0, 0, 0, 0.13)" stroke-width="1.5"></path><path d="M1409.27 551.33L1282.84 344.11" stroke="rgba(0, 0, 0, 0.13)" stroke-width="1.5"></path><path d="M1435.15 701.45L1435.15 701.45" stroke="rgba(0, 0, 0, 0.13)" stroke-width="1.5"></path><path d="M1435.15 701.45L1389.54 846.18" stroke="rgba(0, 0, 0, 0.13)" stroke-width="1.5"></path><path d="M1389.54 846.18L1389.54 846.18" stroke="rgba(0, 0, 0, 0.13)" stroke-width="1.5"></path><path d="M1389.54 846.18L1409.27 551.33" stroke="rgba(0, 0, 0, 0.13)" stroke-width="1.5"></path><circle r="5" cx="-68.4" cy="527.07" fill="rgba(0, 0, 0, 0.13)"></circle><circle r="5" cx="-61.37" cy="665.84" fill="rgba(0, 0, 0, 0.13)"></circle><circle r="5" cx="-45.13" cy="851.78" fill="rgba(0, 0, 0, 0.13)"></circle><circle r="5" cx="80.2" cy="490.29" fill="rgba(0, 0, 0, 0.13)"></circle><circle r="5" cx="61.34" cy="695.4" fill="rgba(0, 0, 0, 0.13)"></circle><circle r="5" cx="111.92" cy="813.1" fill="rgba(0, 0, 0, 0.13)"></circle><circle r="5" cx="190.48" cy="546.18" fill="rgba(0, 0, 0, 0.13)"></circle><circle r="5" cx="200.41" cy="659.78" fill="rgba(0, 0, 0, 0.13)"></circle><circle r="5" cx="222.17" cy="812.57" fill="rgba(0, 0, 0, 0.13)"></circle><circle r="5" cx="386.31" cy="373.68" fill="rgba(0, 0, 0, 0.13)"></circle><circle r="5" cx="351.1" cy="531.05" fill="rgba(0, 0, 0, 0.13)"></circle><circle r="5" cx="391.61" cy="700.51" fill="rgba(0, 0, 0, 0.13)"></circle><circle r="5" cx="346.54" cy="825.17" fill="rgba(0, 0, 0, 0.13)"></circle><circle r="5" cx="547.07" cy="372.21" fill="rgba(0, 0, 0, 0.13)"></circle><circle r="5" cx="555.55" cy="535.49" fill="rgba(0, 0, 0, 0.13)"></circle><circle r="5" cx="537.08" cy="666.95" fill="rgba(0, 0, 0, 0.13)"></circle><circle r="5" cx="504.57" cy="797.46" fill="rgba(0, 0, 0, 0.13)"></circle><circle r="5" cx="696.07" cy="187.69" fill="rgba(0, 0, 0, 0.13)"></circle><circle r="5" cx="654.61" cy="500.33" fill="rgba(0, 0, 0, 0.13)"></circle><circle r="5" cx="644.77" cy="709.31" fill="rgba(0, 0, 0, 0.13)"></circle><circle r="5" cx="667.03" cy="834.23" fill="rgba(0, 0, 0, 0.13)"></circle><circle r="5" cx="837.99" cy="-70.17" fill="rgba(0, 0, 0, 0.13)"></circle><circle r="5" cx="859.53" cy="99.34" fill="rgba(0, 0, 0, 0.13)"></circle><circle r="5" cx="859.52" cy="214.4" fill="rgba(0, 0, 0, 0.13)"></circle><circle r="5" cx="811.57" cy="339.44" fill="rgba(0, 0, 0, 0.13)"></circle><circle r="5" cx="818.44" cy="527.37" fill="rgba(0, 0, 0, 0.13)"></circle><circle r="5" cx="824.97" cy="670.51" fill="rgba(0, 0, 0, 0.13)"></circle><circle r="5" cx="834.08" cy="824.59" fill="rgba(0, 0, 0, 0.13)"></circle><circle r="5" cx="998.73" cy="-98.67" fill="rgba(0, 0, 0, 0.13)"></circle><circle r="5" cx="987.98" cy="86.73" fill="rgba(0, 0, 0, 0.13)"></circle><circle r="5" cx="981.08" cy="192.29" fill="rgba(0, 0, 0, 0.13)"></circle><circle r="5" cx="937.77" cy="371.78" fill="rgba(0, 0, 0, 0.13)"></circle><circle r="5" cx="959.39" cy="527.09" fill="rgba(0, 0, 0, 0.13)"></circle><circle r="5" cx="945.4" cy="669.28" fill="rgba(0, 0, 0, 0.13)"></circle><circle r="5" cx="1002.23" cy="808.88" fill="rgba(0, 0, 0, 0.13)"></circle><circle r="5" cx="1132.19" cy="-71.17" fill="rgba(0, 0, 0, 0.13)"></circle><circle r="5" cx="1136.07" cy="44.37" fill="rgba(0, 0, 0, 0.13)"></circle><circle r="5" cx="1153.89" cy="218.53" fill="rgba(0, 0, 0, 0.13)"></circle><circle r="5" cx="1122" cy="361.18" fill="rgba(0, 0, 0, 0.13)"></circle><circle r="5" cx="1140.89" cy="658.59" fill="rgba(0, 0, 0, 0.13)"></circle><circle r="5" cx="1307.94" cy="-74.08" fill="rgba(0, 0, 0, 0.13)"></circle><circle r="5" cx="1281.3" cy="38.95" fill="rgba(0, 0, 0, 0.13)"></circle><circle r="5" cx="1270.21" cy="213.45" fill="rgba(0, 0, 0, 0.13)"></circle><circle r="5" cx="1282.84" cy="344.11" fill="rgba(0, 0, 0, 0.13)"></circle><circle r="5" cx="1283.67" cy="533.55" fill="rgba(0, 0, 0, 0.13)"></circle><circle r="5" cx="1286.55" cy="638" fill="rgba(0, 0, 0, 0.13)"></circle><circle r="5" cx="1255.78" cy="843.83" fill="rgba(0, 0, 0, 0.13)"></circle><circle r="5" cx="1417.96" cy="-95.97" fill="rgba(0, 0, 0, 0.13)"></circle><circle r="5" cx="1431.06" cy="92.09" fill="rgba(0, 0, 0, 0.13)"></circle><circle r="5" cx="1407.74" cy="203.01" fill="rgba(0, 0, 0, 0.13)"></circle><circle r="5" cx="1429.49" cy="356.57" fill="rgba(0, 0, 0, 0.13)"></circle><circle r="5" cx="1409.27" cy="551.33" fill="rgba(0, 0, 0, 0.13)"></circle><circle r="5" cx="1435.15" cy="701.45" fill="rgba(0, 0, 0, 0.13)"></circle><circle r="5" cx="1389.54" cy="846.18" fill="rgba(0, 0, 0, 0.13)"></circle><path d="M69.03 799.41L69.03 799.41" stroke="hsla(0, 0%, 100%, 0.21)" stroke-width="1.5"></path><path d="M69.03 799.41L-46.4 849.53" stroke="hsla(0, 0%, 100%, 0.21)" stroke-width="1.5"></path><path d="M69.03 799.41L193.61 854.48" stroke="hsla(0, 0%, 100%, 0.21)" stroke-width="1.5"></path><path d="M553.75 525.03L553.75 525.03" stroke="hsla(0, 0%, 100%, 0.21)" stroke-width="1.5"></path><path d="M553.75 525.03L651.11 503.65" stroke="hsla(0, 0%, 100%, 0.21)" stroke-width="1.5"></path><path d="M553.75 525.03L643.86 669.12" stroke="hsla(0, 0%, 100%, 0.21)" stroke-width="1.5"></path><path d="M553.75 525.03L519.76 696.76" stroke="hsla(0, 0%, 100%, 0.21)" stroke-width="1.5"></path><path d="M553.75 525.03L378.42 648.46" stroke="hsla(0, 0%, 100%, 0.21)" stroke-width="1.5"></path><path d="M553.75 525.03L831.36 495.49" stroke="hsla(0, 0%, 100%, 0.21)" stroke-width="1.5"></path><path d="M651.11 503.65L651.11 503.65" stroke="hsla(0, 0%, 100%, 0.21)" stroke-width="1.5"></path><path d="M651.11 503.65L643.86 669.12" stroke="hsla(0, 0%, 100%, 0.21)" stroke-width="1.5"></path><path d="M643.86 669.12L643.86 669.12" stroke="hsla(0, 0%, 100%, 0.21)" stroke-width="1.5"></path><path d="M643.86 669.12L519.76 696.76" stroke="hsla(0, 0%, 100%, 0.21)" stroke-width="1.5"></path><path d="M1004.46 355.33L1004.46 355.33" stroke="hsla(0, 0%, 100%, 0.21)" stroke-width="1.5"></path><path d="M1004.46 355.33L1124.98 345.35" stroke="hsla(0, 0%, 100%, 0.21)" stroke-width="1.5"></path><path d="M1004.46 355.33L1009.28 193.68" stroke="hsla(0, 0%, 100%, 0.21)" stroke-width="1.5"></path><path d="M1155.47 676.9L1155.47 676.9" stroke="hsla(0, 0%, 100%, 0.21)" stroke-width="1.5"></path><path d="M1155.47 676.9L1249.14 680.71" stroke="hsla(0, 0%, 100%, 0.21)" stroke-width="1.5"></path><path d="M1155.47 676.9L1115.12 803.86" stroke="hsla(0, 0%, 100%, 0.21)" stroke-width="1.5"></path><path d="M1155.47 676.9L1002.24 686.47" stroke="hsla(0, 0%, 100%, 0.21)" stroke-width="1.5"></path><path d="M1309.4 -83.13L1309.4 -83.13" stroke="hsla(0, 0%, 100%, 0.21)" stroke-width="1.5"></path><path d="M1309.4 -83.13L1391.24 -79.76" stroke="hsla(0, 0%, 100%, 0.21)" stroke-width="1.5"></path><path d="M1309.4 -83.13L1148.75 -63.35" stroke="hsla(0, 0%, 100%, 0.21)" stroke-width="1.5"></path><path d="M1309.4 -83.13L1439.69 103.7" stroke="hsla(0, 0%, 100%, 0.21)" stroke-width="1.5"></path><path d="M1309.4 -83.13L1120.84 52.6" stroke="hsla(0, 0%, 100%, 0.21)" stroke-width="1.5"></path><path d="M1309.4 -83.13L1396.52 187.66" stroke="hsla(0, 0%, 100%, 0.21)" stroke-width="1.5"></path><path d="M1309.4 -83.13L1131.21 190.23" stroke="hsla(0, 0%, 100%, 0.21)" stroke-width="1.5"></path><path d="M1249.14 680.71L1249.14 680.71" stroke="hsla(0, 0%, 100%, 0.21)" stroke-width="1.5"></path><path d="M1249.14 680.71L1412.81 677.26" stroke="hsla(0, 0%, 100%, 0.21)" stroke-width="1.5"></path><path d="M1249.14 680.71L1305.59 835.55" stroke="hsla(0, 0%, 100%, 0.21)" stroke-width="1.5"></path><path d="M1249.14 680.71L1260.5 512.37" stroke="hsla(0, 0%, 100%, 0.21)" stroke-width="1.5"></path><path d="M1249.14 680.71L1115.12 803.86" stroke="hsla(0, 0%, 100%, 0.21)" stroke-width="1.5"></path><path d="M1439.69 103.7L1439.69 103.7" stroke="hsla(0, 0%, 100%, 0.21)" stroke-width="1.5"></path><path d="M1439.69 103.7L1396.52 187.66" stroke="hsla(0, 0%, 100%, 0.21)" stroke-width="1.5"></path><path d="M1439.69 103.7L1391.24 -79.76" stroke="hsla(0, 0%, 100%, 0.21)" stroke-width="1.5"></path><path d="M1439.69 103.7L1244.55 251.75" stroke="hsla(0, 0%, 100%, 0.21)" stroke-width="1.5"></path><path d="M1439.69 103.7L1403.43 382.11" stroke="hsla(0, 0%, 100%, 0.21)" stroke-width="1.5"></path><path d="M1403.43 382.11L1403.43 382.11" stroke="hsla(0, 0%, 100%, 0.21)" stroke-width="1.5"></path><path d="M1403.43 382.11L1406.84 495.24" stroke="hsla(0, 0%, 100%, 0.21)" stroke-width="1.5"></path><path d="M1403.43 382.11L1260.5 512.37" stroke="hsla(0, 0%, 100%, 0.21)" stroke-width="1.5"></path><path d="M1403.43 382.11L1396.52 187.66" stroke="hsla(0, 0%, 100%, 0.21)" stroke-width="1.5"></path><path d="M1406.84 495.24L1406.84 495.24" stroke="hsla(0, 0%, 100%, 0.21)" stroke-width="1.5"></path><path d="M1406.84 495.24L1260.5 512.37" stroke="hsla(0, 0%, 100%, 0.21)" stroke-width="1.5"></path><path d="M1406.84 495.24L1412.81 677.26" stroke="hsla(0, 0%, 100%, 0.21)" stroke-width="1.5"></path><path d="M1406.84 495.24L1249.14 680.71" stroke="hsla(0, 0%, 100%, 0.21)" stroke-width="1.5"></path><path d="M1412.81 677.26L1412.81 677.26" stroke="hsla(0, 0%, 100%, 0.21)" stroke-width="1.5"></path><path d="M1412.81 677.26L1436.74 791.64" stroke="hsla(0, 0%, 100%, 0.21)" stroke-width="1.5"></path><path d="M-39.68 650.22L-39.68 650.22" stroke="hsla(0, 0%, 100%, 0.21)" stroke-width="1.5"></path><path d="M-39.68 650.22L69.03 799.41" stroke="hsla(0, 0%, 100%, 0.21)" stroke-width="1.5"></path><path d="M-39.68 650.22L-46.4 849.53" stroke="hsla(0, 0%, 100%, 0.21)" stroke-width="1.5"></path><path d="M-39.68 650.22L206.44 664.84" stroke="hsla(0, 0%, 100%, 0.21)" stroke-width="1.5"></path><path d="M-39.68 650.22L193.61 854.48" stroke="hsla(0, 0%, 100%, 0.21)" stroke-width="1.5"></path><path d="M-39.68 650.22L378.42 648.46" stroke="hsla(0, 0%, 100%, 0.21)" stroke-width="1.5"></path><path d="M-39.68 650.22L368.82 805.84" stroke="hsla(0, 0%, 100%, 0.21)" stroke-width="1.5"></path><path d="M-46.4 849.53L-46.4 849.53" stroke="hsla(0, 0%, 100%, 0.21)" stroke-width="1.5"></path><path d="M-46.4 849.53L193.61 854.48" stroke="hsla(0, 0%, 100%, 0.21)" stroke-width="1.5"></path><path d="M-46.4 849.53L206.44 664.84" stroke="hsla(0, 0%, 100%, 0.21)" stroke-width="1.5"></path><path d="M206.44 664.84L206.44 664.84" stroke="hsla(0, 0%, 100%, 0.21)" stroke-width="1.5"></path><path d="M206.44 664.84L378.42 648.46" stroke="hsla(0, 0%, 100%, 0.21)" stroke-width="1.5"></path><path d="M206.44 664.84L193.61 854.48" stroke="hsla(0, 0%, 100%, 0.21)" stroke-width="1.5"></path><path d="M206.44 664.84L69.03 799.41" stroke="hsla(0, 0%, 100%, 0.21)" stroke-width="1.5"></path><path d="M206.44 664.84L368.82 805.84" stroke="hsla(0, 0%, 100%, 0.21)" stroke-width="1.5"></path><path d="M193.61 854.48L193.61 854.48" stroke="hsla(0, 0%, 100%, 0.21)" stroke-width="1.5"></path><path d="M193.61 854.48L368.82 805.84" stroke="hsla(0, 0%, 100%, 0.21)" stroke-width="1.5"></path><path d="M378.42 648.46L378.42 648.46" stroke="hsla(0, 0%, 100%, 0.21)" stroke-width="1.5"></path><path d="M378.42 648.46L519.76 696.76" stroke="hsla(0, 0%, 100%, 0.21)" stroke-width="1.5"></path><path d="M378.42 648.46L368.82 805.84" stroke="hsla(0, 0%, 100%, 0.21)" stroke-width="1.5"></path><path d="M368.82 805.84L368.82 805.84" stroke="hsla(0, 0%, 100%, 0.21)" stroke-width="1.5"></path><path d="M519.76 696.76L519.76 696.76" stroke="hsla(0, 0%, 100%, 0.21)" stroke-width="1.5"></path><path d="M519.76 696.76L560.08 830.87" stroke="hsla(0, 0%, 100%, 0.21)" stroke-width="1.5"></path><path d="M560.08 830.87L560.08 830.87" stroke="hsla(0, 0%, 100%, 0.21)" stroke-width="1.5"></path><path d="M560.08 830.87L655.06 843.73" stroke="hsla(0, 0%, 100%, 0.21)" stroke-width="1.5"></path><path d="M655.06 843.73L655.06 843.73" stroke="hsla(0, 0%, 100%, 0.21)" stroke-width="1.5"></path><path d="M655.06 843.73L643.86 669.12" stroke="hsla(0, 0%, 100%, 0.21)" stroke-width="1.5"></path><path d="M655.06 843.73L829.29 819.62" stroke="hsla(0, 0%, 100%, 0.21)" stroke-width="1.5"></path><path d="M655.06 843.73L519.76 696.76" stroke="hsla(0, 0%, 100%, 0.21)" stroke-width="1.5"></path><path d="M829.22 368.62L829.22 368.62" stroke="hsla(0, 0%, 100%, 0.21)" stroke-width="1.5"></path><path d="M829.22 368.62L831.36 495.49" stroke="hsla(0, 0%, 100%, 0.21)" stroke-width="1.5"></path><path d="M829.22 368.62L1004.46 355.33" stroke="hsla(0, 0%, 100%, 0.21)" stroke-width="1.5"></path><path d="M829.22 368.62L651.11 503.65" stroke="hsla(0, 0%, 100%, 0.21)" stroke-width="1.5"></path><path d="M829.22 368.62L986.45 552.11" stroke="hsla(0, 0%, 100%, 0.21)" stroke-width="1.5"></path><path d="M829.22 368.62L1009.28 193.68" stroke="hsla(0, 0%, 100%, 0.21)" stroke-width="1.5"></path><path d="M829.22 368.62L1124.98 345.35" stroke="hsla(0, 0%, 100%, 0.21)" stroke-width="1.5"></path><path d="M831.36 495.49L831.36 495.49" stroke="hsla(0, 0%, 100%, 0.21)" stroke-width="1.5"></path><path d="M831.36 495.49L986.45 552.11" stroke="hsla(0, 0%, 100%, 0.21)" stroke-width="1.5"></path><path d="M831.36 495.49L651.11 503.65" stroke="hsla(0, 0%, 100%, 0.21)" stroke-width="1.5"></path><path d="M837.82 702.67L837.82 702.67" stroke="hsla(0, 0%, 100%, 0.21)" stroke-width="1.5"></path><path d="M837.82 702.67L829.29 819.62" stroke="hsla(0, 0%, 100%, 0.21)" stroke-width="1.5"></path><path d="M837.82 702.67L1002.24 686.47" stroke="hsla(0, 0%, 100%, 0.21)" stroke-width="1.5"></path><path d="M837.82 702.67L963.45 853.45" stroke="hsla(0, 0%, 100%, 0.21)" stroke-width="1.5"></path><path d="M837.82 702.67L643.86 669.12" stroke="hsla(0, 0%, 100%, 0.21)" stroke-width="1.5"></path><path d="M837.82 702.67L831.36 495.49" stroke="hsla(0, 0%, 100%, 0.21)" stroke-width="1.5"></path><path d="M837.82 702.67L986.45 552.11" stroke="hsla(0, 0%, 100%, 0.21)" stroke-width="1.5"></path><path d="M829.29 819.62L829.29 819.62" stroke="hsla(0, 0%, 100%, 0.21)" stroke-width="1.5"></path><path d="M829.29 819.62L963.45 853.45" stroke="hsla(0, 0%, 100%, 0.21)" stroke-width="1.5"></path><path d="M829.29 819.62L1002.24 686.47" stroke="hsla(0, 0%, 100%, 0.21)" stroke-width="1.5"></path><path d="M829.29 819.62L643.86 669.12" stroke="hsla(0, 0%, 100%, 0.21)" stroke-width="1.5"></path><path d="M1009.28 193.68L1009.28 193.68" stroke="hsla(0, 0%, 100%, 0.21)" stroke-width="1.5"></path><path d="M1009.28 193.68L1131.21 190.23" stroke="hsla(0, 0%, 100%, 0.21)" stroke-width="1.5"></path><path d="M986.45 552.11L986.45 552.11" stroke="hsla(0, 0%, 100%, 0.21)" stroke-width="1.5"></path><path d="M986.45 552.11L1002.24 686.47" stroke="hsla(0, 0%, 100%, 0.21)" stroke-width="1.5"></path><path d="M1002.24 686.47L1002.24 686.47" stroke="hsla(0, 0%, 100%, 0.21)" stroke-width="1.5"></path><path d="M1002.24 686.47L1115.12 803.86" stroke="hsla(0, 0%, 100%, 0.21)" stroke-width="1.5"></path><path d="M963.45 853.45L963.45 853.45" stroke="hsla(0, 0%, 100%, 0.21)" stroke-width="1.5"></path><path d="M963.45 853.45L1115.12 803.86" stroke="hsla(0, 0%, 100%, 0.21)" stroke-width="1.5"></path><path d="M1148.75 -63.35L1148.75 -63.35" stroke="hsla(0, 0%, 100%, 0.21)" stroke-width="1.5"></path><path d="M1148.75 -63.35L1120.84 52.6" stroke="hsla(0, 0%, 100%, 0.21)" stroke-width="1.5"></path><path d="M1148.75 -63.35L1391.24 -79.76" stroke="hsla(0, 0%, 100%, 0.21)" stroke-width="1.5"></path><path d="M1120.84 52.6L1120.84 52.6" stroke="hsla(0, 0%, 100%, 0.21)" stroke-width="1.5"></path><path d="M1120.84 52.6L1131.21 190.23" stroke="hsla(0, 0%, 100%, 0.21)" stroke-width="1.5"></path><path d="M1120.84 52.6L1009.28 193.68" stroke="hsla(0, 0%, 100%, 0.21)" stroke-width="1.5"></path><path d="M1120.84 52.6L1244.55 251.75" stroke="hsla(0, 0%, 100%, 0.21)" stroke-width="1.5"></path><path d="M1131.21 190.23L1131.21 190.23" stroke="hsla(0, 0%, 100%, 0.21)" stroke-width="1.5"></path><path d="M1131.21 190.23L1244.55 251.75" stroke="hsla(0, 0%, 100%, 0.21)" stroke-width="1.5"></path><path d="M1131.21 190.23L1124.98 345.35" stroke="hsla(0, 0%, 100%, 0.21)" stroke-width="1.5"></path><path d="M1124.98 345.35L1124.98 345.35" stroke="hsla(0, 0%, 100%, 0.21)" stroke-width="1.5"></path><path d="M1124.98 345.35L1244.55 251.75" stroke="hsla(0, 0%, 100%, 0.21)" stroke-width="1.5"></path><path d="M1158.89 516.78L1158.89 516.78" stroke="hsla(0, 0%, 100%, 0.21)" stroke-width="1.5"></path><path d="M1158.89 516.78L1260.5 512.37" stroke="hsla(0, 0%, 100%, 0.21)" stroke-width="1.5"></path><path d="M1158.89 516.78L1155.47 676.9" stroke="hsla(0, 0%, 100%, 0.21)" stroke-width="1.5"></path><path d="M1158.89 516.78L1124.98 345.35" stroke="hsla(0, 0%, 100%, 0.21)" stroke-width="1.5"></path><path d="M1158.89 516.78L986.45 552.11" stroke="hsla(0, 0%, 100%, 0.21)" stroke-width="1.5"></path><path d="M1115.12 803.86L1115.12 803.86" stroke="hsla(0, 0%, 100%, 0.21)" stroke-width="1.5"></path><path d="M1244.55 251.75L1244.55 251.75" stroke="hsla(0, 0%, 100%, 0.21)" stroke-width="1.5"></path><path d="M1244.55 251.75L1396.52 187.66" stroke="hsla(0, 0%, 100%, 0.21)" stroke-width="1.5"></path><path d="M1244.55 251.75L1403.43 382.11" stroke="hsla(0, 0%, 100%, 0.21)" stroke-width="1.5"></path><path d="M1260.5 512.37L1260.5 512.37" stroke="hsla(0, 0%, 100%, 0.21)" stroke-width="1.5"></path><path d="M1260.5 512.37L1155.47 676.9" stroke="hsla(0, 0%, 100%, 0.21)" stroke-width="1.5"></path><path d="M1260.5 512.37L1124.98 345.35" stroke="hsla(0, 0%, 100%, 0.21)" stroke-width="1.5"></path><path d="M1305.59 835.55L1305.59 835.55" stroke="hsla(0, 0%, 100%, 0.21)" stroke-width="1.5"></path><path d="M1305.59 835.55L1436.74 791.64" stroke="hsla(0, 0%, 100%, 0.21)" stroke-width="1.5"></path><path d="M1305.59 835.55L1412.81 677.26" stroke="hsla(0, 0%, 100%, 0.21)" stroke-width="1.5"></path><path d="M1391.24 -79.76L1391.24 -79.76" stroke="hsla(0, 0%, 100%, 0.21)" stroke-width="1.5"></path><path d="M1391.24 -79.76L1396.52 187.66" stroke="hsla(0, 0%, 100%, 0.21)" stroke-width="1.5"></path><path d="M1396.52 187.66L1396.52 187.66" stroke="hsla(0, 0%, 100%, 0.21)" stroke-width="1.5"></path><path d="M1396.52 187.66L1131.21 190.23" stroke="hsla(0, 0%, 100%, 0.21)" stroke-width="1.5"></path><path d="M1436.74 791.64L1436.74 791.64" stroke="hsla(0, 0%, 100%, 0.21)" stroke-width="1.5"></path><path d="M1436.74 791.64L1249.14 680.71" stroke="hsla(0, 0%, 100%, 0.21)" stroke-width="1.5"></path><path d="M1436.74 791.64L1406.84 495.24" stroke="hsla(0, 0%, 100%, 0.21)" stroke-width="1.5"></path><path d="M1436.74 791.64L1155.47 676.9" stroke="hsla(0, 0%, 100%, 0.21)" stroke-width="1.5"></path><circle r="25" cx="69.03" cy="799.41" fill="url(#SvgjsRadialGradient1027)"></circle><circle r="25" cx="553.75" cy="525.03" fill="url(#SvgjsRadialGradient1027)"></circle><circle r="25" cx="651.11" cy="503.65" fill="url(#SvgjsRadialGradient1027)"></circle><circle r="25" cx="643.86" cy="669.12" fill="url(#SvgjsRadialGradient1027)"></circle><circle r="25" cx="1004.46" cy="355.33" fill="url(#SvgjsRadialGradient1027)"></circle><circle r="25" cx="1155.47" cy="676.9" fill="url(#SvgjsRadialGradient1027)"></circle><circle r="25" cx="1309.4" cy="-83.13" fill="url(#SvgjsRadialGradient1027)"></circle><circle r="25" cx="1249.14" cy="680.71" fill="url(#SvgjsRadialGradient1027)"></circle><circle r="25" cx="1439.69" cy="103.7" fill="url(#SvgjsRadialGradient1027)"></circle><circle r="25" cx="1403.43" cy="382.11" fill="url(#SvgjsRadialGradient1027)"></circle><circle r="25" cx="1406.84" cy="495.24" fill="url(#SvgjsRadialGradient1027)"></circle><circle r="25" cx="1412.81" cy="677.26" fill="url(#SvgjsRadialGradient1027)"></circle><circle r="5" cx="-39.68" cy="650.22" fill="rgba(255, 255, 255, 0.605)"></circle><circle r="5" cx="-46.4" cy="849.53" fill="rgba(255, 255, 255, 0.605)"></circle><circle r="5" cx="206.44" cy="664.84" fill="rgba(255, 255, 255, 0.605)"></circle><circle r="5" cx="193.61" cy="854.48" fill="rgba(255, 255, 255, 0.605)"></circle><circle r="5" cx="378.42" cy="648.46" fill="rgba(255, 255, 255, 0.605)"></circle><circle r="5" cx="368.82" cy="805.84" fill="rgba(255, 255, 255, 0.605)"></circle><circle r="5" cx="519.76" cy="696.76" fill="rgba(255, 255, 255, 0.605)"></circle><circle r="5" cx="560.08" cy="830.87" fill="rgba(255, 255, 255, 0.605)"></circle><circle r="5" cx="655.06" cy="843.73" fill="rgba(255, 255, 255, 0.605)"></circle><circle r="5" cx="829.22" cy="368.62" fill="rgba(255, 255, 255, 0.605)"></circle><circle r="5" cx="831.36" cy="495.49" fill="rgba(255, 255, 255, 0.605)"></circle><circle r="5" cx="837.82" cy="702.67" fill="rgba(255, 255, 255, 0.605)"></circle><circle r="5" cx="829.29" cy="819.62" fill="rgba(255, 255, 255, 0.605)"></circle><circle r="5" cx="1009.28" cy="193.68" fill="rgba(255, 255, 255, 0.605)"></circle><circle r="5" cx="986.45" cy="552.11" fill="rgba(255, 255, 255, 0.605)"></circle><circle r="5" cx="1002.24" cy="686.47" fill="rgba(255, 255, 255, 0.605)"></circle><circle r="5" cx="963.45" cy="853.45" fill="rgba(255, 255, 255, 0.605)"></circle><circle r="5" cx="1148.75" cy="-63.35" fill="rgba(255, 255, 255, 0.605)"></circle><circle r="5" cx="1120.84" cy="52.6" fill="rgba(255, 255, 255, 0.605)"></circle><circle r="5" cx="1131.21" cy="190.23" fill="rgba(255, 255, 255, 0.605)"></circle><circle r="5" cx="1124.98" cy="345.35" fill="rgba(255, 255, 255, 0.605)"></circle><circle r="5" cx="1158.89" cy="516.78" fill="rgba(255, 255, 255, 0.605)"></circle><circle r="5" cx="1115.12" cy="803.86" fill="rgba(255, 255, 255, 0.605)"></circle><circle r="5" cx="1244.55" cy="251.75" fill="rgba(255, 255, 255, 0.605)"></circle><circle r="5" cx="1260.5" cy="512.37" fill="rgba(255, 255, 255, 0.605)"></circle><circle r="5" cx="1305.59" cy="835.55" fill="rgba(255, 255, 255, 0.605)"></circle><circle r="5" cx="1391.24" cy="-79.76" fill="rgba(255, 255, 255, 0.605)"></circle><circle r="5" cx="1396.52" cy="187.66" fill="rgba(255, 255, 255, 0.605)"></circle><circle r="5" cx="1436.74" cy="791.64" fill="rgba(255, 255, 255, 0.605)"></circle></g><defs><mask id="SvgjsMask1026"><rect width="1280" height="720" fill="#ffffff"></rect></mask><radialGradient id="SvgjsRadialGradient1027"><stop stop-color="#ffffff" offset="0.1"></stop><stop stop-color="rgba(255, 255, 255, 0.21)" offset="0.2"></stop><stop stop-color="rgba(255, 255, 255, 0)" offset="1"></stop></radialGradient></defs></svg>