<svg xmlns="http://www.w3.org/2000/svg" viewBox="0 0 500 500" preserveAspectRatio="xMinYMin" aria-hidden="true">
<path fill="#404040" fill-rule="evenodd" d="m364.111114,2.151555c-0.289231,0.468754 -0.042387,3.722602 0.549788,7.230775c2.24154,13.288419 1.520956,25.070841 -2.447243,40.006131c-1.998437,7.523746 -4.126528,17.8463 -4.728677,22.93901c-0.603396,5.093956 -1.31276,10.747674 -1.577057,12.566588l-0.479974,3.306209l-5.677405,-0.764218c-36.001778,-4.845866 -84.917969,5.8295 -108.694752,23.718188l-5.275972,3.970693l-19.657734,2.458463c-43.712527,5.466715 -70.739417,4.239977 -114.779823,-5.211145c-20.06914,-4.306051 -19.220147,-5.035362 -14.244626,12.229983c10.807515,37.510267 32.344004,67.532943 70.092388,97.713947l7.599794,6.076344l-6.103771,1.155677c-30.379227,5.753453 -56.073412,3.035679 -78.869052,-8.342818c-6.395496,-3.192761 -11.298709,-5.087723 -11.818577,-4.567855c-1.380081,1.380081 1.876261,11.171547 5.274726,15.862824c1.663078,2.296394 2.876103,4.175149 2.694087,4.175149c-1.611964,0 -15.770569,-5.470455 -19.86593,-7.674595c-5.285946,-2.846183 -17.120729,-13.812026 -24.418825,-22.627338c-6.112498,-7.38287 -6.2621,-6.851782 -6.25836,22.132404c0.009973,80.094544 20.067893,127.037232 67.621458,158.266699l12.148948,7.978786l-6.350615,0.729311c-10.852396,1.247932 -21.625003,7.268175 -28.652568,16.012426c-4.362152,5.428068 -3.126687,5.985336 9.138203,4.122788c18.100624,-2.750188 22.861715,-1.418728 36.387004,10.169212c14.249613,12.207542 18.903489,13.681125 41.604382,13.176217c8.092234,-0.179523 14.712133,-0.19199 14.710887,-0.02618c-0.01496,3.000772 -20.706196,4.374619 -43.789821,2.90727c-7.040032,-0.44756 -3.58422,3.069339 13.667411,13.904281c23.754342,14.919083 51.661392,13.409347 70.508781,-3.81735c4.759844,-4.349685 5.635018,-4.839632 5.000455,-2.800055c-1.174378,3.773716 -3.80239,7.077432 -10.939664,13.754679c-7.587327,7.097379 -7.783056,7.695788 -2.782602,8.522341c11.624094,1.921142 15.559879,0.345332 27.092965,-10.844915l9.60197,-9.317726l3.693929,5.706079c7.490085,11.566746 36.086553,41.027167 39.825362,41.027167c0.736791,0 3.35483,-2.535758 5.81828,-5.636264c25.287765,-31.832863 56.942351,-32.903765 87.593356,-2.962124l9.313986,9.097063l4.150215,-4.66385c2.283927,-2.564432 9.858787,-10.881069 16.833992,-18.480863c36.258595,-39.506211 40.051012,-54.852907 25.705404,-104.017188c-7.645921,-26.200338 -13.951655,-55.002509 -16.154548,-73.793796c-0.243104,-2.065758 0.998595,-3.454565 7.380377,-8.25929c14.191019,-10.684093 28.279809,-27.958165 41.019687,-50.298765c5.421834,-9.504729 5.472948,-9.78274 2.156766,-11.519372l-2.508331,-1.315253l5.072762,-5.181224c5.78836,-5.911782 5.731012,-7.170934 -0.299204,-6.49149c-17.919855,2.01963 -26.354927,-15.049985 -28.657555,-57.994554c-1.14695,-21.386886 -1.180611,-21.258478 6.22844,-23.468851c5.228598,-1.559603 9.707938,-3.818597 9.707938,-4.895733c0,-0.446313 -1.234218,-1.362627 -2.742708,-2.037084c-9.984703,-4.459393 -18.469643,-15.064945 -23.210787,-29.015354c-1.77154,-5.211145 -5.183717,-13.908021 -7.58234,-19.327362c-5.167511,-11.668974 -4.971781,-10.224066 -1.620691,-11.975659c3.11048,-1.625678 15.549906,-11.427117 16.009933,-12.615209c0.729311,-1.881248 -2.217853,-1.947322 -7.046265,-0.158329c-2.87361,1.064669 -8.188229,2.24528 -11.812343,2.624273l-6.587485,0.689417l-1.618198,-3.410931c-0.890133,-1.876261 -2.134325,-6.729607 -2.765148,-10.786321c-1.75284,-11.287489 -3.612894,-17.020994 -6.725867,-20.741103c-3.865971,-4.620216 -5.019155,-3.485732 -4.392072,4.323505l0.517374,6.43913l-15.539932,-15.402797c-14.990144,-14.857995 -16.902559,-16.401392 -18.044523,-14.553804m24.754183,25.679224c24.846438,28.404478 43.403349,70.160956 47.824095,107.613875c1.684272,14.275793 2.828729,31.773022 1.922389,29.421773c-4.109075,-10.671626 -11.698895,-26.738906 -17.82012,-37.720957c-8.755471,-15.709482 -8.125895,-14.814361 -9.473562,-13.466695c-0.721831,0.721831 1.220505,5.12637 6.345628,14.394229c12.387065,22.401688 17.381286,34.531936 23.659594,57.463466c6.546345,23.908931 9.921122,28.871985 21.405587,31.480051l5.8108,1.32024l-5.621304,4.93064c-7.021332,6.158625 -7.296849,7.794277 -1.158171,6.872976c5.823267,-0.87268 5.7921,-0.67321 -1.887482,12.25741c-33.483474,56.373863 -84.623752,81.40481 -157.556089,77.118706c-58.159116,-3.419658 -68.516578,-6.522658 -100.515249,-30.11867c-9.851307,-7.264435 -9.761546,-8.137115 0.792892,-7.700775c12.173882,0.503661 11.496932,-0.918807 -3.116713,-6.557565l-12.481813,-4.815945l3.778703,-2.449737c10.983298,-7.122313 12.008073,-15.359163 6.191039,-49.781391c-5.191198,-30.723313 -4.87828,-38.37422 2.03085,-49.566961c2.67788,-4.338465 3.079313,-6.654806 1.151937,-6.649819c-1.34268,0.00374 -6.44661,9.15441 -8.117168,14.555051l-1.695492,5.479182l-15.385343,-9.330193c-30.846734,-18.705266 -44.58396,-28.182568 -68.005437,-46.916508c-15.840383,-12.670063 -15.785529,-12.517967 -3.549313,-9.765286c37.228517,8.378972 70.455173,9.916135 109.366715,5.062789c8.590908,-1.072149 16.284203,-1.953556 17.095796,-1.961036c0.812839,-0.006233 -2.573158,4.140242 -7.521252,9.214251c-11.469505,11.758736 -12.752344,13.343273 -11.910831,14.7059c0.420133,0.679443 5.861914,-4.107828 13.908021,-12.23871c19.969405,-20.177602 34.171644,-28.74607 57.904792,-34.930876c31.127239,-8.112181 63.55851,-8.310404 88.028449,-0.538568c8.547274,2.715281 11.207701,2.937191 11.207701,0.936261c0,-0.700637 -13.078976,-5.010428 -20.252403,-6.674753c-3.841037,-0.89138 -2.514564,-14.301974 3.934539,-39.776741c3.742549,-14.785688 4.564115,-25.027207 2.960878,-36.894405l-0.804112,-5.951676l7.33051,6.550085c4.030534,3.602921 10.431016,10.095658 14.222186,14.430382m15.062452,6.268334c0.326632,2.532018 0.802865,5.612577 1.057189,6.846796c0.644536,3.122947 -0.062334,2.805042 -2.48589,-1.114537c-2.564432,-4.148969 -3.11422,-15.549906 -0.588435,-12.215023c0.782918,1.033502 1.690505,3.950746 2.017137,6.482764m22.426622,25.102009c-5.923002,4.761091 -8.175762,5.406874 -10.187912,2.920984c-2.330055,-2.876103 -0.568488,-3.604167 11.683935,-4.825919c0.548542,-0.054854 -0.124669,0.802865 -1.496022,1.904935m-306.634717,81.513272c-0.755491,0.756738 -15.825423,-5.774646 -19.114179,-8.28173c-5.051569,-3.854751 -7.026318,-1.796474 -2.649206,2.760161c1.714192,1.784007 6.419183,8.170775 10.45595,14.192265c8.145842,12.148948 12.367118,15.799243 20.488026,17.712905c6.277061,1.478569 6.202259,2.328808 -0.551035,6.245893c-7.791783,4.519234 -3.935786,9.219238 6.427909,7.836664l4.135255,-0.552282l1.138224,5.310879c1.463609,6.820615 4.966794,12.752344 10.157992,17.19553l4.121542,3.526873l-1.438675,3.606661l-1.438675,3.606661l-13.895554,-13.815767c-26.920922,-26.766333 -39.312974,-46.437781 -47.199506,-74.92828c-1.114537,-4.026794 -2.302628,-8.193216 -2.640479,-9.256638c-0.352812,-1.110797 6.410456,3.701409 15.861577,11.284995c9.062155,7.270669 16.325344,13.3707 16.140835,13.555209m328.239774,-14.642319l3.59918,2.224087l-5.871888,2.096925l-5.871888,2.096925l-1.226738,-6.501464c-0.675703,-3.575493 -1.494776,-7.613507 -1.821407,-8.972394c-0.487454,-2.024617 0.144615,-1.631911 3.499446,2.180453c2.251514,2.558198 5.713559,5.652471 7.693295,6.875469m-328.788315,17.378793c7.275655,1.966023 10.45595,3.625361 22.440335,11.702635c7.679581,5.177484 20.919379,13.58887 29.421773,18.694046c20.597735,12.367118 19.485691,10.863616 12.807198,17.332666c-3.475759,3.36605 -6.824355,5.657458 -8.933747,6.111251c-4.527961,0.976155 -8.547274,3.070586 -13.349506,6.957751l-3.99064,3.230162l0.365279,-8.039874c0.366525,-8.084754 -1.255412,-18.615505 -2.868623,-18.615505c-1.714192,0 -2.054537,2.01963 -0.963688,5.714805c0.612122,2.068251 0.969921,6.677246 0.795385,10.242766l-0.317905,6.482764l-4.195096,-4.314778c-6.47653,-6.658546 -10.566905,-19.122906 -6.277061,-19.122906c2.002177,0 2.709047,-1.436181 1.174378,-2.384909c-0.452547,-0.278011 -3.79491,-0.086021 -7.428998,0.42886c-9.236691,1.307773 -10.827462,0.43634 -5.480429,-3.003265c9.78648,-6.298254 10.615525,-9.210511 2.752681,-9.679265c-10.01961,-0.597162 -17.023488,-5.952922 -25.267818,-19.322376c-3.582974,-5.812047 -3.680215,-6.164859 -1.496022,-5.460482c1.284086,0.415146 6.149899,1.785253 10.812502,3.045652m74.752497,73.787563c3.878438,24.184448 3.887165,24.846438 0.297958,23.972512c-7.617247,-1.855068 -35.690107,-19.697628 -38.730772,-24.617048c-0.369019,-0.597162 1.746606,-3.500692 4.698757,-6.45409l5.37072,-5.369474l4.481834,6.629872c9.714172,14.369295 19.084259,18.634205 12.510487,5.696105c-6.098785,-12.004333 -5.945442,-15.098606 1.070903,-21.649937l5.860668,-5.471702l0.69939,4.151462c0.385226,2.282681 2.068251,12.683776 3.740056,23.112299m179.572551,-23.022537c0,1.378834 -3.846024,4.968041 -6.283294,5.865654c-0.89512,0.329125 -0.911327,0.744271 -0.064828,1.646871c2.447243,2.609312 10.807515,-4.757351 8.900086,-7.844144c-0.962441,-1.55711 -2.551965,-1.351407 -2.551965,0.331618m-198.4723,9.388787c0,1.558357 0.629576,4.92316 1.397534,7.477618c1.722919,5.726026 0.731804,5.208651 -4.343452,-2.265227c-3.913345,-5.760933 -3.922072,-5.797087 -1.740373,-6.851782c3.620374,-1.749099 4.68629,-1.376341 4.68629,1.639391m206.91236,-0.796632c-6.300748,2.424803 -13.441761,9.325206 -11.566746,11.176534c1.016049,1.002335 1.664325,0.705624 3.285016,-1.505996c3.625361,-4.944354 10.186666,-7.977539 18.398582,-8.504887c5.34454,-0.342838 7.374144,-0.848993 7.374144,-1.837614c0,-2.109392 -11.402184,-1.670558 -17.490995,0.671963m-327.591497,28.802171c3.171567,1.690505 11.088019,4.89698 17.593223,7.126053c6.503957,2.229073 14.860489,5.841967 18.569378,8.028653c6.098785,3.596687 8.715577,4.187616 8.715577,1.969763c0,-0.435093 -3.82109,-2.934697 -8.49242,-5.556476c-8.812818,-4.945601 -14.679719,-10.721494 -18.03081,-17.746565c-2.412336,-5.059049 -2.014643,-5.09645 7.057486,-0.670717c22.404182,10.928443 50.970729,13.556456 80.664279,7.422764l7.384117,-1.524696l6.849289,4.508014c5.77714,3.801143 13.846934,7.501305 21.560176,9.882474c6.575018,2.03085 -1.8052,18.394842 -11.38473,22.227152c-5.728519,2.292654 -4.746131,3.682708 5.400641,7.640934c5.940455,2.317588 8.149582,3.538093 6.204753,3.427138c-6.875469,-0.390212 -7.433984,4.129022 -1.218012,9.850061c9.499742,8.743004 35.009417,24.058533 45.457886,27.291188c6.48027,2.00467 6.899156,2.791328 7.052499,13.219851c0.086021,5.813294 -0.374006,7.698282 -3.294989,13.497862c-19.533065,38.786873 -22.356808,69.526393 -9.058415,98.594107l3.268809,7.146l-9.681758,9.513456c-10.357462,10.175445 -12.749851,11.600407 -19.478211,11.600407l-4.306051,0l6.460323,-6.587485c7.121066,-7.263189 9.261625,-11.266295 9.261625,-17.316459c0,-5.3595 -0.812839,-5.127617 -8.471227,2.417323c-20.411978,20.114021 -48.949852,20.647602 -75.306026,1.410001l-5.485415,-4.004353l11.469505,0.63955c14.095024,0.785412 24.764157,-0.618356 30.572464,-4.023053c9.059662,-5.308386 7.063719,-6.521411 -9.129476,-5.546503c-25.035934,1.505996 -33.002253,-0.671963 -46.875367,-12.817172c-12.773538,-11.182767 -21.303358,-13.475421 -39.89393,-10.717754l-4.986741,0.740531l4.772311,-4.455653c8.162049,-7.619741 14.361815,-9.995923 26.614238,-10.199132c12.02054,-0.19947 13.274705,-1.160664 6.197273,-4.747378c-54.562429,-27.64774 -80.333908,-76.836955 -81.681574,-155.897997l-0.513634,-30.141111l10.199132,10.363695c6.581252,6.688467 12.243696,11.454545 15.963805,13.438021m223.406006,-13.38566c0,0.893873 0.918807,1.496022 2.282681,1.496022c1.255412,0 4.03926,0.896367 6.187299,1.990956c4.22377,2.153026 7.232021,1.227985 4.45316,-1.36886c-3.448332,-3.221435 -12.92314,-4.774805 -12.92314,-2.118118m130.153946,4.590295c-11.438338,1.194325 -11.528099,1.218012 -10.618019,2.6704c0.726818,1.160664 23.662087,-0.024934 24.926226,-1.289073c2.312601,-2.312601 -1.695492,-2.70032 -14.308207,-1.381327m-155.835663,3.621621c-6.854276,1.427455 -8.835259,2.70406 -5.926742,3.82109c0.718091,0.275517 4.196343,-0.180769 7.729449,-1.014802c8.107195,-1.909922 14.200992,-1.927375 24.760417,-0.069814c4.597775,0.810345 8.749237,1.231725 9.225471,0.937507c6.168599,-3.812364 -21.490361,-6.652313 -35.788595,-3.673982m79.289185,4.960561c-6.983931,1.831381 -7.538706,3.888411 -1.302786,4.823425c3.803637,0.570982 4.4756,1.027269 4.737404,3.225175c0.529841,4.446926 2.358729,3.453318 4.160189,-2.26024c2.529524,-8.023667 2.118118,-8.336585 -7.594807,-5.78836m72.058411,5.77714c0,1.230478 1.772787,1.496022 9.973482,1.496022s9.973482,-0.265544 9.973482,-1.496022s-1.772787,-1.496022 -9.973482,-1.496022s-9.973482,0.265544 -9.973482,1.496022m-146.610192,17.174337c-11.781176,3.9869 -11.695155,3.943266 -10.372422,5.265999c1.186844,1.186844 23.506251,-5.976609 23.035004,-7.392844c-0.572229,-1.715439 -2.035837,-1.469842 -12.662583,2.126845m6.097538,7.351703c-5.659951,6.158625 -7.093639,8.287964 -6.188546,9.193057c1.246685,1.246685 16.234336,-13.755926 15.687041,-15.704495c-0.65077,-2.320081 -2.625519,-0.967428 -9.498495,6.511437m88.883675,13.903035c-2.90727,2.64422 -3.949499,2.960878 -9.724145,2.960878c-5.082736,0 -6.466557,0.320398 -6.466557,1.496022c0,3.11796 12.977994,1.99345 17.867494,-1.54963c3.879685,-2.810029 4.818439,-4.89698 2.515811,-5.587644c-0.513634,-0.154589 -2.401116,1.052202 -4.192603,2.680373m64.494771,36.122707c1.214271,7.816717 4.217536,22.515137 6.673506,32.663155c6.316954,26.103097 7.190881,39.960004 3.843531,60.955431c-0.422626,2.656686 -0.185756,3.75751 0.9026,4.175149c1.798967,0.690664 2.656686,-4.42698 3.563027,-21.247258l0.617109,-11.469505l2.251514,9.221731c7.39035,30.255806 4.279871,47.236906 -12.51298,68.315861c-8.529821,10.70778 -34.270132,38.7956 -35.217613,38.430321c-0.392706,-0.152096 -3.838544,-3.232655 -7.657141,-6.848042l-6.94279,-6.571278l3.33239,-3.171567c6.45035,-6.137432 11.652768,-19.63654 19.161553,-49.722797c8.090988,-32.421298 13.505342,-59.131531 12.243696,-60.393176c-1.57207,-1.57207 -1.356394,-2.301381 -6.561305,22.208452c-17.792693,83.789719 -30.890368,107.557775 -39.844062,72.307748c-2.722761,-10.720247 -6.586238,-61.758297 -6.586238,-87.004921c0,-3.221435 -0.383979,-4.252444 -1.584537,-4.252444c-3.493212,0 1.631911,80.73534 6.050164,95.299118c0.822812,2.714034 1.502256,5.218625 1.507243,5.56645c0.006233,0.347825 -2.793822,-0.506154 -6.222206,-1.898702c-11.826057,-4.799738 -28.651322,-4.232497 -41.493427,1.400028c-4.681303,2.053291 -5.254779,2.128092 -4.651383,0.605889c2.69284,-6.804408 5.657458,-30.601137 7.424011,-59.582831c2.353742,-38.624804 2.369949,-39.395256 0.799125,-39.395256c-1.174378,0 -1.598251,2.432283 -2.125598,12.217516c-6.68348,123.785877 -17.059642,123.866912 -47.576005,0.375252c-5.648731,-22.860468 -7.54868,-28.209995 -9.370087,-26.387341c-0.42886,0.42886 13.263485,55.158345 17.841313,71.315386c8.339078,29.428007 15.056218,45.036507 21.19739,49.25903c2.843689,1.956049 -10.28266,16.679403 -13.38192,15.008844c-3.008252,-1.620691 -26.56437,-26.267659 -32.039812,-33.523368c-19.459511,-25.783945 -24.780364,-59.283626 -14.178552,-89.262668c2.590612,-7.32677 10.327541,-24.912512 8.556001,-19.448291c-5.886848,18.155478 -6.863003,32.670635 -3.314936,49.331337c1.983476,9.316479 2.923477,11.323643 4.274884,9.136957c0.296711,-0.481221 -0.386472,-5.081489 -1.519709,-10.222819c-3.157854,-14.339374 -2.379922,-27.564212 2.573158,-43.757407c3.526873,-11.531839 3.82109,-13.424307 3.910852,-25.227924l0.098488,-12.762317l3.490719,0.558515c62.451454,9.977222 115.549027,4.440693 151.098259,-15.754362c4.388332,-2.493371 8.245577,-4.561622 8.570961,-4.596529s1.584537,6.331915 2.798809,14.148632m-92.653652,79.863907c0,1.503502 3.430878,4.864566 6.666026,6.531384c4.620216,2.379922 11.020698,0.704377 13.858154,-3.626608c2.584379,-3.943266 0.209443,-4.860826 -3.35483,-1.296553c-3.880931,3.880931 -7.16096,3.898385 -11.531839,0.061088c-3.654035,-3.208968 -5.637511,-3.796157 -5.637511,-1.669312" />
</svg>
