<svg id="svg" version="1.1" width="500" height="500" xmlns="http://www.w3.org/2000/svg" xmlns:xlink="http://www.w3.org/1999/xlink" ><g id="svgg"><path id="path0" d="M291.673 2.282 C 291.441 2.658,291.639 5.268,292.114 8.082 C 293.912 18.741,293.334 28.192,290.151 40.172 C 288.548 46.207,286.841 54.487,286.358 58.572 C 285.874 62.658,285.305 67.193,285.093 68.652 L 284.708 71.304 280.154 70.691 C 251.276 66.804,212.039 75.367,192.967 89.716 L 188.735 92.901 172.967 94.873 C 137.904 99.258,116.225 98.274,80.899 90.693 C 64.801 87.239,65.482 86.654,69.473 100.503 C 78.142 130.591,95.417 154.673,125.696 178.882 L 131.792 183.756 126.896 184.683 C 102.528 189.298,81.918 187.118,63.633 177.991 C 58.503 175.430,54.570 173.910,54.153 174.327 C 53.046 175.434,55.658 183.288,58.384 187.051 C 59.718 188.893,60.691 190.400,60.545 190.400 C 59.252 190.400,47.895 186.012,44.610 184.244 C 40.370 181.961,30.877 173.165,25.023 166.094 C 20.120 160.172,20.000 160.598,20.003 183.847 C 20.011 248.093,36.100 285.748,74.244 310.800 L 83.989 317.200 78.895 317.785 C 70.190 318.786,61.549 323.615,55.912 330.629 C 52.413 334.983,53.404 335.430,63.242 333.936 C 77.761 331.730,81.580 332.798,92.429 342.093 C 103.859 351.885,107.592 353.067,125.801 352.662 C 132.292 352.518,137.602 352.508,137.601 352.641 C 137.589 355.048,120.992 356.150,102.476 354.973 C 96.829 354.614,99.601 357.435,113.439 366.126 C 132.493 378.093,154.878 376.882,169.996 363.064 C 173.814 359.575,174.516 359.182,174.007 360.818 C 173.065 363.845,170.957 366.495,165.232 371.851 C 159.146 377.544,158.989 378.024,163.000 378.687 C 172.324 380.228,175.481 378.964,184.732 369.988 L 192.434 362.514 195.397 367.091 C 201.405 376.369,224.343 400.000,227.342 400.000 C 227.933 400.000,230.033 397.966,232.009 395.479 C 252.293 369.945,277.684 369.086,302.270 393.103 L 309.741 400.400 313.070 396.659 C 314.902 394.602,320.978 387.931,326.573 381.835 C 355.657 350.146,358.699 337.836,347.192 298.400 C 341.059 277.384,336.001 254.281,334.234 239.208 C 334.039 237.551,335.035 236.437,340.154 232.583 C 351.537 224.013,362.838 210.157,373.057 192.237 C 377.406 184.613,377.447 184.390,374.787 182.997 L 372.775 181.942 376.844 177.786 C 381.487 173.044,381.441 172.034,376.604 172.579 C 362.230 174.199,355.464 160.507,353.617 126.060 C 352.697 108.905,352.670 109.008,358.613 107.235 C 362.807 105.984,366.400 104.172,366.400 103.308 C 366.400 102.950,365.410 102.215,364.200 101.674 C 356.191 98.097,349.385 89.590,345.582 78.400 C 344.161 74.220,341.424 67.244,339.500 62.897 C 335.355 53.537,335.512 54.696,338.200 53.291 C 340.695 51.987,350.673 44.125,351.042 43.172 C 351.627 41.663,349.263 41.610,345.390 43.045 C 343.085 43.899,338.822 44.846,335.915 45.150 L 330.631 45.703 329.333 42.967 C 328.619 41.462,327.621 37.569,327.115 34.315 C 325.709 25.261,324.217 20.662,321.720 17.678 C 318.619 13.972,317.694 14.882,318.197 21.146 L 318.612 26.311 306.147 13.956 C 294.123 2.038,292.589 0.800,291.673 2.282 M311.529 22.880 C 331.459 45.664,346.344 79.158,349.890 109.200 C 351.241 120.651,352.159 134.686,351.432 132.800 C 348.136 124.240,342.048 111.352,337.138 102.543 C 330.115 89.942,330.620 90.660,329.539 91.741 C 328.960 92.320,330.518 95.853,334.629 103.287 C 344.565 121.256,348.571 130.986,353.607 149.380 C 358.858 168.558,361.565 172.539,370.777 174.631 L 375.438 175.690 370.929 179.645 C 365.297 184.585,365.076 185.897,370.000 185.158 C 374.671 184.458,374.646 184.618,368.486 194.990 C 341.628 240.209,300.607 260.287,242.105 256.849 C 195.454 254.106,187.146 251.617,161.479 232.690 C 153.577 226.863,153.649 226.163,162.115 226.513 C 171.880 226.917,171.337 225.776,159.615 221.253 L 149.603 217.390 152.634 215.425 C 161.444 209.712,162.266 203.105,157.600 175.494 C 153.436 150.850,153.687 144.713,159.229 135.735 C 161.377 132.255,161.699 130.397,160.153 130.401 C 159.076 130.404,154.982 137.744,153.642 142.076 L 152.282 146.471 139.941 138.987 C 115.198 123.983,104.179 116.381,85.392 101.354 C 72.686 91.191,72.730 91.313,82.545 93.521 C 112.407 100.242,139.059 101.475,170.271 97.582 C 177.162 96.722,183.333 96.015,183.984 96.009 C 184.636 96.004,181.920 99.330,177.951 103.400 C 168.751 112.832,167.722 114.103,168.397 115.196 C 168.734 115.741,173.099 111.901,179.553 105.379 C 195.571 89.194,206.963 82.321,226.000 77.360 C 250.968 70.853,276.982 70.694,296.610 76.928 C 303.466 79.106,305.600 79.284,305.600 77.679 C 305.600 77.117,295.109 73.660,289.355 72.325 C 286.274 71.610,287.338 60.853,292.511 40.419 C 295.513 28.559,296.172 20.344,294.886 10.825 L 294.241 6.051 300.121 11.305 C 303.354 14.195,308.488 19.403,311.529 22.880 M323.611 27.908 C 323.873 29.939,324.255 32.410,324.459 33.400 C 324.976 35.905,324.409 35.650,322.465 32.506 C 320.408 29.178,319.967 20.033,321.993 22.708 C 322.621 23.537,323.349 25.877,323.611 27.908 M341.600 48.043 C 336.849 51.862,335.042 52.380,333.428 50.386 C 331.559 48.079,332.972 47.495,342.800 46.515 C 343.240 46.471,342.700 47.159,341.600 48.043 M95.639 113.427 C 95.033 114.034,82.945 108.795,80.307 106.784 C 76.255 103.692,74.671 105.343,78.182 108.998 C 79.557 110.429,83.331 115.552,86.569 120.382 C 93.103 130.127,96.489 133.055,103.003 134.590 C 108.038 135.776,107.978 136.458,102.561 139.600 C 96.311 143.225,99.404 146.995,107.717 145.886 L 111.034 145.443 111.947 149.703 C 113.121 155.174,115.931 159.932,120.095 163.496 L 123.401 166.325 122.247 169.218 L 121.093 172.111 109.947 161.029 C 88.353 139.559,78.413 123.780,72.087 100.927 C 71.193 97.697,70.240 94.355,69.969 93.502 C 69.686 92.611,75.111 96.471,82.692 102.554 C 89.961 108.386,95.787 113.279,95.639 113.427 M358.933 101.682 L 361.820 103.466 357.110 105.148 L 352.400 106.830 351.416 101.615 C 350.874 98.747,350.217 95.508,349.955 94.418 C 349.564 92.794,350.071 93.109,352.762 96.167 C 354.568 98.219,357.345 100.701,358.933 101.682 M95.200 115.622 C 101.036 117.199,103.587 118.530,113.200 125.009 C 119.360 129.162,129.980 135.909,136.800 140.004 C 153.322 149.924,152.430 148.718,147.073 153.907 C 144.285 156.607,141.599 158.445,139.907 158.809 C 136.275 159.592,133.051 161.272,129.199 164.390 L 125.998 166.981 126.291 160.532 C 126.585 154.047,125.284 145.600,123.990 145.600 C 122.615 145.600,122.342 147.220,123.217 150.184 C 123.708 151.843,123.995 155.540,123.855 158.400 L 123.600 163.600 120.235 160.139 C 115.040 154.798,111.759 144.800,115.200 144.800 C 116.806 144.800,117.373 143.648,116.142 142.887 C 115.779 142.664,113.098 142.818,110.183 143.231 C 102.774 144.280,101.498 143.581,105.787 140.822 C 113.637 135.770,114.302 133.434,107.995 133.058 C 99.958 132.579,94.340 128.283,87.727 117.559 C 84.853 112.897,84.775 112.614,86.527 113.179 C 87.557 113.512,91.460 114.611,95.200 115.622 M155.161 174.809 C 158.272 194.208,158.279 194.739,155.400 194.038 C 149.290 192.550,126.772 178.238,124.333 174.292 C 124.037 173.813,125.734 171.484,128.102 169.115 L 132.410 164.808 136.005 170.126 C 143.797 181.652,151.313 185.073,146.040 174.695 C 141.148 165.066,141.271 162.584,146.899 157.329 L 151.600 152.940 152.161 156.270 C 152.470 158.101,153.820 166.444,155.161 174.809 M299.200 156.342 C 299.200 157.448,296.115 160.327,294.160 161.047 C 293.442 161.311,293.429 161.644,294.108 162.368 C 296.071 164.461,302.777 158.552,301.247 156.076 C 300.475 154.827,299.200 154.992,299.200 156.342 M140.000 163.873 C 140.000 165.123,140.505 167.822,141.121 169.871 C 142.503 174.464,141.708 174.049,137.637 168.054 C 134.498 163.433,134.491 163.404,136.241 162.558 C 139.145 161.155,140.000 161.454,140.000 163.873 M305.970 163.234 C 300.916 165.179,295.188 170.714,296.692 172.199 C 297.507 173.003,298.027 172.765,299.327 170.991 C 302.235 167.025,307.498 164.592,314.085 164.169 C 318.372 163.894,320.000 163.488,320.000 162.695 C 320.000 161.003,310.854 161.355,305.970 163.234 M43.202 186.337 C 45.746 187.693,52.096 190.265,57.314 192.053 C 62.531 193.841,69.234 196.739,72.209 198.493 C 77.101 201.378,79.200 201.852,79.200 200.073 C 79.200 199.724,76.135 197.719,72.388 195.616 C 65.319 191.649,60.613 187.016,57.925 181.381 C 55.990 177.323,56.309 177.293,63.586 180.843 C 81.557 189.609,104.471 191.717,128.289 186.797 L 134.212 185.574 139.706 189.190 C 144.340 192.239,150.813 195.207,157.000 197.117 C 162.274 198.746,155.552 211.872,147.868 214.946 C 143.273 216.785,144.061 217.900,152.200 221.075 C 156.965 222.934,158.737 223.913,157.177 223.824 C 151.662 223.511,151.214 227.136,156.200 231.725 C 163.820 238.738,184.282 251.023,192.663 253.616 C 197.861 255.224,198.197 255.855,198.320 264.220 C 198.389 268.883,198.020 270.395,195.677 275.047 C 180.009 306.159,177.744 330.816,188.411 354.132 L 191.033 359.864 183.267 367.495 C 174.959 375.657,173.040 376.800,167.643 376.800 L 164.189 376.800 169.371 371.516 C 175.083 365.690,176.800 362.479,176.800 357.626 C 176.800 353.327,176.148 353.513,170.005 359.565 C 153.632 375.699,130.741 376.127,109.600 360.696 L 105.200 357.484 114.400 357.997 C 125.706 358.627,134.264 357.501,138.923 354.770 C 146.190 350.512,144.589 349.539,131.600 350.321 C 111.518 351.529,105.128 349.782,94.000 340.040 C 83.754 331.070,76.912 329.231,62.000 331.443 L 58.000 332.037 61.828 328.463 C 68.375 322.351,73.348 320.445,83.176 320.282 C 92.818 320.122,93.824 319.351,88.147 316.474 C 44.381 294.297,23.709 254.841,22.628 191.422 L 22.216 167.245 30.397 175.558 C 35.676 180.923,40.218 184.746,43.202 186.337 M222.400 175.600 C 222.400 176.317,223.137 176.800,224.231 176.800 C 225.238 176.800,227.471 177.519,229.194 178.397 C 232.582 180.124,234.995 179.382,232.766 177.299 C 230.000 174.715,222.400 173.469,222.400 175.600 M326.800 179.282 C 317.625 180.240,317.553 180.259,318.283 181.424 C 318.866 182.355,337.263 181.404,338.277 180.390 C 340.132 178.535,336.917 178.224,326.800 179.282 M201.800 182.187 C 196.302 183.332,194.713 184.356,197.046 185.252 C 197.622 185.473,200.412 185.107,203.246 184.438 C 209.749 182.906,214.637 182.892,223.107 184.382 C 226.795 185.032,230.125 185.370,230.507 185.134 C 235.455 182.076,213.269 179.798,201.800 182.187 M265.400 186.166 C 259.798 187.635,259.353 189.285,264.355 190.035 C 267.406 190.493,267.945 190.859,268.155 192.622 C 268.580 196.189,270.047 195.392,271.492 190.809 C 273.521 184.373,273.191 184.122,265.400 186.166 M323.200 190.800 C 323.200 191.787,324.622 192.000,331.200 192.000 C 337.778 192.000,339.200 191.787,339.200 190.800 C 339.200 189.813,337.778 189.600,331.200 189.600 C 324.622 189.600,323.200 189.813,323.200 190.800 M205.600 204.576 C 196.150 207.774,196.219 207.739,197.280 208.800 C 198.232 209.752,216.135 204.006,215.757 202.870 C 215.298 201.494,214.124 201.691,205.600 204.576 M210.491 210.473 C 205.951 215.413,204.801 217.121,205.527 217.847 C 206.527 218.847,218.549 206.813,218.110 205.250 C 217.588 203.389,216.004 204.474,210.491 210.473 M281.787 221.625 C 279.455 223.746,278.619 224.000,273.987 224.000 C 269.910 224.000,268.800 224.257,268.800 225.200 C 268.800 227.701,279.210 226.799,283.132 223.957 C 286.244 221.703,286.997 220.029,285.150 219.475 C 284.738 219.351,283.224 220.319,281.787 221.625 M333.520 250.600 C 334.494 256.870,336.903 268.660,338.873 276.800 C 343.940 297.738,344.641 308.853,341.956 325.694 C 341.617 327.825,341.807 328.708,342.680 329.043 C 344.123 329.597,344.811 325.492,345.538 312.000 L 346.033 302.800 347.839 310.197 C 353.767 334.466,351.272 348.087,337.802 364.995 C 330.960 373.584,310.313 396.114,309.553 395.821 C 309.238 395.699,306.474 393.228,303.411 390.328 L 297.842 385.057 300.515 382.513 C 305.689 377.590,309.862 366.762,315.885 342.629 C 322.375 316.623,326.718 295.198,325.706 294.186 C 324.445 292.925,324.618 292.340,320.443 312.000 C 306.171 379.210,295.665 398.275,288.483 370.000 C 286.299 361.401,283.200 320.462,283.200 300.211 C 283.200 297.627,282.892 296.800,281.929 296.800 C 279.127 296.800,283.238 361.560,286.782 373.242 C 287.442 375.419,287.987 377.428,287.991 377.707 C 287.996 377.986,285.750 377.301,283.000 376.184 C 273.514 372.334,260.018 372.789,249.717 377.307 C 245.962 378.954,245.502 379.014,245.986 377.793 C 248.146 372.335,250.524 353.247,251.941 330.000 C 253.829 299.018,253.842 298.400,252.582 298.400 C 251.640 298.400,251.300 300.351,250.877 308.200 C 245.516 407.492,237.193 407.557,212.715 308.501 C 208.184 290.164,206.660 285.873,205.199 287.335 C 204.855 287.679,215.838 331.579,219.510 344.539 C 226.199 368.144,231.587 380.664,236.513 384.051 C 238.794 385.620,228.265 397.430,225.779 396.090 C 223.366 394.790,204.471 375.020,200.079 369.200 C 184.470 348.518,180.202 321.647,188.706 297.600 C 190.784 291.723,196.990 277.617,195.569 282.000 C 190.847 296.563,190.064 308.206,192.910 321.570 C 194.501 329.043,195.255 330.653,196.339 328.899 C 196.577 328.513,196.029 324.823,195.120 320.699 C 192.587 309.197,193.211 298.589,197.184 285.600 C 200.013 276.350,200.249 274.832,200.321 265.364 L 200.400 255.127 203.200 255.575 C 253.294 263.578,295.885 259.137,324.400 242.938 C 327.920 240.938,331.014 239.279,331.275 239.251 C 331.536 239.223,332.546 244.330,333.520 250.600 M259.200 314.661 C 259.200 315.867,261.952 318.563,264.547 319.900 C 268.253 321.809,273.387 320.465,275.663 316.991 C 277.736 313.828,275.831 313.092,272.972 315.951 C 269.859 319.064,267.228 319.078,263.722 316.000 C 260.791 313.426,259.200 312.955,259.200 314.661 " stroke="none" fill="#000000" fill-rule="evenodd"></path></g></svg>